SplineFontDB: 3.0
FontName: DavidCLM-MediumItalic
FullName: David CLM Medium Italic
FamilyName: David CLM
Weight: Medium
Copyright: Copyright 2002-2018 by Maxim Iorsh (iorsh@users.sourceforge.net).\nDistributed under the terms of GNU General Public License version 2(http://www.gnu.org/licenses/gpl.html). \nLatin glyphs and part of punctuation copyright 1990 as an unpublished work by Bitstream Inc. \nAll rights reserved.
UComments: "2002-9-22: Created." 
Version: 0.133
ItalicAngle: 10
UnderlinePosition: -100
UnderlineWidth: 50
Ascent: 960
Descent: 240
LayerCount: 2
Layer: 0 0 "Back"  1
Layer: 1 0 "Fore"  0
FSType: 0
OS2Version: 0
OS2_WeightWidthSlopeOnly: 0
OS2_UseTypoMetrics: 0
CreationTime: 1163025784
ModificationTime: 1537994755
PfmFamily: 17
TTFWeight: 500
TTFWidth: 5
LineGap: 90
VLineGap: 0
Panose: 2 0 6 3 0 0 0 0 0 0
OS2TypoAscent: 0
OS2TypoAOffset: 1
OS2TypoDescent: 0
OS2TypoDOffset: 1
OS2TypoLinegap: 0
OS2WinAscent: 0
OS2WinAOffset: 1
OS2WinDescent: 0
OS2WinDOffset: 1
HheadAscent: 0
HheadAOffset: 1
HheadDescent: 0
HheadDOffset: 1
OS2Vendor: 'PfEd'
Lookup: 1 1 0 "AltAyin"  {"AltAyin subtable"  } []
Lookup: 6 1 0 "ccmpAltAyin"  {"ccmpAltAyin contextual 0"  "ccmpAltAyin contextual 1"  "ccmpAltAyin contextual 2"  } ['ccmp' ('hebr' <'dflt' > ) ]
Lookup: 6 1 0 "ccmpVavHolam"  {"ccmpVavHolam subtable"  } ['ccmp' ('hebr' <'dflt' > ) ]
Lookup: 4 1 0 "Ligature Substitution lookup 3"  {"Ligature Substitution lookup 3 subtable"  } []
Lookup: 4 1 0 "ccmpCustomPrecomp"  {"ccmpCustomPrecomp subtable"  } ['ccmp' ('hebr' <'dflt' > ) ]
Lookup: 4 1 0 "ccmpDagesh"  {"ccmpDagesh subtable"  } ['ccmp' ('hebr' <'dflt' > ) ]
Lookup: 4 1 0 "ccmpSinShin"  {"ccmpSinShin subtable"  } ['ccmp' ('hebr' <'dflt' > ) ]
Lookup: 1 1 0 "jaltWideLetters"  {"jaltWideLetters subtable"  } ['jalt' ('hebr' <'dflt' > ) ]
Lookup: 1 1 0 "ccmpYiddish1"  {"ccmpYiddish1 subtable"  } ['ccmp' ('hebr' <'JII ' > ) ]
Lookup: 4 1 0 "ccmpYiddish_dflt"  {"ccmpYiddish_dflt subtable"  } ['ccmp' ('hebr' <'dflt' > ) ]

StartChar: exclam
Encoding: 33 33 0
Width: 302
VWidth: 1000
Flags: HMW
LayerCount: 2
Back
SplineSet
223.979 130.608 m 1
 261.569 103.54 276.872 89.4824 302.295 57.2432 c 1
 288.896 26.541 269.723 -0.154297 244.5 -20.7061 c 1
 210.668 2.5293 190.406 16.1006 163.5 48 c 1
 179.182 81.9219 199.991 107.416 223.979 130.608 c 1
133.5 694 m 1
 144.5 669 144.99 636.845 150.5 600 c 16
 166.5 493 183.5 414 211.5 309 c 1
 207.5 279 199 228 159 210 c 1
 111 301 82 405 39 537 c 8
 32.1104 558.149 30 571 41 594 c 1
 63 637 98.5 675 133.5 694 c 1
EndSplineSet
Fore
SplineSet
145.24 134.391 m 1
 184.712 105.97 200.777 91.209 227.474 57.3574 c 1
 213.403 25.1201 193.271 -2.90918 166.789 -24.4893 c 1
 131.266 -0.0917969 109.989 14.1582 81.7383 47.6523 c 1
 98.2051 83.2705 120.055 110.039 145.24 134.391 c 1
55.209 694 m 1
 66.209 669 66.6992 636.845 72.209 600 c 16
 88.209 493 105.209 414 133.209 309 c 1
 129.209 279 120.709 228 80.709 210 c 1
 32.709 301 3.70898 405 -39.291 537 c 8
 -46.1807 558.149 -48.291 571 -37.291 594 c 1
 -15.291 637 20.209 675 55.209 694 c 1
EndSplineSet
Validated: 33
EndChar

StartChar: quotedbl
Encoding: 34 34 1
Width: 436
VWidth: 1000
Flags: HMW
LayerCount: 2
Back
SplineSet
87.002 803.499 m 5
 152.478 685.334 167.728 576.025 154.545 397.604 c 5
 145 384 128 383 109.71 385.201 c 5
 93.8789 502.736 44.8525 639.324 6.61133 698.869 c 5
 24 744 57 784 87.002 803.499 c 5
269 800 m 1
 354 695 388 590 406 412 c 1
 402 392 382 382 364 392 c 1
 328 505 256 631 208 683 c 1
 223.413 749.109 239 803 269 800 c 1
51 800 m 1
 136 695 170 590 188 412 c 1
 184 392 164 382 146 392 c 1
 110 505 38 631 -10 683 c 1
 5.41309 749.109 21 803 51 800 c 1
EndSplineSet
Fore
SplineSet
228.391 803 m 1
 293.866 684.835 309.116 575.526 295.934 397.105 c 1
 286.389 383.501 269.389 382.501 251.099 384.702 c 1
 235.268 502.237 186.241 638.825 148 698.37 c 1
 165.389 743.501 198.389 783.501 228.391 803 c 1
10.3906 803 m 1
 75.8662 684.835 91.1162 575.526 77.9336 397.105 c 1
 68.3887 383.501 51.3887 382.501 33.0986 384.702 c 1
 17.2676 502.237 -31.7588 638.825 -70 698.37 c 1
 -52.6113 743.501 -19.6113 783.501 10.3906 803 c 1
EndSplineSet
Validated: 33
EndChar

StartChar: numbersign
Encoding: 35 35 2
Width: 633
VWidth: 1000
Flags: HMW
LayerCount: 2
Back
SplineSet
75.4453 270 m 5
 585.445 270 l 5
 584.74 238.113 579.191 209.907 568.257 186 c 5
 58.2568 186 l 5
 58.7227 215.754 62.9336 244.232 75.4453 270 c 5
91.3633 520 m 5
 601.363 520 l 5
 600.659 488.113 595.109 459.907 584.175 436 c 5
 74.1748 436 l 5
 74.6416 465.754 78.8516 494.232 91.3633 520 c 5
426.171 727.503 m 5
 456.792 736.207 496.801 736.109 534.171 727.503 c 5
 482.331 425.503 478.531 277 462.205 -35 c 5
 427.88 -42.2578 396.176 -43.8184 355.205 -35 c 5
 404.077 247 414.948 446.503 426.171 727.503 c 5
202.983 727.503 m 5
 233.604 736.207 273.611 736.109 310.983 727.503 c 5
 259.142 425.503 255.343 277 239.017 -35 c 5
 204.691 -42.2578 172.988 -43.8184 132.017 -35 c 5
 180.889 247 191.76 446.503 202.983 727.503 c 5
EndSplineSet
Fore
SplineSet
159.727 737.503 m 1
 190.347 746.207 230.354 746.109 267.727 737.503 c 1
 254.425 660.015 244.286 592.632 236.287 530 c 1
 373.45 530 l 1
 377.044 595.527 379.967 663.704 382.914 737.503 c 1
 413.535 746.207 453.544 746.109 490.914 737.503 c 1
 477.613 660.015 467.474 592.632 459.475 530 c 1
 558.106 530 l 1
 557.402 498.113 551.854 469.907 540.918 446 c 1
 449.689 446 l 1
 443.814 390.13 439.415 336.282 435.641 280 c 1
 542.188 280 l 1
 541.483 248.113 535.935 219.907 525 196 c 1
 430.5 196 l 1
 426.774 129.968 423.307 58.3125 418.947 -25 c 1
 384.623 -32.2578 352.919 -33.8184 311.947 -25 c 1
 325.627 53.9307 336.329 126.399 344.895 196 c 1
 207.312 196 l 1
 203.586 129.968 200.119 58.3125 195.76 -25 c 1
 161.435 -32.2578 129.731 -33.8184 88.7598 -25 c 1
 102.439 53.9307 113.141 126.399 121.707 196 c 1
 15 196 l 1
 15.4658 225.754 19.6768 254.232 32.1885 280 c 1
 131.182 280 l 1
 136.888 335.613 141.39 390.287 145.151 446 c 1
 30.918 446 l 1
 31.3848 475.754 35.5947 504.232 48.1064 530 c 1
 150.262 530 l 1
 153.856 595.527 156.779 663.704 159.727 737.503 c 1
226.5 446 m 1
 220.625 390.13 216.226 336.282 212.452 280 c 1
 354.37 280 l 1
 360.076 335.613 364.579 390.287 368.339 446 c 1
 226.5 446 l 1
EndSplineSet
Validated: 33
EndChar

StartChar: dollar
Encoding: 36 36 3
Width: 651
VWidth: 1000
Flags: HMW
LayerCount: 2
Back
SplineSet
323.551 9.27579 m 1
 340.717 -78.374 l 1
 362 -66 378 -49 388.975 -25.1934 c 1
 378.431 28.8491 l 1
 447.39 58.0478 500.539 112.764 522 183 c 0
 544 255 532.719 341.501 463.68 393 c 0
 419.566 425.906 355.71 446.225 293.424 464.57 c 1
 259.589 637.997 l 1
 266.001 638.009 272.545 638 279.233 638 c 0
 318.369 638 377.233 628 408.621 611 c 1
 423.233 638 428 673 425.931 708.5 c 1
 364.132 735.147 297.853 740.476 240.936 733.607 c 1
 223.033 825.37 l 1
 205 812 186 789 175.113 767.194 c 1
 183.977 721.938 l 1
 179.793 720.69 175.716 719.375 171.755 718 c 0
 107.727 695.77 41.4541 666.5 23.0615 595 c 0
 14.5635 561.964 22.5392 490.69 91.6572 438.5 c 0
 135.769 405.192 195.483 382.97 253.999 364.408 c 1
 304.536 106.365 l 1
 296.601 104.475 288.42 102.684 280 101 c 0
 224.597 89.9191 192 85 143.602 84.1084 c 1
 120 57 112 15 104 -25 c 1
 183.664 -21.8134 256.981 -11.0111 323.551 9.27579 c 1
360.144 122.584 m 1
 316.712 345.203 l 1
 356.077 333.21 391.746 321.696 417.691 308 c 0
 454.678 288.475 489.74 242.5 476 207 c 0
 463.625 175.028 423.574 145.022 360.144 122.584 c 1
200.759 636.246 m 1
 230.737 483.18 l 1
 196.415 493.844 165.128 505.077 141.138 519 c 0
 86 551 65.4893 584.53 98 605 c 0
 130.657 625.562 163.765 633.323 200.759 636.246 c 1
EndSplineSet
Fore
SplineSet
345.687 9.08984 m 1
 279.385 -10.791 206.21 -21.377 126.588 -24.5 c 1
 134.061 14.7002 141.505 55.8604 164.748 82.4258 c 1
 213.134 83.2998 245.666 88.1211 300.923 98.9805 c 0
 309.321 100.63 317.478 102.386 325.388 104.237 c 1
 271.438 357.12 l 1
 212.679 375.311 152.671 397.088 108.119 429.73 c 0
 38.3115 480.876 29.3936 550.725 37.4551 583.1 c 0
 54.9023 653.17 120.788 681.854 184.521 703.64 c 0
 188.465 704.987 192.522 706.276 196.692 707.499 c 1
 187.229 751.85 l 1
 197.829 773.22 216.522 795.76 234.382 808.862 c 1
 253.869 717.625 l 1
 310.695 724.356 377.045 719.135 439.196 693.021 c 1
 441.734 658.23 437.43 623.931 423.175 597.471 c 1
 391.562 614.131 332.566 623.931 293.43 623.931 c 0
 286.742 623.931 280.198 623.939 273.786 623.928 c 1
 309.542 455.278 l 1
 372.069 437.301 436.194 417.388 480.743 385.14 c 0
 550.463 334.671 562.888 249.9 541.84 179.34 c 0
 521.307 110.509 468.881 56.8867 400.307 28.2725 c 1
 411.566 -24.6895 l 1
 400.906 -48.0195 385.13 -64.6797 364.011 -76.8066 c 1
 345.687 9.08984 l 1
380.781 120.133 m 1
 443.915 142.121 483.569 171.527 495.521 202.86 c 0
 508.793 237.65 473.123 282.705 435.878 301.84 c 0
 409.752 315.262 373.931 326.546 334.407 338.299 c 1
 380.781 120.133 l 1
214.605 623.521 m 1
 177.652 620.656 144.646 613.051 112.261 592.9 c 0
 80.0205 572.84 100.975 539.98 156.535 508.62 c 0
 180.71 494.976 212.146 483.967 246.608 473.517 c 1
 214.605 623.521 l 1
EndSplineSet
Validated: 33
EndChar

StartChar: percent
Encoding: 37 37 4
Width: 800
VWidth: 1000
Flags: HMW
LayerCount: 2
Back
SplineSet
491.221 323.837 m 4
 474.721 306.191 498.093 231.578 522.609 177.425 c 28
 539.702 139.672 561.615 95.1504 586.271 90.5488 c 4
 600.446 87.9023 615.021 99.6025 628.078 112.157 c 28
 642.878 126.388 653.36 143.462 653.865 158.021 c 4
 654.432 174.315 640.725 217.115 625.006 243.135 c 4
 617.562 255.454 607.548 265.682 597.883 276.21 c 4
 572.647 303.698 531.834 317.222 508.471 322.073 c 4
 499.293 323.979 492.74 325.463 491.221 323.837 c 4
491.687 425.048 m 4
 516.893 426.811 590.446 399.014 633.643 363.895 c 4
 664.741 338.61 700.758 281.071 711.664 217.482 c 28
 720.592 165.417 708.864 117.522 691.331 83.4189 c 12
 662.623 27.584 609.938 -14.7383 564.328 -17.7178 c 4
 537.32 -19.4814 523.952 -0.264648 508.693 23.4424 c 4
 491.907 49.5234 477.162 82.3164 464.648 113.407 c 4
 436.726 182.791 419.596 250.999 421.599 302.742 c 4
 423.468 350.945 450.938 422.195 491.687 425.048 c 4
80.376 615.289 m 4
 63.877 597.644 87.249 523.029 111.766 468.876 c 28
 128.858 431.124 150.771 386.602 175.428 382 c 4
 189.603 379.354 204.177 391.054 217.234 403.609 c 28
 232.034 417.839 242.517 434.913 243.023 449.473 c 4
 243.588 465.767 229.881 508.566 214.162 534.586 c 4
 206.719 546.904 196.704 557.133 187.039 567.661 c 4
 161.804 595.149 120.99 608.674 97.627 613.525 c 4
 88.4492 615.43 81.8965 616.915 80.376 615.289 c 4
80.8428 716.499 m 4
 106.048 718.263 179.602 690.466 222.799 655.347 c 4
 253.897 630.062 289.914 572.521 300.82 508.934 c 28
 309.748 456.868 298.021 408.974 280.487 374.87 c 12
 251.779 319.035 199.094 276.713 153.483 273.733 c 4
 126.477 271.971 113.108 291.187 97.8486 314.894 c 4
 81.0635 340.976 66.3184 373.769 53.8057 404.858 c 4
 25.8809 474.242 8.75195 542.45 10.7559 594.193 c 4
 12.625 642.396 40.0947 713.646 80.8428 716.499 c 4
453.638 709.355 m 5
 484.361 714.898 525.359 710.963 556.648 699.703 c 5
 411.867 421.076 360.451 282.214 244.819 -8.82031 c 5
 211.184 -12.6904 177.223 -11.0186 142.72 0.746094 c 5
 278.336 260.882 352.666 446.94 453.638 709.355 c 5
EndSplineSet
Fore
SplineSet
506.624 323.837 m 4
 490.124 306.191 513.496 231.578 538.014 177.425 c 28
 555.104 139.672 577.02 95.1504 601.676 90.5488 c 4
 615.851 87.9023 630.426 99.6025 643.48 112.157 c 28
 658.28 126.388 668.765 143.462 669.27 158.021 c 4
 669.837 174.315 656.13 217.115 640.409 243.135 c 4
 632.967 255.454 622.951 265.682 613.286 276.21 c 4
 588.052 303.697 547.236 317.222 523.874 322.072 c 4
 514.695 323.979 508.145 325.463 506.624 323.837 c 4
507.092 425.048 m 4
 532.298 426.811 605.851 399.014 649.048 363.895 c 4
 680.146 338.61 716.161 281.071 727.066 217.482 c 28
 735.995 165.417 724.269 117.522 706.733 83.4189 c 12
 678.025 27.584 625.343 -14.7383 579.73 -17.7178 c 4
 552.725 -19.4814 539.354 -0.264648 524.098 23.4424 c 4
 507.312 49.5234 492.564 82.3164 480.053 113.407 c 4
 452.131 182.791 434.999 250.999 437.004 302.742 c 4
 438.871 350.945 466.343 422.195 507.092 425.048 c 4
95.7783 615.289 m 4
 79.2793 597.644 102.651 523.029 127.171 468.876 c 28
 144.263 431.124 166.176 386.602 190.831 382 c 4
 205.008 379.354 219.58 391.054 232.639 403.609 c 28
 247.438 417.839 257.922 434.913 258.428 449.473 c 4
 258.991 465.767 245.284 508.566 229.564 534.586 c 4
 222.122 546.904 212.106 557.133 202.441 567.661 c 4
 177.207 595.149 136.395 608.674 113.029 613.525 c 4
 103.854 615.43 97.3008 616.915 95.7783 615.289 c 4
96.2451 716.499 m 4
 121.451 718.263 195.007 690.466 238.202 655.347 c 4
 269.302 630.062 305.316 572.521 316.225 508.934 c 28
 325.15 456.868 313.426 408.974 295.892 374.87 c 12
 267.184 319.035 214.497 276.713 168.888 273.733 c 4
 141.882 271.971 128.513 291.188 113.251 314.894 c 4
 96.4678 340.976 81.7207 373.769 69.208 404.858 c 4
 41.2832 474.242 24.1543 542.45 26.1582 594.193 c 4
 28.0273 642.396 55.4971 713.646 96.2451 716.499 c 4
469.041 709.355 m 5
 499.766 714.898 540.764 710.963 572.053 699.703 c 5
 427.271 421.076 375.854 282.214 260.224 -8.82031 c 5
 226.589 -12.6904 192.626 -11.0186 158.123 0.746094 c 5
 293.738 260.882 368.068 446.94 469.041 709.355 c 5
EndSplineSet
Validated: 33
EndChar

StartChar: ampersand
Encoding: 38 38 5
Width: 704
VWidth: 1000
Flags: MW
LayerCount: 2
Fore
SplineSet
276 390 m 1
 343 421 374 463 374 528 c 0
 374 594 336 637 276 637 c 0
 223 637 183 596 183 539 c 0
 183 487 215 444 276 390 c 1
311 357 m 1
 483 171 l 1
 513 214 532 252 539 289 c 1
 521 308 l 1
 466 316 l 1
 466 356 l 1
 669 356 l 1
 669 316 l 1
 597 306 l 1
 579 244 552 187 514 136 c 1
 592 46 l 1
 683 41 l 1
 683 0 l 1
 507 0 l 1
 507 24 l 1
 462 74 l 1
 396 17 332 -12 266 -12 c 0
 141 -12 53 74 53 185 c 0
 53 265 97 324 185 364 c 1
 131 417 103 463 103 517 c 0
 103 609 180 683 285 683 c 0
 391 683 457 616 457 533 c 0
 457 453 412 404 311 357 c 1
223 335 m 1
 170 299 145 260 145 206 c 0
 145 115 206 48 292 48 c 0
 343 48 388 67 431 108 c 1
 223 335 l 1
EndSplineSet
Validated: 1
EndChar

StartChar: quotesingle
Encoding: 39 39 6
Width: 218
VWidth: 1000
Flags: HMW
LayerCount: 2
Back
SplineSet
10.3906 803.499 m 1
 75.8662 685.334 91.1162 576.025 77.9336 397.604 c 1
 68.3887 384 51.3887 383 33.0986 385.201 c 1
 17.2676 502.736 -31.7588 639.324 -70 698.869 c 1
 -52.6113 744 -19.6113 784 10.3906 803.499 c 1
EndSplineSet
Fore
SplineSet
10.3906 803.499 m 1
 75.8662 685.334 91.1162 576.025 77.9336 397.604 c 1
 68.3887 384 51.3887 383 33.0986 385.201 c 1
 17.2676 502.736 -31.7588 639.324 -70 698.869 c 1
 -52.6113 744 -19.6113 784 10.3906 803.499 c 1
EndSplineSet
Validated: 33
EndChar

StartChar: parenleft
Encoding: 40 40 7
Width: 385
VWidth: 1000
Flags: HMW
LayerCount: 2
Back
SplineSet
197.937 720 m 1
 227.831 722 263.198 715 286.723 705 c 1
 231.125 621 144.628 516 150.069 374 c 0
 156.687 201.348 254 75 362 -33 c 1
 344.044 -72 331.871 -93 298 -119 c 1
 175.364 -7 95.2773 113.198 80.8389 283 c 0
 65.957 458 104.854 588 197.937 720 c 1
EndSplineSet
Fore
SplineSet
184.062 738 m 1
 213.949 740.05 249.34 732.875 272.896 722.625 c 1
 217.556 636.525 131.381 528.9 137.258 383.35 c 0
 144.404 206.382 242.105 76.875 350.438 -33.8252 c 1
 332.602 -73.7998 320.492 -95.3252 286.701 -121.975 c 1
 163.723 -7.1748 83.2666 116.028 68.3066 290.075 c 0
 52.8877 469.45 91.3857 602.7 184.062 738 c 1
EndSplineSet
Validated: 33
EndChar

StartChar: parenright
Encoding: 41 41 8
Width: 384
VWidth: 1000
Flags: HMW
LayerCount: 2
Back
SplineSet
179.107 -121 m 5
 149.318 -123 113.584 -116 89.5352 -106 c 5
 140.73 -22 230.883 98 218 240 c 4
 202.334 412.652 40.7295 564 -28.9805 624 c 5
 -13.0684 663 6.57812 695 39.0869 721 c 5
 176 600 260 491 284 326 c 4
 309.426 151.194 265.271 11 179.107 -121 c 5
EndSplineSet
Fore
SplineSet
153.374 -118.025 m 1
 123.591 -120.075 87.8359 -112.9 63.7559 -102.65 c 1
 114.693 -16.5498 204.478 106.45 191.159 252 c 0
 174.963 428.969 12.8936 584.1 -57 645.6 c 1
 -41.208 685.575 -21.6602 718.375 10.7695 745.025 c 1
 148.054 621 232.389 509.275 256.895 340.15 c 0
 282.857 160.974 239.133 17.2754 153.374 -118.025 c 1
EndSplineSet
Validated: 33
EndChar

StartChar: asterisk
Encoding: 42 42 9
Width: 546
VWidth: 980
Flags: HMW
LayerCount: 2
Back
SplineSet
394.068 498.292 m 1
 423.57 473.909 446.472 441.508 450.306 385.961 c 1
 280.612 374.173 l 1
 429.445 260.348 l 1
 413.765 226.79 385.947 203.551 346.124 190.519 c 1
 255.252 341.292 l 1
 218.629 189 l 1
 175.008 203.619 138.164 226.466 110.412 260.348 c 1
 220.511 374.264 l 1
 46.2646 385.961 l 1
 33.0186 439.377 41.8184 474.051 62.8906 498.292 c 1
 223.682 413.938 l 1
 154.637 582.037 l 1
 190.521 602.463 229.825 603.388 273.043 582.037 c 1
 263.191 415.191 l 1
 394.068 498.292 l 1
EndSplineSet
Fore
SplineSet
407.922 487.009 m 1
 439.401 460.992 463.836 426.421 467.928 367.151 c 1
 285.576 351.884 l 1
 444.534 225.972 l 1
 427.803 190.165 398.12 165.369 355.629 151.465 c 1
 254.89 312.098 l 1
 212.225 149.818 l 1
 165.682 165.416 126.369 189.794 96.7578 225.947 c 1
 212.854 351.994 l 1
 24.6855 367.151 l 1
 10.5508 424.146 19.9404 461.144 42.4238 487.009 c 1
 216.69 400 l 1
 145.573 580.981 l 1
 183.86 602.776 225.799 603.764 271.911 580.981 c 1
 264.496 401.516 l 1
 407.922 487.009 l 1
EndSplineSet
Validated: 33
EndChar

StartChar: plus
Encoding: 43 43 10
Width: 732
VWidth: 1074
Flags: HMW
LayerCount: 2
Back
SplineSet
492.595 91 m 1
 466.595 83 439.595 83 412.995 89 c 1
 376 293 l 1
 150 293 l 1
 150.467 322.754 154.678 351.232 167.189 377 c 1
 361.189 377 l 1
 326.595 579 l 1
 348.595 586 380.595 587 406.194 581 c 1
 441.189 377 l 1
 667.189 377 l 1
 666.483 345.113 660.936 316.906 650 293 c 1
 456 293 l 1
 492.595 91 l 1
EndSplineSet
Fore
SplineSet
417.595 97 m 1
 391.595 89 364.595 89 337.995 95 c 1
 301 299 l 1
 75 299 l 1
 75.4668 328.754 79.6777 357.232 92.1895 383 c 1
 286.189 383 l 1
 251.595 585 l 1
 273.595 592 305.595 593 331.194 587 c 1
 366.189 383 l 1
 592.189 383 l 1
 591.483 351.113 585.936 322.906 575 299 c 1
 381 299 l 1
 417.595 97 l 1
EndSplineSet
Validated: 33
Substitution2: "saltMiscSAlt subtable" uniFB29
EndChar

StartChar: comma
Encoding: 44 44 11
Width: 268
VWidth: 1000
Flags: HMW
LayerCount: 2
Back
SplineSet
149 153.352 m 1
 192.961 25.6123 187.206 -80.8389 149.995 -238.628 c 1
 135.125 -250.242 116.07 -258.737 98.7266 -262.534 c 1
 103.546 -144.036 78.9824 -1.00977 51.6621 64.2715 c 1
 88.7559 121.122 123.963 140.117 149 153.352 c 1
EndSplineSet
Fore
SplineSet
167.338 150.852 m 1
 211.299 23.1123 205.544 -83.3389 168.333 -241.128 c 1
 153.463 -252.742 139.408 -258.737 122.064 -262.534 c 1
 126.884 -144.036 102.32 -1.00977 75 64.2715 c 1
 112.094 121.122 142.301 137.617 167.338 150.852 c 1
EndSplineSet
Validated: 33
EndChar

StartChar: hyphen
Encoding: 45 45 12
Width: 452
VWidth: 1000
Flags: HMW
LayerCount: 2
Back
SplineSet
67.6387 262.188 m 1
 74.0791 299.893 95.0791 342.893 120.585 374 c 1
 193.357 379.679 311.904 369.308 398.387 336.646 c 1
 392.079 301.893 383.079 266.893 363.857 240.288 c 1
 197.804 269.873 179.225 275.515 67.6387 262.188 c 1
EndSplineSet
Fore
SplineSet
50 270 m 1
 56.4404 307.704 74.0791 342.893 99.585 374 c 1
 172.357 379.679 305.904 369.308 392.387 336.646 c 5
 386.079 301.893 380.44 274.704 361.219 248.1 c 5
 195.165 277.685 161.586 283.326 50 270 c 1
EndSplineSet
Validated: 33
EndChar

StartChar: period
Encoding: 46 46 13
Width: 284
VWidth: 1000
Flags: HMW
LayerCount: 2
Back
SplineSet
94 143 m 1
 131 122 156 100 181 71 c 1
 168 38 149 7 124 -18 c 1
 90 -0 60 20 34 48 c 1
 49 85 70 115 94 143 c 1
EndSplineSet
Fore
SplineSet
133 147.025 m 1
 171.85 124.975 198.1 101.875 224.35 71.4248 c 1
 210.7 36.7754 190.75 4.22461 164.5 -22.0254 c 1
 128.8 -3.125 97.2998 17.875 70 47.2754 c 1
 85.75 86.125 107.8 117.625 133 147.025 c 1
EndSplineSet
Validated: 1
EndChar

StartChar: slash
Encoding: 47 47 14
Width: 423
VWidth: 1000
Flags: HMW
LayerCount: 2
Back
SplineSet
217.145 776.337 m 5
 248.801 790.757 293.11 798.47 328.428 795.959 c 5
 225.27 471.11 195.907 315.14 126 -14 c 5
 90.9434 -27.5518 54.5293 -35.5566 15.7021 -33.4492 c 5
 112.484 269.967 157.61 480.504 217.145 776.337 c 5
218 766 m 1
 253 780 289 780 322 766 c 1
 256 534.497 186 222 121 -35 c 1
 82 -47 54 -48 18 -35 c 1
 106 254 176 546.497 218 766 c 1
EndSplineSet
Fore
SplineSet
219.298 765.5 m 1
 254.698 772.8 289.098 773.2 323.298 767 c 1
 227.098 446.8 189.098 280.8 125.495 -34.4053 c 1
 89.2979 -42 57.2979 -41 20 -33.4492 c 1
 116.782 269.967 162.298 470 219.298 765.5 c 1
EndSplineSet
Validated: 33
EndChar

StartChar: zero
Encoding: 48 48 15
Width: 579
VWidth: 1000
Flags: HMW
LayerCount: 2
Back
SplineSet
165.31 629.836 m 4
 132.113 591.185 169.119 422.434 210.358 299.528 c 28
 239.111 213.841 276.361 112.695 322.85 100.962 c 4
 349.578 94.2168 378.506 119.637 404.634 147.062 c 28
 434.25 178.148 456.616 215.767 458.352 248.501 c 4
 460.869 295.985 436.907 405.001 392.134 476.396 c 4
 353.187 538.499 287.383 598.436 197.98 624.895 c 4
 180.753 629.993 168.367 633.397 165.31 629.836 c 4
178.04 734.079 m 0
 217.256 736.613 333.866 687.431 399.733 626.277 c 0
 469.554 561.455 506.762 474.176 525.891 378.294 c 0
 543.45 290.275 524.054 208.919 497.601 151.432 c 8
 454.815 58.4482 373.305 -13.4658 302.342 -17.6914 c 0
 260.322 -20.1924 239.013 12.6182 214.648 53.0781 c 0
 187.847 97.5879 164.057 153.435 143.783 206.358 c 0
 98.542 324.465 70.1426 440.383 71.9619 528.049 c 0
 73.6572 609.716 114.646 729.982 178.04 734.079 c 0
EndSplineSet
Fore
SplineSet
133.921 617.239 m 4
 99.251 579.361 129.827 413.985 166.38 293.537 c 28
 191.868 209.564 225.264 110.441 271.306 98.9424 c 4
 297.776 92.332 327.673 117.244 354.848 144.121 c 28
 385.647 174.585 409.447 211.451 412.431 243.531 c 4
 416.757 290.065 396.949 396.901 354.897 466.868 c 4
 318.317 527.729 254.796 586.467 166.402 612.396 c 4
 149.37 617.394 137.113 620.729 133.921 617.239 c 4
150.624 719.396 m 0
 189.938 721.881 304.67 673.683 368.209 613.752 c 0
 435.559 550.226 469.44 464.692 484.916 370.729 c 0
 499.12 284.47 476.624 204.74 447.979 148.403 c 8
 401.65 57.2793 317.4 -13.1963 246.276 -17.3379 c 0
 204.16 -19.7881 184.103 12.3662 161.279 52.0166 c 0
 136.174 95.6357 114.513 150.366 96.2549 202.23 c 0
 55.5156 317.976 31.5342 431.575 36.6943 517.488 c 0
 41.502 597.521 87.0742 715.383 150.624 719.396 c 0
EndSplineSet
Validated: 33
EndChar

StartChar: one
Encoding: 49 49 16
Width: 450
VWidth: 1000
Flags: HMW
LayerCount: 2
Back
SplineSet
57.0557 647.954 m 1
 105.4 691.483 133.305 708.046 180.022 739.645 c 8
 199.672 752.937 228.585 749.115 239.417 726.518 c 0
 285.821 629.711 331.353 511.027 365.007 371.458 c 0
 392.152 258.884 406.312 166.015 411.378 71.6201 c 1
 403.031 26.9961 376.372 0.392578 345 -25 c 1
 328.869 115.568 312.677 236.078 284 344 c 0
 250.824 468.853 195.522 598.208 164.864 603.251 c 0
 142.362 606.952 74.8428 547.886 23.4463 522.541 c 1
 21.8594 568.688 30.4697 608.836 57.0557 647.954 c 1
EndSplineSet
Fore
SplineSet
18.3887 634.995 m 1
 68.3916 677.653 96.9287 693.885 144.849 724.854 c 8
 165.006 737.878 193.773 734.133 203.744 711.987 c 0
 246.46 617.117 287.468 500.807 315.803 364.029 c 0
 338.657 253.706 349.278 162.694 350.747 70.1875 c 1
 340.699 26.4561 313.026 0.384766 280.688 -24.5 c 1
 269.913 113.257 258.312 231.356 233.749 337.12 c 0
 205.331 459.476 154.96 586.244 124.494 591.186 c 0
 102.133 594.812 32.3623 536.929 -20 512.09 c 1
 -19.8281 557.314 -9.6875 596.659 18.3887 634.995 c 1
EndSplineSet
Validated: 33
EndChar

StartChar: two
Encoding: 50 50 17
Width: 511
VWidth: 1000
Flags: HMW
LayerCount: 2
Back
SplineSet
91 749 m 1
 175 742 297 719 349 625 c 8
 387.945 554.6 371.241 485.483 338 419 c 0
 321.749 386.498 300 351 282 309 c 0
 266.417 272.639 253 234 253 189.5 c 0
 253 160.93 255 138 263 117 c 1
 343.998 148.344 413.985 202.337 486 253.5 c 1
 497 204.5 489.5 162.5 475 123 c 1
 404.985 71.8994 273.729 7.16309 187 -25 c 1
 156 43 151.189 103.843 162 186 c 16
 172 262 227.444 342.459 255 433 c 0
 276 502 265 560 218 601 c 0
 169.507 643.302 82 649 -5 656 c 1
 17 700 51 730 91 749 c 1
EndSplineSet
Fore
SplineSet
69.5449 734.02 m 1
 153.278 727.16 274.4 704.62 322.819 612.5 c 8
 359.081 543.508 339.742 475.773 303.968 410.62 c 0
 286.479 378.768 263.376 343.98 243.775 302.82 c 0
 226.808 267.188 211.918 229.32 210.221 185.71 c 0
 209.134 157.711 210.259 135.24 217.459 114.66 c 1
 299.65 145.377 371.695 198.29 445.66 248.43 c 1
 454.794 200.41 445.693 159.25 429.688 120.54 c 1
 357.726 70.4609 224.002 7.01953 136.047 -24.5 c 1
 107.639 42.1396 105.146 101.767 119.088 182.28 c 16
 131.985 256.76 190.495 335.609 221.502 424.34 c 0
 245.131 491.96 236.342 548.8 190.904 588.98 c 0
 144.023 630.436 56.7334 636.02 -30 642.88 c 1
 -6.32227 686 28.8203 715.4 69.5449 734.02 c 1
EndSplineSet
Validated: 33
EndChar

StartChar: three
Encoding: 51 51 18
Width: 503
VWidth: 1000
Flags: HMW
LayerCount: 2
Back
SplineSet
53 744 m 1
 128 743 211 735 257 707 c 0
 289.527 687.201 304.942 654.142 309 624 c 0
 316 572 290 516 266 466 c 1
 337 448 386.975 426.979 421 384 c 0
 459 336 476.711 266.691 446 197 c 0
 394 79 294 28 161 -25 c 1
 162 15 176 62 196 97 c 1
 254 125 337 162 367 203 c 0
 395.263 241.626 375.178 293.134 337 322 c 16
 296 353 198 378 139 389 c 1
 167 429 209 491 214 531 c 0
 220.123 579.985 187.961 623.439 129 635 c 0
 78 645 37 646 -9 647 c 1
 5 687 25 720 53 744 c 1
EndSplineSet
Fore
SplineSet
38.6973 729.12 m 1
 113.659 728.14 196.354 720.3 241.286 692.86 c 0
 273.059 673.457 287.214 641.06 290.123 611.52 c 0
 295.142 560.56 267.008 505.68 241.103 456.68 c 1
 311.415 439.04 360.59 418.439 392.978 376.32 c 0
 429.148 329.28 444.218 261.357 410.851 193.06 c 0
 354.354 77.4199 252.409 27.4404 117.39 -24.5 c 1
 119.915 14.7002 135.705 60.7598 157.039 95.0596 c 1
 216.106 122.5 300.517 158.76 332.079 198.94 c 0
 361.812 236.794 343.691 287.271 306.614 315.56 c 16
 266.795 345.94 169.749 370.44 111.168 381.22 c 1
 140.692 420.42 185.055 481.18 191.579 520.38 c 0
 199.569 568.386 169.063 610.971 110.543 622.3 c 0
 59.9238 632.1 18.9619 633.08 -27 634.06 c 1
 -11.4756 673.26 9.78125 705.6 38.6973 729.12 c 1
EndSplineSet
Validated: 33
EndChar

StartChar: four
Encoding: 52 52 19
Width: 564
VWidth: 1000
Flags: HMW
LayerCount: 2
Back
SplineSet
227 617 m 1
 187 585 139.784 483.334 134 412 c 0
 128 338 151 305 214 312 c 0
 255.849 316.65 290 326 319 337 c 1
 289 451 263 540 227 617 c 1
278 760 m 1
 331 659 382 453 404 366 c 1
 440 379 475 394 502 405 c 1
 507 367 498 322 482 295 c 1
 459 281 448 278 425 266 c 1
 439 201 449 148 460 84 c 1
 451 39 428 7 396 -25 c 1
 381 44 357 178 343 238 c 1
 285 221 229 204 178 200 c 8
 129.901 196.228 87 216 76 270 c 8
 54.4639 375.724 71 471 95 546 c 0
 114.384 606.575 173 711 278 760 c 1
EndSplineSet
Fore
SplineSet
227.783 604.66 m 1
 186.563 573.3 135.474 473.667 126.971 403.76 c 0
 118.15 331.24 139.894 298.9 203.16 305.76 c 0
 245.186 310.317 279.694 319.48 309.113 330.26 c 1
 283.458 441.98 260.85 529.2 227.783 604.66 c 1
284.232 744.8 m 1
 333.384 645.82 376.533 443.94 395.218 358.68 c 1
 431.714 371.42 467.284 386.12 494.703 396.9 c 1
 498.256 359.66 487.541 315.56 470.511 289.1 c 1
 446.979 275.38 435.864 272.44 412.406 260.68 c 1
 423.93 196.98 431.909 145.04 440.47 82.3203 c 1
 429.755 38.2197 405.537 6.86035 372.316 -24.5 c 1
 359.946 43.1201 341.053 174.44 329.34 233.24 c 1
 270.691 216.58 214.044 199.92 162.891 196 c 8
 114.649 192.304 72.501 211.68 63.5596 264.6 c 8
 46.0527 368.21 66.2197 461.58 93.0781 535.08 c 0
 114.77 594.443 177.365 696.78 284.232 744.8 c 1
EndSplineSet
Validated: 33
EndChar

StartChar: five
Encoding: 53 53 20
Width: 473
VWidth: 1000
Flags: HMW
LayerCount: 2
Back
SplineSet
43 759 m 1
 141 728 218 709 358 682 c 1
 350 645 333 611 308 582 c 1
 256 586 186 602 115 622 c 1
 125 574 136 534 157 492 c 1
 216 484 274.921 471.698 328 458 c 0
 390 442 447.797 367.951 442 281 c 0
 441 266 406.338 149.778 399 139 c 0
 367 92 332 51 174 -25 c 1
 166 11 172 57 189 99 c 1
 255 137 328 171 376 228 c 1
 369 316 319 358 256 374 c 0
 217.376 383.81 170.945 390.339 143 393 c 0
 122 395 103.541 402.726 94 423 c 0
 78 457 59.793 513.786 42 618 c 0
 35 659 32 711 43 759 c 1
EndSplineSet
Fore
SplineSet
18.1885 743.82 m 1
 115.007 713.44 191.282 694.82 330.253 668.36 c 1
 320.844 632.1 302.548 598.78 276.443 570.36 c 1
 224.595 574.28 155.204 589.96 84.9668 609.56 c 1
 93.1377 562.52 102.613 523.32 122.013 482.16 c 1
 180.708 474.32 239.16 462.264 291.717 448.84 c 0
 353.108 433.16 408.083 360.592 398.972 275.38 c 0
 397.399 260.68 358.309 146.782 350.56 136.22 c 0
 316.769 90.1602 280.206 49.9805 119.31 -24.5 c 1
 112.683 10.7803 120.436 55.8604 139.036 97.0195 c 1
 206.483 134.26 280.779 167.58 330.952 223.44 c 1
 327.306 309.68 278.906 350.84 216.516 366.52 c 0
 178.266 376.134 132.084 382.532 104.239 385.14 c 0
 83.3154 387.1 65.1514 394.672 56.3828 414.54 c 0
 41.6787 447.86 25.6357 503.511 11.8145 605.64 c 0
 6.37695 645.82 5.3584 696.78 18.1885 743.82 c 1
EndSplineSet
Validated: 33
EndChar

StartChar: six
Encoding: 54 54 21
Width: 530
VWidth: 1000
Flags: HMW
LayerCount: 2
Back
SplineSet
236 746 m 5
 242 710 240 671 225 636 c 5
 182 600 174.26 617.544 159 596 c 4
 142 572 140.78 515.979 150 466 c 20
 169 363 210 206 269 121 c 4
 285.448 97.3047 315.114 98.7754 337 114 c 20
 383 146 417 191 435 243 c 5
 400 348 284 372 233 376 c 5
 240 417 262 449 288 470 c 5
 357 479 429.074 439.049 470 377 c 4
 501 330 507.933 272.753 490 207 c 4
 469 130 421 61 333 0 c 4
 290.507 -29.4555 243 -40 203 26 c 4
 129.101 147.934 103 244 77 364 c 12
 61.3838 436.075 64.1055 481.715 83 553 c 20
 105 636 151 729 236 746 c 5
EndSplineSet
Fore
SplineSet
225.734 731.08 m 5
 230.362 695.8 226.876 657.58 210.543 623.28 c 5
 166.171 588 159.1 605.193 143.019 584.08 c 4
 125.104 560.56 121.749 505.659 129.064 456.68 c 20
 144.139 355.74 179.155 201.88 234.917 118.58 c 4
 250.461 95.3584 280.183 96.7998 302.649 111.72 c 20
 349.866 143.08 385.583 187.18 405.564 238.14 c 5
 374.567 341.04 259.481 364.56 208.635 368.48 c 5
 217.196 408.66 240.416 440.02 267.216 460.6 c 5
 336.56 469.42 407.111 430.268 445.673 369.46 c 4
 474.881 323.4 479.632 267.298 459.193 202.86 c 4
 435.26 127.4 384.629 59.7803 294.305 0 c 4
 250.689 -28.8662 202.781 -39.2002 165.297 25.4805 c 4
 96.043 144.976 73.6025 239.12 52.1768 356.72 c 12
 39.3076 427.354 43.7686 472.081 65.3789 541.94 c 20
 90.543 623.28 140.087 714.42 225.734 731.08 c 5
EndSplineSet
Validated: 33
EndChar

StartChar: seven
Encoding: 55 55 22
Width: 537
VWidth: 1000
Flags: HMW
LayerCount: 2
Back
SplineSet
69 750 m 1
 197 721 303.941 681.693 400 639 c 0
 436 623 443.365 592.191 434 560 c 0
 418 505 356 418 311 338 c 8
 265.95 257.911 268 182 294 103 c 1
 283 47 267 12 237 -25 c 1
 207 11 187.146 73.5039 188 141 c 16
 190 299 260 361 292 444 c 0
 318.92 513.824 321 559 282 576 c 0
 181.01 620.021 50 642 -10 653.5 c 1
 9 694 31 722 69 750 c 1
EndSplineSet
Fore
SplineSet
57.6777 735 m 1
 184.572 706.58 290.015 668.06 384.447 626.22 c 0
 419.837 610.54 426.028 580.348 415.438 548.8 c 0
 397.34 494.9 332.024 409.64 283.976 331.24 c 8
 235.874 252.753 235.032 178.36 258.02 100.94 c 1
 244.886 46.0596 227.553 11.7598 196.142 -24.5 c 1
 167.515 10.7803 150.042 72.0342 153.468 138.18 c 16
 161.489 293.02 233.852 353.78 269.017 435.12 c 0
 298.597 503.548 302.398 547.82 264.046 564.48 c 0
 164.733 607.621 34.5615 629.16 -25 640.43 c 1
 -4.45703 680.12 18.6104 707.56 57.6777 735 c 1
EndSplineSet
Validated: 33
EndChar

StartChar: eight
Encoding: 56 56 23
Width: 564
VWidth: 1000
Flags: HMW
LayerCount: 2
Back
SplineSet
250 379 m 1
 197.593 316.795 209.301 224.986 273.054 133.997 c 8
 296.867 100.01 321.062 73.1016 377.273 112.519 c 0
 406.916 133.305 420.662 145.015 441.74 171.938 c 16
 482.854 224.451 449.633 296.335 408.177 319.306 c 0
 360 346 314.617 362.177 250 379 c 1
128.616 650.271 m 1
 114.933 634.979 107.517 596.647 124.712 557.675 c 0
 145.028 511.624 216 487 264 474 c 1
 303 499 322.529 534.516 304 571 c 16
 284.653 609.094 203.404 656.353 128.616 650.271 c 1
113.215 754.062 m 1
 198.438 753.456 311.022 725.959 362.351 657.927 c 8
 393.038 617.254 400.33 578.132 390.023 530.248 c 8
 382.248 494.126 367.589 467.501 343 448 c 1
 378 439 408.954 428.969 447.965 409.485 c 0
 507 380 542.517 307.704 528.354 228.11 c 8
 513.242 143.182 472 86 417 37 c 0
 379.879 3.9287 343.162 -21.9727 303.096 -20.2373 c 0
 267.035 -18.6758 241.084 7.44824 217.489 41.0537 c 16
 181.747 91.959 159.647 130.761 142.396 195.464 c 16
 123.257 267.245 138.697 357.066 180.027 402.578 c 1
 117.252 417.636 63.4102 459.952 50.0488 529.544 c 16
 33.3252 616.645 65.71 702.647 113.215 754.062 c 1
EndSplineSet
Fore
SplineSet
213.058 371.42 m 1
 158.279 310.459 166.49 220.486 226.774 131.317 c 8
 249.293 98.0098 272.462 71.6396 330.175 110.269 c 0
 360.61 130.639 374.802 142.114 396.906 168.499 c 16
 440.021 219.962 409.54 290.408 368.96 312.92 c 0
 321.8 339.08 277.034 354.934 213.058 371.42 c 1
102.011 637.266 m 1
 87.7461 622.279 78.8701 584.714 94.5791 546.521 c 0
 113.14 501.392 183.175 477.26 230.678 464.52 c 1
 270.63 489.02 291.513 523.826 274.375 559.58 c 16
 256.479 596.912 177.032 643.226 102.011 637.266 c 1
90.5664 738.98 m 1
 175.766 738.387 287.302 711.439 336.039 644.769 c 8
 365.176 604.909 370.976 566.569 358.844 519.643 c 8
 349.692 484.243 334.019 458.151 308.686 439.04 c 1
 343.344 430.22 373.917 420.39 412.184 401.295 c 0
 470.096 372.4 502.856 301.55 485.662 223.548 c 8
 467.312 140.318 423.891 84.2803 367.023 36.2598 c 0
 328.643 3.85059 290.938 -21.5332 250.938 -19.833 c 0
 214.937 -18.3027 189.981 7.29883 167.667 40.2324 c 16
 133.865 90.1201 113.244 128.146 98.46 191.555 c 16
 82.0557 261.9 100.919 349.925 143.982 394.526 c 1
 81.7832 409.283 29.5527 450.753 18.8438 518.953 c 16
 5.44043 604.312 41.1016 688.594 90.5664 738.98 c 1
EndSplineSet
Validated: 33
EndChar

StartChar: nine
Encoding: 57 57 24
Width: 575
VWidth: 1000
Flags: HMW
LayerCount: 2
Back
SplineSet
224.451 94.2207 m 1
 302.119 126.202 394.844 189.896 425.664 276.229 c 1
 427.536 366.884 414.79 435.924 366.082 521.051 c 16
 308.11 622.365 147.893 650.133 135.469 641.31 c 0
 116.464 627.812 116.803 596.166 123.771 567.707 c 16
 139.925 501.754 164.859 425.734 207.496 403.317 c 8
 248.172 381.933 292.961 427.236 318.896 433.911 c 1
 322.144 401.986 315.847 362.202 298.886 328.52 c 1
 260.64 303.056 226.795 285.988 174.951 299.068 c 0
 116.989 313.691 65.7256 401.307 48.5674 487.868 c 0
 29.166 585.745 52.9131 675.913 112.382 724.282 c 0
 171.565 772.422 349.818 717.068 421.761 624.035 c 0
 490.184 535.554 510.044 396.816 497.641 300.305 c 0
 476.213 133.577 378.104 50.5869 194 -25 c 1
 191.537 22.8584 203.691 57.6504 224.451 94.2207 c 1
EndSplineSet
Fore
SplineSet
186.233 92.3359 m 1
 265.121 123.678 360.273 186.098 394.384 270.704 c 1
 399.711 359.546 389.595 427.205 344.131 510.63 c 16
 290.021 609.918 130.862 637.131 118.102 628.483 c 0
 98.582 615.256 97.7158 584.243 103.599 556.354 c 16
 117.239 491.719 139.276 417.22 181.058 395.251 c 8
 220.921 374.294 267.436 418.691 293.626 425.232 c 1
 295.656 393.946 287.843 354.958 269.598 321.949 c 1
 230.382 296.995 195.887 280.269 144.541 293.087 c 0
 87.1367 307.417 39.2119 393.281 25.3525 478.11 c 0
 9.68164 574.03 36.8643 662.395 98.1758 709.797 c 0
 159.194 756.974 335.338 702.727 403.735 611.555 c 0
 468.787 524.843 483.359 388.88 467.278 294.299 c 0
 439.497 130.905 338.225 49.5752 151.239 -24.5 c 1
 150.601 22.4014 164.081 56.4971 186.233 92.3359 c 1
EndSplineSet
Validated: 33
EndChar

StartChar: colon
Encoding: 58 58 25
Width: 298
VWidth: 1000
Flags: HMW
LayerCount: 2
Back
SplineSet
88 509 m 5
 125.02 488.042 150.136 466.23 175.172 437.908 c 5
 161.976 404.405 143.095 373.97 118.254 348.721 c 5
 84.9375 366.439 54.9375 386.896 28.4395 414.615 c 5
 43.8838 451.784 64.376 481.285 88 509 c 5
137.828 142.503 m 1
 174.848 121.545 199.964 99.7334 225 71.4111 c 1
 211.804 37.9082 192.923 7.47266 168.082 -17.7764 c 1
 134.766 -0.0576172 104.766 20.3994 78.2676 48.1182 c 1
 93.7119 85.2871 114.204 114.788 137.828 142.503 c 1
EndSplineSet
Fore
SplineSet
82.5381 513.007 m 1
 121.409 491.001 147.781 468.099 174.068 438.36 c 1
 160.213 403.183 140.388 371.226 114.305 344.714 c 1
 79.3223 363.318 47.8223 384.798 20 413.902 c 1
 36.2158 452.93 57.7334 483.906 82.5381 513.007 c 1
137.366 146.51 m 5
 176.237 124.504 202.609 101.602 228.896 71.8633 c 5
 215.04 36.6855 195.216 4.72852 169.133 -21.7832 c 5
 134.151 -3.17871 102.651 18.3008 74.8281 47.4062 c 5
 91.0439 86.4336 112.561 117.409 137.366 146.51 c 5
EndSplineSet
Validated: 1
EndChar

StartChar: semicolon
Encoding: 59 59 26
Width: 273
VWidth: 1000
Flags: HMW
LayerCount: 2
Back
SplineSet
116.138 513.007 m 1
 155.009 491.001 181.381 468.099 207.668 438.36 c 1
 193.812 403.183 173.987 371.226 147.904 344.714 c 1
 112.923 363.318 81.4219 384.798 53.5996 413.902 c 1
 69.8154 452.93 91.333 483.906 116.138 513.007 c 1
206 153.352 m 5
 249.961 25.6123 244.206 -80.8389 206.995 -238.628 c 5
 192.125 -250.242 173.07 -258.737 155.727 -262.534 c 1
 160.546 -144.036 135.982 -1.00977 108.662 64.2715 c 1
 145.756 121.122 180.963 140.117 206 153.352 c 5
EndSplineSet
Fore
SplineSet
67.5381 513.007 m 5
 106.409 491.001 132.781 468.099 159.068 438.36 c 5
 145.212 403.183 125.388 371.226 99.3047 344.714 c 5
 64.3232 363.318 32.8223 384.798 5 413.902 c 5
 21.2158 452.93 42.7334 483.906 67.5381 513.007 c 5
172.4 150.852 m 1
 216.361 23.1123 210.606 -83.3389 173.396 -241.128 c 1
 158.525 -252.742 144.471 -258.737 127.127 -262.534 c 1
 131.946 -144.036 107.383 -1.00977 80.0625 64.2715 c 1
 117.156 121.122 147.363 137.617 172.4 150.852 c 1
EndSplineSet
Validated: 33
EndChar

StartChar: less
Encoding: 60 60 27
Width: 518
VWidth: 1000
Flags: HMW
LayerCount: 2
Back
SplineSet
-35.1465 273.053 m 21
 -36.9346 306.989 -33.7529 339.989 -22.5713 372.989 c 13
 334.406 633.989 l 17
 338.46 593.989 335.75 563.989 325.379 531.232 c 9
 47.8867 332.22 l 29
 428.275 129.989 l 17
 423.874 93.4043 412.657 67.4287 391.047 39 c 9
 -35.1465 273.053 l 21
EndSplineSet
Fore
SplineSet
20 273 m 17
 22.1162 307.129 29.085 340.617 44.0391 374.594 c 9
 398.457 636.057 l 17
 397.905 595.948 389.106 558.682 375 525 c 9
 113.662 335.755 l 25
 498.618 139.071 l 17
 490.02 101.893 475.838 75.001 451 45 c 9
 20 273 l 17
EndSplineSet
Validated: 1
EndChar

StartChar: equal
Encoding: 61 61 28
Width: 780
VWidth: 1000
Flags: HMW
LayerCount: 2
Back
SplineSet
205 276 m 1
 705 276 l 1
 698.673 244.113 688.15 215.907 673 192 c 1
 173 192 l 1
 178.713 221.754 187.945 250.232 205 276 c 1
172 462 m 1
 672 462 l 1
 665.673 430.113 655.15 401.907 640 378 c 1
 140 378 l 1
 145.713 407.754 154.945 436.232 172 462 c 1
EndSplineSet
Fore
SplineSet
145 290 m 1
 645 290 l 1
 638.673 258.113 628.15 229.907 613 206 c 1
 113 206 l 1
 118.713 235.754 127.945 264.232 145 290 c 1
112 476 m 1
 612 476 l 1
 605.673 444.113 595.15 415.907 580 392 c 1
 80 392 l 1
 85.7129 421.754 94.9453 450.232 112 476 c 1
EndSplineSet
Validated: 1
EndChar

StartChar: greater
Encoding: 62 62 29
Width: 518
VWidth: 1000
Flags: HMW
LayerCount: 2
Back
SplineSet
422.674 382.938 m 17
 424.462 349 421.28 316 410.1 283 c 9
 53.6494 19 l 17
 49.5967 59 52.3066 89 62.6787 121.757 c 9
 339.641 323.77 l 25
 -40.2188 523 l 17
 -35.8174 559.585 -24.6006 585.561 -2.99121 613.989 c 9
 422.674 382.938 l 17
EndSplineSet
Fore
SplineSet
455.218 380.799 m 17
 453.1 346.669 446.133 313.182 431.179 279.205 c 9
 74.6182 14 l 17
 75.1709 54.1084 83.6016 91.0215 97.7188 124.703 c 9
 361.618 318 l 25
 -25 511.929 l 17
 -16.4014 549.107 -2.21973 576 22.6182 606 c 9
 455.218 380.799 l 17
EndSplineSet
Validated: 1
EndChar

StartChar: question
Encoding: 63 63 30
Width: 421
VWidth: 1000
Flags: HMW
LayerCount: 2
Back
SplineSet
37.5 675 m 1
 142.5 675 287.649 670.25 321 552 c 0
 334.393 504.518 306 448.5 266.048 400.35 c 0
 229.257 356.009 234 315 270.038 279.5 c 1
 246.799 252.5 217.679 230.5 184.5 214.5 c 1
 157.5 237 142.302 262.775 142.5 310.5 c 0
 142.784 379 247.103 428.4 224.771 504 c 0
 204.259 573.448 78.8291 577.4 -14.8057 581 c 1
 0 619.5 13.5 648 37.5 675 c 1
244.5 130.608 m 1
 282.09 103.54 297.393 89.4824 322.816 57.2432 c 1
 309.417 26.541 290.244 -0.154297 265.021 -20.7061 c 1
 231.189 2.5293 210.927 16.1006 184.021 48 c 1
 199.703 81.9219 220.512 107.416 244.5 130.608 c 1
EndSplineSet
Fore
SplineSet
-2.69434 675 m 1
 102.306 675 247.455 670.25 280.806 552 c 0
 294.198 504.518 265.806 448.5 225.854 400.35 c 0
 189.062 356.009 193.806 315 229.844 279.5 c 1
 206.604 252.5 177.484 230.5 144.306 214.5 c 1
 117.306 237 102.107 262.775 102.306 310.5 c 0
 102.59 379 206.909 428.4 184.577 504 c 0
 164.064 573.448 38.6348 577.4 -55 581 c 1
 -40.1943 619.5 -26.6943 648 -2.69434 675 c 1
203.859 134.391 m 5
 243.329 105.97 259.397 91.209 286.092 57.3574 c 5
 272.022 25.1201 251.891 -2.90918 225.407 -24.4893 c 5
 189.883 -0.0917969 168.608 14.1582 140.356 47.6523 c 5
 156.823 83.2705 178.672 110.039 203.859 134.391 c 5
EndSplineSet
Validated: 33
EndChar

StartChar: at
Encoding: 64 64 31
Width: 942
VWidth: 1000
Flags: W
HStem: -153 49<475 506> 55 56<625 667> 57 61<404 448> 452 40<523 545> 468 20G<645 699> 649 43<523 557>
VStem: 76 71<227 264> 280 85<207 231> 825 46<358 396>
LayerCount: 2
Fore
SplineSet
699 488 m 1x8f80
 686 455 680 419 672 381 c 1
 633 209 l 2
 627 183 625 165 625 154 c 0
 625 128 642 111 667 111 c 0
 693 111 726 128 755 163 c 0
 799 215 825 293 825 377 c 0
 825 533 711 649 542 649 c 0
 433 649 342 615 271 549 c 0
 188 472 147 376 147 258 c 0
 147 39 290 -104 504 -104 c 0
 593 -104 683 -80 767 -31 c 1
 781 -65 l 1
 675 -124 571 -153 477 -153 c 0
 365 -153 265 -114 188 -40 c 0
 114 31 76 128 76 246 c 0
 76 379 125 490 221 578 c 0
 300 650 413 692 528 692 c 0
 740 692 871 564 871 373 c 0
 871 299 852 233 815 176 c 0
 765 99 689 55 625 55 c 0xcf80
 577 55 551 81 551 132 c 0
 551 141 l 1
 497 85 450 57 404 57 c 0
 333 57 280 119 280 217 c 0
 280 280 300 339 336 388 c 0
 385 454 458 492 529 492 c 0xb780
 561 492 593 483 627 465 c 1
 645 488 l 1
 699 488 l 1x8f80
553 450 m 1
 546 451 538 452 531 452 c 0
 439 452 365 359 365 229 c 0
 365 156 395 118 448 118 c 0xb780
 484 118 518 140 553 184 c 1
 594 394 l 1
 553 450 l 1
EndSplineSet
Validated: 1
EndChar

StartChar: A
Encoding: 65 65 32
Width: 639
VWidth: 1000
Flags: W
HStem: 0 21G<-8 188 423 650> 251 46<201 403> 659 20G<284 350>
LayerCount: 2
Fore
SplineSet
284 679 m 1
 350 679 l 1
 590 53 l 1
 650 41 l 1
 650 0 l 1
 423 0 l 1
 423 41 l 1
 485 46 l 1
 492 60 l 1
 420 251 l 1
 184 251 l 1
 113 60 l 1
 123 46 l 1
 188 41 l 1
 188 0 l 1
 -8 0 l 1
 -8 41 l 1
 50 53 l 1
 284 679 l 1
300 574 m 1
 201 297 l 1
 403 297 l 1
 300 574 l 1
EndSplineSet
Validated: 1
EndChar

StartChar: B
Encoding: 66 66 33
Width: 604
VWidth: 1000
Flags: W
HStem: 0 47<233 299> 322.164 43.8365<234 266> 627 44<233 274>
VStem: 107 90<59 317 366 611> 418 99<495 513> 460 98<175 209>
LayerCount: 2
Fore
SplineSet
33 671 m 1xf4
 288 671 l 2
 441 671 517 619 517 509 c 0xf8
 517 433 468 382 372 356 c 1
 491 355 558 294 558 196 c 0
 558 70 467 0 297 0 c 2
 33 0 l 1
 33 41 l 1
 90 46 l 1
 107 60 l 1
 107 611 l 1
 90 625 l 1
 33 631 l 1
 33 671 l 1xf4
197 367 m 1
 210 366 223 366 235 366 c 0
 360 366 418 408 418 505 c 0
 418 586 364 627 254 627 c 0
 241 627 222 625 197 624 c 1
 197 367 l 1
197 50 m 1
 221 48 243 47 264 47 c 0
 398 47 460 88 460 189 c 0xf4
 460 280 406 323 295 323 c 0
 269 323 236 321 197 317 c 1
 197 50 l 1
EndSplineSet
Validated: 1
EndChar

StartChar: C
Encoding: 67 67 34
Width: 632
VWidth: 1000
Flags: W
HStem: -12 53<384 412> 630 53<378 412>
VStem: 43 103<323 357>
LayerCount: 2
Fore
SplineSet
588 23 m 1
 522 0 453 -12 386 -12 c 0
 320 -12 262 2 216 28 c 0
 109 89 43 205 43 336 c 0
 43 544 182 683 390 683 c 0
 449 683 515 672 588 649 c 1
 588 495 l 1
 532 495 l 1
 517 586 l 1
 504 604 l 1
 467 621 431 630 392 630 c 0
 243 630 146 522 146 343 c 0
 146 153 245 41 407 41 c 0
 435 41 464 45 494 54 c 1
 510 70 l 1
 532 181 l 1
 588 181 l 1
 588 23 l 1
EndSplineSet
Validated: 1
EndChar

StartChar: D
Encoding: 68 68 35
Width: 693
VWidth: 1000
Flags: W
HStem: 0 46<197 306> 625 46<197 306>
VStem: 107 90<59 611> 548 101<319 353>
LayerCount: 2
Fore
SplineSet
280 671 m 2
 517 671 649 546 649 336 c 0
 649 217 606 124 524 62 c 0
 456 11 380 0 280 0 c 2
 33 0 l 1
 33 41 l 1
 90 46 l 1
 107 60 l 1
 107 611 l 1
 90 625 l 1
 33 631 l 1
 33 671 l 1
 280 671 l 2
197 625 m 1
 197 46 l 1
 276 46 l 2
 459 46 548 142 548 336 c 0
 548 531 459 625 276 625 c 2
 197 625 l 1
EndSplineSet
Validated: 1
EndChar

StartChar: E
Encoding: 69 69 36
Width: 576
VWidth: 1000
Flags: W
HStem: 0 46<197 465> 326 46<197 361> 625 46<197 428>
VStem: 107 90<59 326 372 611>
LayerCount: 2
Fore
SplineSet
33 0 m 1
 33 41 l 1
 90 46 l 1
 107 60 l 1
 107 611 l 1
 90 625 l 1
 33 631 l 1
 33 671 l 1
 512 671 l 1
 512 525 l 1
 456 525 l 1
 442 610 l 1
 428 625 l 1
 197 625 l 1
 197 372 l 1
 361 372 l 1
 375 386 l 1
 385 459 l 1
 432 459 l 1
 432 239 l 1
 385 239 l 1
 375 311 l 1
 361 326 l 1
 197 326 l 1
 197 46 l 1
 465 46 l 1
 479 62 l 1
 496 163 l 1
 548 163 l 1
 548 0 l 1
 33 0 l 1
EndSplineSet
Validated: 1
EndChar

StartChar: F
Encoding: 70 70 37
Width: 537
VWidth: 1000
Flags: W
HStem: 0 21G<33 285> 316 46<197 361> 625 46<197 422>
VStem: 107 90<59 316 362 611>
LayerCount: 2
Fore
SplineSet
33 0 m 1
 33 41 l 1
 90 46 l 1
 107 60 l 1
 107 611 l 1
 90 625 l 1
 25 631 l 1
 25 671 l 1
 505 671 l 1
 505 515 l 1
 450 515 l 1
 435 610 l 1
 422 625 l 1
 197 625 l 1
 197 362 l 1
 361 362 l 1
 375 376 l 1
 385 449 l 1
 432 449 l 1
 432 228 l 1
 385 228 l 1
 375 301 l 1
 361 316 l 1
 197 316 l 1
 197 60 l 1
 214 46 l 1
 285 41 l 1
 285 0 l 1
 33 0 l 1
EndSplineSet
Validated: 1
EndChar

StartChar: G
Encoding: 71 71 38
Width: 694
VWidth: 1000
Flags: W
HStem: -12 53<378 419> 630 53<378 417>
VStem: 43 103<320 357> 505 90<53 263>
LayerCount: 2
Fore
SplineSet
417 322 m 1
 667 322 l 1
 667 281 l 1
 612 276 l 1
 595 262 l 1
 595 23 l 1
 516 0 447 -12 388 -12 c 0
 321 -12 262 2 216 28 c 0
 108 89 43 205 43 336 c 0
 43 547 181 683 402 683 c 0
 463 683 528 673 594 654 c 1
 594 495 l 1
 538 495 l 1
 523 586 l 1
 509 604 l 1
 472 621 435 630 395 630 c 0
 242 630 146 523 146 343 c 0
 146 154 246 41 403 41 c 0
 432 41 466 45 505 54 c 1
 505 262 l 1
 488 276 l 1
 417 281 l 1
 417 322 l 1
EndSplineSet
Validated: 1
EndChar

StartChar: H
Encoding: 72 72 39
Width: 738
VWidth: 1000
Flags: W
HStem: 0 21G<33 276 462 705> 329 46<197 541> 651 20G<33 276 462 705>
VStem: 107 90<59 329 375 611> 541 90<59 329 375 611>
LayerCount: 2
Fore
SplineSet
33 671 m 1
 276 671 l 1
 276 631 l 1
 214 625 l 1
 197 611 l 1
 197 375 l 1
 541 375 l 1
 541 611 l 1
 524 625 l 1
 462 631 l 1
 462 671 l 1
 705 671 l 1
 705 631 l 1
 648 625 l 1
 631 611 l 1
 631 60 l 1
 648 46 l 1
 705 41 l 1
 705 0 l 1
 462 0 l 1
 462 41 l 1
 524 46 l 1
 541 60 l 1
 541 329 l 1
 197 329 l 1
 197 60 l 1
 214 46 l 1
 276 41 l 1
 276 0 l 1
 33 0 l 1
 33 41 l 1
 90 46 l 1
 107 60 l 1
 107 611 l 1
 90 625 l 1
 33 631 l 1
 33 671 l 1
EndSplineSet
Validated: 1
EndChar

StartChar: I
Encoding: 73 73 40
Width: 324
VWidth: 1000
Flags: W
HStem: 0 21G<35 288> 651 20G<35 288>
VStem: 116 91<59 611>
LayerCount: 2
Fore
SplineSet
35 0 m 1
 35 41 l 1
 99 46 l 1
 116 60 l 1
 116 611 l 1
 99 625 l 1
 35 631 l 1
 35 671 l 1
 288 671 l 1
 288 631 l 1
 224 625 l 1
 207 611 l 1
 207 60 l 1
 224 46 l 1
 288 41 l 1
 288 0 l 1
 35 0 l 1
EndSplineSet
Validated: 1
EndChar

StartChar: J
Encoding: 74 74 41
Width: 444
VWidth: 1000
Flags: W
HStem: -12 48<123 157> 651 20G<187 440>
VStem: 271 90<227 611>
LayerCount: 2
Fore
SplineSet
271 611 m 1
 254 625 l 1
 187 631 l 1
 187 671 l 1
 440 671 l 1
 440 631 l 1
 378 625 l 1
 361 611 l 1
 361 256 l 2
 361 75 296 -12 143 -12 c 0
 101 -12 58 -4 12 12 c 1
 12 179 l 1
 68 179 l 1
 92 53 l 1
 106 40 l 1
 119 37 131 36 141 36 c 0
 236 36 271 107 271 252 c 2
 271 611 l 1
EndSplineSet
Validated: 1
EndChar

StartChar: K
Encoding: 75 75 42
Width: 611
VWidth: 1000
Flags: W
HStem: 0 21G<33 276 462 627> 651 20G<33 276 395 603>
VStem: 107 90<59 299 340 611>
LayerCount: 2
Fore
SplineSet
33 0 m 1
 33 41 l 1
 90 46 l 1
 107 60 l 1
 107 611 l 1
 90 625 l 1
 33 631 l 1
 33 671 l 1
 276 671 l 1
 276 631 l 1
 214 625 l 1
 197 611 l 1
 197 340 l 1
 235 340 l 1
 457 611 l 1
 451 625 l 1
 395 631 l 1
 395 671 l 1
 603 671 l 1
 603 631 l 1
 537 622 l 1
 327 372 l 1
 554 46 l 1
 627 41 l 1
 627 0 l 1
 462 0 l 1
 462 30 l 1
 271 299 l 1
 197 299 l 1
 197 60 l 1
 214 46 l 1
 276 41 l 1
 276 0 l 1
 33 0 l 1
EndSplineSet
Validated: 1
EndChar

StartChar: L
Encoding: 76 76 43
Width: 520
VWidth: 1000
Flags: W
HStem: 0 46<197 423> 651 20G<27 271>
VStem: 107 90<59 611>
LayerCount: 2
Fore
SplineSet
27 0 m 1
 27 41 l 1
 90 46 l 1
 107 60 l 1
 107 611 l 1
 90 625 l 1
 27 631 l 1
 27 671 l 1
 271 671 l 1
 271 631 l 1
 214 625 l 1
 197 611 l 1
 197 46 l 1
 423 46 l 1
 437 62 l 1
 454 182 l 1
 506 182 l 1
 506 0 l 1
 27 0 l 1
EndSplineSet
Validated: 1
EndChar

StartChar: M
Encoding: 77 77 44
Width: 866
VWidth: 1000
Flags: W
HStem: 0 21G<31 242 391 434 595 834> 651 20G<30 242 620 834>
VStem: 109 54<67 611> 671 88<59 611>
LayerCount: 2
Fore
SplineSet
31 0 m 1
 31 41 l 1
 91 49 l 1
 109 68 l 1
 109 611 l 1
 96 625 l 1
 30 631 l 1
 30 671 l 1
 242 671 l 1
 242 644 l 1
 430 142 l 1
 620 640 l 1
 620 671 l 1
 834 671 l 1
 834 631 l 1
 771 625 l 1
 759 611 l 1
 759 60 l 1
 771 46 l 1
 834 41 l 1
 834 0 l 1
 595 0 l 1
 595 41 l 1
 661 46 l 1
 671 60 l 1
 671 624 l 1
 434 0 l 1
 391 0 l 1
 163 614 l 1
 163 68 l 1
 181 49 l 1
 242 41 l 1
 242 0 l 1
 31 0 l 1
EndSplineSet
Validated: 1
EndChar

StartChar: N
Encoding: 78 78 45
Width: 713
VWidth: 1000
Flags: W
HStem: 0 21G<29 240 543 609> 651 20G<26 214 477 687>
VStem: 108 54<67 568> 555 54<134 604>
LayerCount: 2
Fore
SplineSet
29 0 m 1
 29 41 l 1
 90 49 l 1
 108 68 l 1
 108 611 l 1
 90 625 l 1
 26 631 l 1
 26 671 l 1
 214 671 l 1
 214 646 l 1
 555 134 l 1
 555 604 l 1
 537 622 l 1
 477 631 l 1
 477 671 l 1
 687 671 l 1
 687 631 l 1
 627 622 l 1
 609 604 l 1
 609 0 l 1
 543 0 l 1
 162 568 l 1
 162 68 l 1
 180 49 l 1
 240 41 l 1
 240 0 l 1
 29 0 l 1
EndSplineSet
Validated: 1
EndChar

StartChar: O
Encoding: 79 79 46
Width: 731
VWidth: 1000
Flags: W
HStem: -16 53<346 380> 634 54<346 380>
VStem: 43 104<319 353> 584 105<319 353>
LayerCount: 2
Fore
SplineSet
366 688 m 0
 452 688 526 658 586 600 c 0
 653 535 689 445 689 336 c 0
 689 262 672 196 638 138 c 0
 582 42 482 -16 366 -16 c 0
 281 -16 204 14 146 70 c 0
 78 136 43 227 43 336 c 0
 43 445 78 535 145 600 c 0
 205 658 280 688 366 688 c 0
366 634 m 0
 236 634 147 524 147 336 c 0
 147 150 236 37 366 37 c 0
 495 37 584 150 584 336 c 0
 584 522 495 634 366 634 c 0
EndSplineSet
Validated: 1
EndChar

StartChar: P
Encoding: 80 80 47
Width: 558
VWidth: 1000
Flags: W
HStem: 0 21G<33 285> 252 48<247 287> 625 46<212 274>
VStem: 107 90<59 257 304 611> 438 93<447 481>
LayerCount: 2
Fore
SplineSet
33 0 m 1
 33 41 l 1
 90 46 l 1
 107 60 l 1
 107 611 l 1
 90 625 l 1
 25 631 l 1
 25 671 l 1
 253 671 l 2
 445 671 531 619 531 467 c 0
 531 339 433 252 272 252 c 0
 253 252 228 254 197 257 c 1
 197 60 l 1
 214 46 l 1
 285 41 l 1
 285 0 l 1
 33 0 l 1
197 305 m 1
 226 302 248 300 263 300 c 0
 377 300 438 359 438 469 c 0
 438 576 377 625 249 625 c 0
 233 625 215 625 197 623 c 1
 197 305 l 1
EndSplineSet
Validated: 1
EndChar

StartChar: Q
Encoding: 81 81 48
Width: 731
VWidth: 1000
Flags: W
HStem: -176 46.7512<508 536> 635 54<358 376>
VStem: 39 106<319 353> 587 106<319 369>
LayerCount: 2
Fore
SplineSet
414 -11 m 1
 417 -90 464 -130 556 -130 c 0
 583 -130 614 -127 650 -119 c 1
 650 -160 l 1
 597 -171 550 -176 509 -176 c 0
 382 -176 319 -123 319 -11 c 1
 147 15 39 149 39 337 c 0
 39 446 75 537 144 602 c 0
 204 659 280 689 366 689 c 0
 452 689 529 659 589 602 c 0
 657 537 693 446 693 337 c 0
 693 150 586 17 414 -11 c 1
366 39 m 0
 498 39 587 152 587 337 c 0
 587 523 498 635 366 635 c 0
 234 635 145 525 145 337 c 0
 145 152 235 39 366 39 c 0
EndSplineSet
Validated: 1
EndChar

StartChar: R
Encoding: 82 82 49
Width: 646
VWidth: 1000
Flags: W
HStem: 0 21G<33 271> 300 46<196 273> 625 46<197 273>
VStem: 107 90<59 299 345 611> 429 100<471 505>
LayerCount: 2
Fore
SplineSet
33 671 m 1
 288 671 l 2
 450 671 529 614 529 491 c 0
 529 405 475 349 367 325 c 1
 416 312 450 291 470 258 c 0
 498 212 499 157 517 110 c 0
 539 51 571 39 647 39 c 0
 656 39 l 1
 656 1 l 1
 626 -5 601 -8 578 -8 c 0
 533 -8 500 1 477 21 c 0
 429 63 425 128 404 192 c 0
 377 274 338 300 247 300 c 0
 232 300 215 299 197 298 c 1
 197 60 l 1
 214 46 l 1
 271 41 l 1
 271 0 l 1
 33 0 l 1
 33 41 l 1
 90 46 l 1
 107 60 l 1
 107 611 l 1
 90 625 l 1
 33 631 l 1
 33 671 l 1
197 625 m 1
 197 346 l 1
 228 345 246 345 252 345 c 0
 372 345 429 384 429 483 c 0
 429 587 369 625 245 625 c 2
 197 625 l 1
EndSplineSet
Validated: 1
EndChar

StartChar: S
Encoding: 83 83 50
Width: 556
VWidth: 1000
Flags: W
HStem: -12 53<235 269> 633 50<283 317>
VStem: 71 93<490 512> 407 92<161 189>
LayerCount: 2
Fore
SplineSet
60 20 m 1
 60 196 l 1
 119 196 l 1
 131 81 l 1
 144 64 l 1
 173 49 211 41 256 41 c 0
 353 41 407 91 407 161 c 0
 407 244 349 262 240 309 c 0
 129 357 71 394 71 491 c 0
 71 604 160 683 302 683 c 0
 357 683 413 674 472 655 c 1
 472 500 l 1
 420 500 l 1
 405 595 l 1
 390 612 l 1
 365 626 335 633 300 633 c 0
 215 633 164 585 164 512 c 0
 164 445 212 420 304 381 c 0
 355 360 409 344 455 299 c 0
 484 270 499 233 499 189 c 0
 499 71 400 -12 240 -12 c 0
 168 -12 106 0 60 20 c 1
EndSplineSet
Validated: 1
EndChar

StartChar: T
Encoding: 84 84 51
Width: 597
VWidth: 1000
Flags: W
HStem: 0 21G<168 429> 625 46<98 253 344 499>
VStem: 253 91<59 625>
LayerCount: 2
Fore
SplineSet
16 671 m 1
 581 671 l 1
 581 517 l 1
 526 517 l 1
 512 610 l 1
 498 625 l 1
 344 625 l 1
 344 60 l 1
 362 46 l 1
 429 41 l 1
 429 0 l 1
 168 0 l 1
 168 41 l 1
 235 46 l 1
 253 60 l 1
 253 625 l 1
 99 625 l 1
 85 610 l 1
 71 517 l 1
 16 517 l 1
 16 671 l 1
EndSplineSet
Validated: 1
EndChar

StartChar: U
Encoding: 85 85 52
Width: 694
VWidth: 1000
Flags: W
HStem: -12 62<344 378> 651 20G<25 270 468 679>
VStem: 99 91<227 611> 547 54<227 604>
LayerCount: 2
Fore
SplineSet
25 671 m 1
 270 671 l 1
 270 631 l 1
 208 625 l 1
 190 611 l 1
 190 249 l 2
 190 113 241 50 369 50 c 0
 495 50 547 113 547 249 c 2
 547 604 l 1
 528 622 l 1
 468 631 l 1
 468 671 l 1
 679 671 l 1
 679 631 l 1
 619 622 l 1
 601 604 l 1
 601 240 l 2
 601 167 596 111 557 64 c 0
 519 18 445 -12 350 -12 c 0
 255 -12 181 18 143 64 c 0
 104 111 99 166 99 240 c 2
 99 611 l 1
 82 625 l 1
 25 631 l 1
 25 671 l 1
EndSplineSet
Validated: 1
EndChar

StartChar: V
Encoding: 86 86 53
Width: 618
VWidth: 1000
Flags: W
HStem: -5 21G<276 345> 651 20G<-23 210 438 637>
LayerCount: 2
Fore
SplineSet
-23 671 m 1
 210 671 l 1
 210 631 l 1
 152 625 l 1
 141 611 l 1
 329 107 l 1
 510 611 l 1
 500 625 l 1
 438 631 l 1
 438 671 l 1
 637 671 l 1
 637 631 l 1
 575 619 l 1
 345 -5 l 1
 276 -5 l 1
 41 619 l 1
 -23 631 l 1
 -23 671 l 1
EndSplineSet
Validated: 1
EndChar

StartChar: W
Encoding: 87 87 54
Width: 928
VWidth: 1000
Flags: W
HStem: 0 21G<231 298 633 701> 651 20G<0 224 443 513 720 927>
LayerCount: 2
Fore
SplineSet
231 0 m 1
 63 617 l 1
 0 631 l 1
 0 671 l 1
 224 671 l 1
 224 631 l 1
 161 623 l 1
 153 609 l 1
 282 147 l 1
 443 671 l 1
 513 671 l 1
 677 136 l 1
 798 605 l 1
 787 619 l 1
 720 631 l 1
 720 671 l 1
 927 671 l 1
 927 631 l 1
 860 617 l 1
 701 0 l 1
 633 0 l 1
 464 547 l 1
 298 0 l 1
 231 0 l 1
EndSplineSet
Validated: 1
EndChar

StartChar: X
Encoding: 88 88 55
Width: 600
VWidth: 1000
Flags: W
HStem: 0 21G<-9 204 356 609> 651 20G<11 252 390 594>
LayerCount: 2
Fore
SplineSet
11 671 m 1
 252 671 l 1
 252 631 l 1
 192 625 l 1
 184 613 l 1
 315 407 l 1
 457 609 l 1
 448 622 l 1
 390 631 l 1
 390 671 l 1
 594 671 l 1
 594 631 l 1
 530 621 l 1
 347 360 l 1
 541 53 l 1
 609 41 l 1
 609 0 l 1
 356 0 l 1
 356 41 l 1
 423 48 l 1
 430 62 l 1
 289 289 l 1
 131 65 l 1
 137 47 l 1
 204 41 l 1
 204 0 l 1
 -9 0 l 1
 -9 41 l 1
 57 54 l 1
 258 335 l 1
 77 618 l 1
 11 631 l 1
 11 671 l 1
EndSplineSet
Validated: 1
EndChar

StartChar: Y
Encoding: 89 89 56
Width: 586
VWidth: 1000
Flags: W
HStem: 0 21G<163 422> 651 20G<-13 219 403 607>
VStem: 247 91<59 272>
LayerCount: 2
Fore
SplineSet
-13 671 m 1
 219 671 l 1
 219 631 l 1
 162 625 l 1
 152 614 l 1
 305 339 l 1
 473 606 l 1
 464 620 l 1
 403 631 l 1
 403 671 l 1
 607 671 l 1
 607 631 l 1
 546 618 l 1
 338 285 l 1
 338 60 l 1
 354 46 l 1
 422 41 l 1
 422 0 l 1
 163 0 l 1
 163 41 l 1
 231 46 l 1
 247 60 l 1
 247 272 l 1
 48 621 l 1
 -13 631 l 1
 -13 671 l 1
EndSplineSet
Validated: 1
EndChar

StartChar: Z
Encoding: 90 90 57
Width: 586
VWidth: 1000
Flags: W
HStem: 0 49<154 456> 623 48<156 424>
LayerCount: 2
Fore
SplineSet
67 671 m 1
 534 671 l 1
 534 629 l 1
 154 49 l 1
 456 49 l 1
 467 62 l 1
 485 181 l 1
 539 181 l 1
 539 0 l 1
 45 0 l 1
 45 41 l 1
 424 623 l 1
 157 623 l 1
 138 610 l 1
 122 516 l 1
 67 516 l 1
 67 671 l 1
EndSplineSet
Validated: 1
EndChar

StartChar: bracketleft
Encoding: 91 91 58
Width: 466
VWidth: 1000
Flags: HMW
LayerCount: 2
Fore
SplineSet
105.766 661 m 1
 228.489 -35 l 1
 424.489 -35 l 1
 422.484 -69 405.185 -107 388.945 -134 c 1
 168.945 -134 l 1
 30 654 l 1
 37.123 693 50.7754 729 69.3086 760 c 1
 299.309 760 l 1
 297.128 727 280.181 687 261.766 661 c 1
 105.766 661 l 1
EndSplineSet
Validated: 1
EndChar

StartChar: backslash
Encoding: 92 92 59
Width: 485
VWidth: 1000
Flags: HMW
LayerCount: 2
Back
SplineSet
364 -36 m 1
 215.963 226.956 107.986 413.244 -77.8203 671.902 c 1
 -41.5449 685.905 -4.43945 689.543 33.0898 687.489 c 1
 201.285 396.062 277.408 256.798 475.9 -20.2734 c 5
 443.088 -33.5762 398.563 -39.9326 364 -36 c 1
363.092 -34.5508 m 1
 203.544 246.449 87.3662 445.952 -110.357 727.952 c 1
 -74.041 736.77 -36.5146 735.209 1.64258 727.952 c 1
 182.656 415.952 264.842 267.449 476.092 -34.5508 c 1
 443.265 -43.1572 398.307 -43.2549 363.092 -34.5508 c 1
EndSplineSet
Fore
SplineSet
391 -36 m 1
 245 227.333 98.333 470.667 -90 727 c 1
 -50 737 -2.5 737 38 727 c 1
 201.667 435.333 311.667 247.333 511 -31.875 c 1
 471.8 -42.4004 429 -42.4004 391 -36 c 1
EndSplineSet
Validated: 33
EndChar

StartChar: bracketright
Encoding: 93 93 60
Width: 466
VWidth: 1000
Flags: HMW
LayerCount: 2
Fore
SplineSet
268.724 -35 m 1
 146 661 l 1
 -50 661 l 1
 -47.9951 695 -30.6963 733 -14.457 760 c 1
 205.543 760 l 1
 344.49 -28 l 1
 337.365 -67 323.714 -103 305.18 -134 c 1
 75.1797 -134 l 1
 77.3604 -101 94.3076 -61 112.724 -35 c 1
 268.724 -35 l 1
EndSplineSet
Validated: 1
EndChar

StartChar: asciicircum
Encoding: 94 94 61
Width: 1000
VWidth: 1000
Flags: W
HStem: 694 20G<456 543>
LayerCount: 2
Fore
SplineSet
456 714 m 1
 543 714 l 1
 797 438 l 1
 752 438 l 1
 499 651 l 1
 245 438 l 1
 201 438 l 1
 456 714 l 1
EndSplineSet
Validated: 1
EndChar

StartChar: underscore
Encoding: 95 95 62
Width: 500
VWidth: 1000
Flags: W
HStem: -236 58<0 500>
LayerCount: 2
Fore
SplineSet
0 -178 m 1
 500 -178 l 1
 500 -236 l 1
 0 -236 l 1
 0 -178 l 1
EndSplineSet
Validated: 1
EndChar

StartChar: grave
Encoding: 96 96 63
Width: 500
VWidth: 1000
Flags: W
HStem: 716 20G<104 203>
LayerCount: 2
Fore
SplineSet
104 736 m 1
 203 736 l 1
 300 546 l 1
 250 546 l 1
 104 736 l 1
EndSplineSet
Validated: 1
EndChar

StartChar: a
Encoding: 97 97 64
Width: 507
VWidth: 1000
Flags: W
HStem: -7 54<170 210> 0 36<477.4 488> 447 43.1719<240 251>
VStem: 42 88<119 138> 66 100<365.618 381> 334 83<91 268 302 362>
LayerCount: 2
Fore
SplineSet
334 58 m 5x6c
 271 15 218 -7 170 -7 c 4
 91 -7 42 46 42 121 c 4xb4
 42 225 134 255 334 303 c 5
 334 335 l 6
 334 414 314 447 242 447 c 4
 217 447 193 442 166 431 c 5
 166 347 l 5
 97 347 l 6
 74 347 66 354 66 378 c 4
 66 439 142 491 268 491 c 4
 373 491 417 448 417 347 c 6
 417 57 l 5
 435 41 l 5
 488 36 l 5
 488 0 l 5
 347 0 l 5
 334 58 l 5x6c
334 92 m 5
 334 268 l 5
 193 229 130 202 130 129 c 4
 130 80 160 47 210 47 c 4
 243 47 284 63 334 92 c 5
EndSplineSet
Validated: 1
EndChar

StartChar: b
Encoding: 98 98 65
Width: 539
VWidth: 1000
Flags: W
HStem: 0 46<169 233> 438 53<257 306> 716 20G<131 169>
VStem: 86 83<45 422 456 669> 414 90<239 265>
LayerCount: 2
Fore
SplineSet
131 736 m 1
 169 736 l 1
 169 456 l 1
 217 479 262 491 306 491 c 0
 424 491 504 399 504 263 c 0
 504 91 405 0 214 0 c 2
 86 0 l 1
 86 669 l 1
 8 669 l 1
 8 700 l 1
 131 736 l 1
169 46 m 1
 200 45 219 45 224 45 c 0
 354 45 414 106 414 244 c 0
 414 369 357 438 257 438 c 0
 232 438 202 432 169 422 c 1
 169 46 l 1
EndSplineSet
Validated: 1
EndChar

StartChar: c
Encoding: 99 99 66
Width: 446
VWidth: 1000
Flags: W
HStem: -7 59<262 298> 451 40<260 278>
VStem: 37 91<232 266> 323 101<381.58 396>
LayerCount: 2
Fore
SplineSet
425 42 m 1
 370 10 316 -7 262 -7 c 0
 126 -7 37 93 37 241 c 0
 37 390 134 491 274 491 c 0
 370 491 424 451 424 393 c 0
 424 361 402 340 368 340 c 0
 353 340 338 345 323 355 c 1
 323 437 l 1
 308 446 292 451 275 451 c 0
 189 451 128 374 128 248 c 0
 128 125 194 52 298 52 c 0
 342 52 383 66 425 94 c 1
 425 42 l 1
EndSplineSet
Validated: 1
EndChar

StartChar: d
Encoding: 100 100 67
Width: 565
VWidth: 1000
Flags: W
HStem: -9 63<229 274> 0 36<521.4 531> 448 44<275 308> 716 20G<428 466>
VStem: 36 88<223 248> 383 83<88 432 481 669>
LayerCount: 2
Fore
SplineSet
383 669 m 1xbc
 306 669 l 1
 306 700 l 1
 428 736 l 1
 466 736 l 1
 466 57 l 1
 483 41 l 1
 531 36 l 1
 531 0 l 1
 383 0 l 1x7c
 383 52 l 1
 332 11 284 -9 229 -9 c 0
 120 -9 36 85 36 225 c 0
 36 385 142 492 294 492 c 0
 322 492 352 488 383 481 c 1
 383 669 l 1xbc
383 89 m 1
 383 432 l 1
 349 442 319 448 295 448 c 0
 194 448 124 367 124 242 c 0
 124 125 184 54 274 54 c 0xbc
 310 54 346 66 383 89 c 1
EndSplineSet
Validated: 1
EndChar

StartChar: e
Encoding: 101 101 68
Width: 491
VWidth: 1000
Flags: W
HStem: -9 57<259 291> 263 42<128 358> 446 45<253 270>
VStem: 37 86<230 263> 359 88.7699<305 312>
LayerCount: 2
Fore
SplineSet
448 106 m 1
 448 51 l 1
 388 11 323 -9 260 -9 c 0
 128 -9 37 90 37 237 c 0
 37 388 134 491 268 491 c 0
 377 491 448 417 448 294 c 0
 448 284 448 274 447 263 c 1
 123 263 l 1
 123 259 123 255 123 252 c 0
 123 124 190 48 291 48 c 0
 341 48 391 68 448 106 c 1
359 305 m 1
 359 310 359 316 359 321 c 0
 359 402 322 446 255 446 c 0
 191 446 134 390 128 305 c 1
 359 305 l 1
EndSplineSet
Validated: 1
EndChar

StartChar: f
Encoding: 102 102 69
Width: 321
VWidth: 1000
Flags: W
HStem: 0 36<29 39.6 249.6 262> 421 47<184 323>
VStem: 100 83<56 421 468 497>
LayerCount: 2
Fore
SplineSet
29 0 m 1
 29 36 l 1
 82 41 l 1
 100 57 l 1
 100 421 l 5
 36 421 l 5
 36 453 l 5
 100 468 l 5
 100 472 100 476 100 479 c 4
 100 645 185 744 303 744 c 4
 349 744 381 719 381 687 c 4
 381 663 366 644 340 637 c 5
 249 697 l 5
 206 677 184 625 184 541 c 6
 184 468 l 5
 323 468 l 5
 323 421 l 5
 183 421 l 5
 183 57 l 1
 200 41 l 1
 262 36 l 1
 262 0 l 1
 29 0 l 1
EndSplineSet
Validated: 1
EndChar

StartChar: g
Encoding: 103 103 70
Width: 523
VWidth: 1000
Flags: W
HStem: -218 46<220 256> 167 39<231 258> 416 47<402 512> 452 39<231 258>
VStem: 40 80<-90 -68> 62 86<309 343> 344 86<309 343> 405 74<-66 -40>
LayerCount: 2
Fore
SplineSet
369 463 m 1xe4
 512 463 l 1
 512 416 l 1
 402 416 l 1
 421 387 430 358 430 323 c 0xe6
 430 234 355 167 239 167 c 0
 234 167 228 167 222 167 c 1
 215 153 211 138 211 122 c 0
 211 117 212 109 213 98 c 1
 309 83 l 2
 427 65 479 34 479 -40 c 0
 479 -77 458 -120 419 -152 c 0
 366 -195 297 -218 221 -218 c 0
 106 -218 40 -169 40 -89 c 0xe9
 40 -25 80 23 148 35 c 1
 142 49 138 64 138 80 c 0
 138 106 154 137 186 175 c 1
 109 192 62 251 62 326 c 0
 62 423 138 491 256 491 c 0xd4
 294 491 331 482 369 463 c 1xe4
246 452 m 0xd6
 188 452 148 406 148 329 c 0
 148 254 188 206 246 206 c 0
 304 206 344 254 344 329 c 0
 344 405 304 452 246 452 c 0xd6
206 30 m 1
 151 13 120 -24 120 -68 c 0
 120 -126 174 -172 256 -172 c 0
 345 -172 405 -122 405 -66 c 0xc9
 405 -12 373 -1 303 12 c 2
 206 30 l 1
EndSplineSet
Validated: 1
EndChar

StartChar: h
Encoding: 104 104 71
Width: 564
VWidth: 1000
Flags: W
HStem: 0 36<25 35.8 234.6 244 328 337.4 535.4 546> 425 66<291 341> 716 20G<141 179>
VStem: 96 83<56 392 431 669> 392 83<56 341>
LayerCount: 2
Fore
SplineSet
141 736 m 1
 179 736 l 1
 179 431 l 1
 246 468 298 491 341 491 c 0
 428 491 475 439 475 339 c 2
 475 57 l 1
 493 41 l 1
 546 36 l 1
 546 0 l 1
 328 0 l 1
 328 36 l 1
 375 41 l 1
 392 57 l 1
 392 322 l 2
 392 395 365 425 291 425 c 0
 259 425 222 414 179 392 c 1
 179 57 l 1
 197 41 l 1
 244 36 l 1
 244 0 l 1
 25 0 l 1
 25 36 l 1
 79 41 l 1
 96 57 l 1
 96 669 l 1
 19 669 l 1
 19 700 l 1
 141 736 l 1
EndSplineSet
Validated: 1
EndChar

StartChar: i
Encoding: 105 105 72
Width: 280
VWidth: 1000
Flags: W
HStem: 0 36<35 45.6 249.2 260> 466 20G<150 188> 593 115<146 164>
VStem: 105 83<56 419>
LayerCount: 2
Fore
SplineSet
154 708 m 0
 186 708 212 682 212 650 c 0
 212 618 186 593 154 593 c 0
 122 593 96 618 96 650 c 0
 96 683 122 708 154 708 c 0
150 486 m 1
 188 486 l 1
 188 57 l 1
 206 41 l 1
 260 36 l 1
 260 0 l 1
 35 0 l 1
 35 36 l 1
 88 41 l 1
 105 57 l 1
 105 419 l 1
 35 419 l 1
 35 450 l 1
 150 486 l 1
EndSplineSet
Validated: 1
EndChar

StartChar: j
Encoding: 106 106 73
Width: 266
VWidth: 1000
Flags: W
HStem: 466 20G<154 192> 593 115<135 156>
VStem: 109 83<21 419>
LayerCount: 2
Fore
SplineSet
109 419 m 1
 38 419 l 1
 38 450 l 1
 154 486 l 1
 192 486 l 1
 192 84 l 2
 192 -19 190 -93 135 -153 c 0
 96 -195 45 -218 -9 -218 c 0
 -53 -218 -78 -196 -78 -164 c 0
 -78 -142 -66 -123 -41 -112 c 1
 56 -171 l 1
 93 -159 109 -108 109 -16 c 2
 109 419 l 1
88 650 m 0
 88 683 114 708 146 708 c 0
 178 708 204 682 204 650 c 0
 204 618 178 593 146 593 c 0
 114 593 88 618 88 650 c 0
EndSplineSet
Validated: 1
EndChar

StartChar: k
Encoding: 107 107 74
Width: 517
VWidth: 1000
Flags: W
HStem: 0 36<25 35.8 234.6 244> 0 38<515.2 528> 444 37<299 310.25 481 489> 716 20G<141 179>
VStem: 96 83<56 227 255 669>
LayerCount: 2
Fore
SplineSet
25 0 m 1xb8
 25 36 l 1xb8
 79 41 l 1
 96 57 l 1
 96 669 l 1
 19 669 l 1
 19 700 l 1
 141 736 l 1
 179 736 l 1
 179 255 l 1
 198 255 l 1
 351 426 l 1
 344 440 l 1
 299 444 l 1
 299 481 l 1
 489 481 l 1
 489 444 l 1
 425 436 l 1
 288 291 l 1
 464 43 l 1
 528 38 l 1
 528 0 l 1
 372 0 l 1x78
 372 33 l 1
 237 227 l 1
 179 227 l 1
 179 57 l 1
 197 41 l 1
 244 36 l 1
 244 0 l 1
 25 0 l 1xb8
EndSplineSet
Validated: 1
EndChar

StartChar: l
Encoding: 108 108 75
Width: 282
VWidth: 1000
Flags: W
HStem: 0 36<28 39.8 250.6 262> 716 20G<149 187>
VStem: 104 83<56 669>
LayerCount: 2
Fore
SplineSet
28 0 m 1
 28 36 l 1
 87 41 l 1
 104 57 l 1
 104 669 l 1
 27 669 l 1
 27 700 l 1
 149 736 l 1
 187 736 l 1
 187 57 l 1
 205 41 l 1
 262 36 l 1
 262 0 l 1
 28 0 l 1
EndSplineSet
Validated: 1
EndChar

StartChar: m
Encoding: 109 109 76
Width: 843
VWidth: 1000
Flags: W
HStem: 0 36<30 40.8 239.4 249 321 330.6 524.6 534 607 616.4 814.4 825> 425 66<298 344 582 626> 466 20G<146 184>
VStem: 101 83<56 392> 386 83<56 341> 672 83<56 341>
LayerCount: 2
Fore
SplineSet
454 424 m 1xdc
 529 468 586 491 626 491 c 0
 705 491 755 438 755 339 c 2
 755 57 l 1
 772 41 l 1
 825 36 l 1
 825 0 l 1
 607 0 l 1
 607 36 l 1
 654 41 l 1
 672 57 l 1
 672 322 l 2
 672 392 644 425 582 425 c 0
 550 425 512 413 469 392 c 1
 469 57 l 1
 487 41 l 1
 534 36 l 1
 534 0 l 1
 321 0 l 1
 321 36 l 1
 369 41 l 1
 386 57 l 1
 386 322 l 2
 386 392 358 425 298 425 c 0xdc
 265 425 228 414 184 392 c 1
 184 57 l 1
 201 41 l 1
 249 36 l 1
 249 0 l 1
 30 0 l 1
 30 36 l 1
 84 41 l 1
 101 57 l 1
 101 419 l 1
 30 419 l 1
 30 450 l 1
 146 486 l 1
 184 486 l 1xbc
 184 431 l 1
 250 470 302 491 344 491 c 0
 393 491 431 468 454 424 c 1xdc
EndSplineSet
Validated: 1
EndChar

StartChar: n
Encoding: 110 110 77
Width: 568
VWidth: 1000
Flags: W
HStem: 0 36<30 40.8 239.4 249 332 341.6 540.2 551> 425 66<296 345> 466 20G<146 184>
VStem: 101 83<56 392> 397 83<56 341>
LayerCount: 2
Fore
SplineSet
30 0 m 1xd8
 30 36 l 1
 84 41 l 1
 101 57 l 1
 101 419 l 1
 30 419 l 1
 30 450 l 1
 146 486 l 1
 184 486 l 1xb8
 184 431 l 1
 251 468 302 491 345 491 c 0
 432 491 480 439 480 339 c 2
 480 57 l 1
 497 41 l 1
 551 36 l 1
 551 0 l 1
 332 0 l 1
 332 36 l 1
 380 41 l 1
 397 57 l 1
 397 322 l 2
 397 395 370 425 296 425 c 0
 264 425 227 414 184 392 c 1
 184 57 l 1
 201 41 l 1
 249 36 l 1
 249 0 l 1
 30 0 l 1xd8
EndSplineSet
Validated: 1
EndChar

StartChar: o
Encoding: 111 111 78
Width: 539
VWidth: 1000
Flags: W
HStem: -9 43<260 278> 448 43<260 278>
VStem: 37 94<230 264> 408 94<230 264>
LayerCount: 2
Fore
SplineSet
269 491 m 0
 404 491 502 389 502 241 c 0
 502 93 403 -9 269 -9 c 0
 135 -9 37 93 37 241 c 0
 37 390 134 491 269 491 c 0
269 448 m 0
 188 448 131 371 131 241 c 0
 131 112 189 34 269 34 c 0
 350 34 408 111 408 241 c 0
 408 370 350 448 269 448 c 0
EndSplineSet
Validated: 1
EndChar

StartChar: p
Encoding: 112 112 79
Width: 551
VWidth: 1000
Flags: W
HStem: -218 36<23 33.8 245.2 258> -3 45<246 280> 428 63<282 324> 466 20G<139 177>
VStem: 94 83<-162 6 57 394> 428 88<229 263>
LayerCount: 2
Fore
SplineSet
23 -218 m 1xec
 23 -182 l 1
 77 -177 l 1
 94 -161 l 1
 94 419 l 1
 23 419 l 1
 23 450 l 1
 139 486 l 1
 177 486 l 1xdc
 177 431 l 1
 230 471 277 491 324 491 c 0
 434 491 516 397 516 257 c 0
 516 99 418 -3 270 -3 c 0
 245 -3 214 0 177 6 c 1
 177 -161 l 1
 194 -177 l 1
 258 -182 l 1
 258 -218 l 1
 23 -218 l 1xec
177 58 m 1
 210 47 238 42 262 42 c 0
 360 42 428 121 428 244 c 0
 428 359 369 428 282 428 c 0xec
 248 428 215 416 177 394 c 1
 177 58 l 1
EndSplineSet
Validated: 1
EndChar

StartChar: q
Encoding: 113 113 80
Width: 531
VWidth: 1000
Flags: W
HStem: -218 36<292 307.75 512.75 526> -3 53<234 279> 449 43<290 316>
VStem: 37 90<228 247> 372 83<-162 33 64 423>
LayerCount: 2
Fore
SplineSet
459 475 m 1
 457 436 455 412 455 402 c 2
 455 -161 l 1
 473 -178 l 1
 526 -182 l 1
 526 -218 l 1
 292 -218 l 1
 292 -182 l 1
 355 -178 l 1
 372 -161 l 1
 372 33 l 1
 321 9 276 -3 234 -3 c 0
 117 -3 37 88 37 230 c 0
 37 390 144 492 316 492 c 0
 358 492 406 486 459 475 c 1
372 438 m 1
 342 445 317 449 296 449 c 0
 193 449 127 373 127 243 c 0
 127 119 185 50 279 50 c 0
 302 50 332 55 372 65 c 1
 372 438 l 1
EndSplineSet
Validated: 1
EndChar

StartChar: r
Encoding: 114 114 81
Width: 382
VWidth: 1000
Flags: W
HStem: 0 36<30 40.6 257 271> 416 75<292 316> 466 20G<146 184>
VStem: 101 83<56 343 392 418>
LayerCount: 2
Fore
SplineSet
30 0 m 1xd0
 30 36 l 1
 83 41 l 1
 101 57 l 1
 101 419 l 1
 30 419 l 1
 30 450 l 1
 146 486 l 1
 184 486 l 1xb0
 184 392 l 1
 219 428 255 460 291 489 c 1
 299 491 308 491 316 491 c 0
 336 491 355 487 376 478 c 1
 376 392 l 1
 344 392 l 1
 331 408 314 416 293 416 c 0
 260 416 225 391 184 343 c 1
 184 57 l 1
 201 41 l 1
 271 36 l 1
 271 0 l 1
 30 0 l 1xd0
EndSplineSet
Validated: 1
EndChar

StartChar: s
Encoding: 115 115 82
Width: 400
VWidth: 1000
Flags: W
HStem: -9 42<169 189> 448 43<201 229>
VStem: 50 80<351 376> 281 78<114 141>
LayerCount: 2
Fore
SplineSet
344 469 m 1
 344 356 l 1
 295 356 l 1
 287 427 l 1
 261 441 237 448 213 448 c 0
 160 448 130 421 130 376 c 0
 130 333 159 312 215 285 c 0
 250 268 288 254 321 227 c 0
 345 208 359 178 359 141 c 0
 359 48 290 -9 172 -9 c 0
 121 -9 77 -1 42 12 c 1
 42 142 l 1
 90 142 l 1
 102 57 l 1
 130 41 158 33 187 33 c 0
 245 33 281 67 281 114 c 0
 281 166 245 184 179 214 c 0
 94 252 50 284 50 351 c 0
 50 439 113 491 227 491 c 0
 271 491 310 484 344 469 c 1
EndSplineSet
Validated: 1
EndChar

StartChar: t
Encoding: 116 116 83
Width: 334
VWidth: 1000
Flags: W
HStem: 421 47<171 323>
VStem: 88 83<140 421>
LayerCount: 2
Fore
SplineSet
88 421 m 1
 25 421 l 1
 25 452 l 1
 91 481 l 1
 134 574 l 1
 171 574 l 1
 171 468 l 1
 323 468 l 1
 323 421 l 1
 171 421 l 1
 171 157 l 2
 171 81 184 48 254 48 c 0
 277 48 300 51 323 56 c 1
 323 19 l 1
 276 4 231 -3 192 -3 c 0
 109 -3 88 27 88 98 c 2
 88 421 l 1
EndSplineSet
Validated: 1
EndChar

StartChar: u
Encoding: 117 117 84
Width: 569
VWidth: 1000
Flags: W
HStem: -10 64<231 277> 0 36<531.6 541> 471 20G<142 180 438 476>
VStem: 97 83<141 423> 393 83<83 423>
LayerCount: 2
Fore
SplineSet
142 491 m 1xb8
 180 491 l 1
 180 160 l 2
 180 88 210 54 277 54 c 0xb8
 314 54 352 64 393 84 c 1
 393 423 l 1
 322 423 l 1
 322 454 l 1
 438 491 l 1
 476 491 l 1
 476 57 l 1
 494 41 l 1
 541 36 l 1
 541 0 l 1
 393 0 l 1x78
 393 56 l 1
 333 13 280 -10 231 -10 c 0
 145 -10 97 43 97 143 c 2
 97 423 l 1
 26 423 l 1
 26 454 l 1
 142 491 l 1xb8
EndSplineSet
Validated: 1
EndChar

StartChar: v
Encoding: 118 118 85
Width: 494
VWidth: 1000
Flags: W
HStem: 0 21G<217 273> 444 37<-5 5.16667 198.75 212 330 343.5 499.625 507>
LayerCount: 2
Fore
SplineSet
-5 481 m 1
 212 481 l 1
 212 444 l 1
 159 440 l 1
 147 424 l 1
 264 97 l 1
 392 424 l 1
 384 440 l 1
 330 444 l 1
 330 481 l 1
 507 481 l 1
 507 444 l 1
 448 436 l 1
 273 0 l 1
 217 0 l 1
 56 438 l 1
 -5 444 l 1
 -5 481 l 1
EndSplineSet
Validated: 1
EndChar

StartChar: w
Encoding: 119 119 86
Width: 771
VWidth: 1000
Flags: W
HStem: 0 21G<192 254 510 572> 444 37<-2 8.16667 201.75 215 594 607.5>
LayerCount: 2
Fore
SplineSet
-2 481 m 1
 215 481 l 1
 215 444 l 1
 162 440 l 1
 150 424 l 1
 241 99 l 1
 375 481 l 1
 436 481 l 1
 554 99 l 1
 656 424 l 1
 648 440 l 1
 594 444 l 1
 594 481 l 1
 771 481 l 1
 771 444 l 1
 715 436 l 1
 572 0 l 1
 510 0 l 1
 389 379 l 1
 254 0 l 1
 192 0 l 1
 59 438 l 1
 -2 444 l 1
 -2 481 l 1
EndSplineSet
Validated: 1
EndChar

StartChar: x
Encoding: 120 120 87
Width: 503
VWidth: 1000
Flags: W
HStem: 0 37<12 19.125 192.857 201 492.5 500> 444 37<225.333 233 301 309>
LayerCount: 2
Fore
SplineSet
18 481 m 1
 233 481 l 1
 233 444 l 1
 187 438 l 1
 182 428 l 1
 266 297 l 1
 357 425 l 1
 349 438 l 1
 301 444 l 1
 301 481 l 1
 481 481 l 1
 481 444 l 1
 425 434 l 1
 293 259 l 1
 440 45 l 1
 500 37 l 1
 500 0 l 1
 287 0 l 1
 287 37 l 1
 329 44 l 1
 334 52 l 1
 241 201 l 1
 139 56 l 1
 144 44 l 1
 201 37 l 1
 201 0 l 1
 12 0 l 1
 12 37 l 1
 69 45 l 1
 213 238 l 1
 79 433 l 1
 18 444 l 1
 18 481 l 1
EndSplineSet
Validated: 1
EndChar

StartChar: y
Encoding: 121 121 88
Width: 495
VWidth: 1000
Flags: W
HStem: 444 37<-1 9.16667 202.75 216 334 347.5 504.75 512>
LayerCount: 2
Fore
SplineSet
-1 481 m 1
 216 481 l 1
 216 444 l 1
 163 440 l 1
 151 424 l 1
 271 113 l 1
 396 424 l 1
 388 440 l 1
 334 444 l 1
 334 481 l 1
 512 481 l 1
 512 444 l 1
 454 436 l 1
 254 -50 l 2
 207 -163 159 -218 94 -218 c 0
 52 -218 25 -195 25 -162 c 0
 25 -142 34 -124 51 -108 c 1
 147 -146 l 1
 174 -117 203 -67 228 4 c 1
 60 438 l 1
 -1 444 l 1
 -1 481 l 1
EndSplineSet
Validated: 1
EndChar

StartChar: z
Encoding: 122 122 89
Width: 468
VWidth: 1000
Flags: W
HStem: 0 46<139 354> 435 46<126 312>
LayerCount: 2
Fore
SplineSet
45 0 m 1
 45 50 l 1
 312 435 l 1
 127 435 l 1
 113 419 l 1
 102 342 l 1
 55 342 l 1
 55 481 l 1
 416 481 l 1
 416 443 l 1
 139 46 l 1
 354 46 l 1
 369 62 l 1
 380 147 l 1
 431 147 l 1
 431 0 l 1
 45 0 l 1
EndSplineSet
Validated: 1
EndChar

StartChar: braceleft
Encoding: 123 123 90
Width: 486
VWidth: 1000
Flags: W
HStem: -134 39<361.5 418 393 418> 268 44<65 98> 666 37<384.667 418>
VStem: 211 80<25 139 438 555>
LayerCount: 2
Fore
SplineSet
418 703 m 1
 418 666 l 1
 318 663 291 634 291 546 c 2
 291 465 l 2
 291 360 260 311 160 290 c 1
 254 269 291 221 291 121 c 2
 291 38 l 2
 291 -62 305 -93 418 -95 c 1
 418 -134 l 1
 409 -134 401 -134 393 -134 c 0
 251 -134 211 -90 211 49 c 2
 211 134 l 2
 211 233 180 269 88 269 c 0
 81 269 73 268 65 268 c 1
 65 312 l 1
 74 311 83 311 91 311 c 0
 181 311 211 347 211 440 c 2
 211 542 l 2
 211 656 268 703 405 703 c 0
 409 703 414 703 418 703 c 1
EndSplineSet
Validated: 1
EndChar

StartChar: bar
Encoding: 124 124 91
Width: 500
VWidth: 1000
Flags: W
VStem: 219 62<-236 764>
LayerCount: 2
Fore
SplineSet
219 764 m 1
 281 764 l 1
 281 -236 l 1
 219 -236 l 1
 219 764 l 1
EndSplineSet
Validated: 1
EndChar

StartChar: braceright
Encoding: 125 125 92
Width: 486
VWidth: 1000
Flags: W
HStem: -134 39<64 120.5 64.1254 88> 269 42<383 417> 666 37<64 97.3333>
VStem: 191 80<25 139 438 555>
LayerCount: 2
Fore
SplineSet
64 703 m 1
 68 703 73 703 77 703 c 0
 214 703 271 656 271 542 c 2
 271 440 l 2
 271 347 301 311 391 311 c 0
 399 311 408 311 417 312 c 1
 417 268 l 1
 409 268 401 269 394 269 c 0
 302 269 271 233 271 134 c 2
 271 49 l 2
 271 -89 231 -134 88 -134 c 0
 64 -134 l 1
 64 -95 l 1
 177 -93 191 -62 191 38 c 2
 191 121 l 2
 191 221 228 269 322 290 c 1
 222 311 191 360 191 465 c 2
 191 546 l 2
 191 634 164 663 64 666 c 1
 64 703 l 1
EndSplineSet
Validated: 1
EndChar

StartChar: asciitilde
Encoding: 126 126 93
Width: 833
VWidth: 1000
Flags: W
HStem: 236 58<550 568> 303 58<262 296>
LayerCount: 2
Fore
SplineSet
747 370 m 1
 747 306 l 1
 681 259 618 236 558 236 c 0
 529 236 498 242 465 253 c 0
 396 276 337 303 275 303 c 0
 216 303 158 275 87 225 c 1
 87 290 l 1
 155 337 218 361 276 361 c 0
 328 361 373 345 418 329 c 0
 466 312 509 294 559 294 c 0
 619 294 677 321 747 370 c 1
EndSplineSet
Validated: 1
EndChar

StartChar: afii57799
Encoding: 1456 1456 94
Width: 0
VWidth: 1100
Flags: HMW
AnchorPoint: "CtxAnchors_M_D1" -74.4375 0 mark 0
AnchorPoint: "ColumnToBaseMark" -72.9395 -106.764 basemark 0
AnchorPoint: "DotToBaseMark" -86.9395 -106.764 basemark 0
AnchorPoint: "BarToBaseNarrowMark" -60.9395 -106.764 basemark 0
AnchorPoint: "BarToBaseMark" -76.9395 -106.764 basemark 0
AnchorPoint: "2DotsToBaseMark" 93.4092 -106.764 mark 0
AnchorPoint: "DiaToBase1" 0 0 mark 0
LayerCount: 2
Back
SplineSet
-51.7646 -236.176 m 1
 -38.4746 -213.837 -22.3398 -197.702 0 -184.41 c 1
 22.3398 -197.702 38.4746 -213.837 51.7646 -236.176 c 1
 38.4746 -258.515 22.3398 -274.651 0 -287.941 c 1
 -22.3398 -274.651 -38.4746 -258.515 -51.7646 -236.176 c 1
-51.7646 -106.765 m 1
 -38.4746 -84.4258 -22.3398 -68.2891 0 -55 c 1
 22.3398 -68.2891 38.4746 -84.4258 51.7646 -106.765 c 1
 38.4746 -129.103 22.3398 -145.238 0 -158.528 c 1
 -22.3398 -145.238 -38.4746 -129.103 -51.7646 -106.765 c 1
EndSplineSet
Fore
SplineSet
-10.1201 -236.176 m 1
 -0.769531 -213.837 12.5205 -197.702 32.5166 -184.41 c 1
 57.2002 -197.702 76.1797 -213.837 93.4092 -236.176 c 1
 84.0576 -258.515 70.7686 -274.651 50.7715 -287.941 c 1
 26.0889 -274.651 7.1084 -258.515 -10.1201 -236.176 c 1
-32.9395 -106.765 m 1
 -23.5879 -84.4258 -10.2988 -68.2891 9.69824 -55 c 1
 34.3809 -68.2891 53.3613 -84.4258 70.5898 -106.765 c 1
 61.2393 -129.103 47.9492 -145.238 27.9531 -158.528 c 1
 3.26953 -145.238 -15.71 -129.103 -32.9395 -106.765 c 1
EndSplineSet
Validated: 1
Comment: "+AAoA%BarToBaseMark+AD0A-44+AAoA%BarToBaseNarrowMark+AD0A-28+AAoA%ColumnToBaseMark+AD0A-40+AAoA%DotToBaseMark+AD0A-54" 
EndChar

StartChar: afii57801
Encoding: 1457 1457 95
Width: 0
VWidth: 1100
Flags: HMW
AnchorPoint: "ColumnToBaseMark" -223.233 -106.764 basemark 0
AnchorPoint: "DotToBaseMark" -237.233 -106.764 basemark 0
AnchorPoint: "BarToBaseMark" -227.233 -106.764 basemark 0
AnchorPoint: "2DotsToBaseMark" 243.703 -106.764 mark 0
AnchorPoint: "DiaToBase3" 0 0 mark 0
LayerCount: 2
Back
SplineSet
-135.882 -236.176 m 1
 -122.592 -213.837 -106.456 -197.702 -84.1182 -184.41 c 1
 -61.7793 -197.702 -45.6426 -213.837 -32.3525 -236.176 c 1
 -45.6426 -258.515 -61.7793 -274.651 -84.1182 -287.941 c 1
 -106.456 -274.651 -122.592 -258.515 -135.882 -236.176 c 1
103.53 -236.176 m 1
 116.819 -213.837 132.956 -197.702 155.295 -184.41 c 1
 177.633 -197.702 193.769 -213.837 207.059 -236.176 c 1
 193.769 -258.515 177.633 -274.651 155.295 -287.941 c 1
 132.956 -274.651 116.819 -258.515 103.53 -236.176 c 1
103.53 -106.765 m 1
 116.819 -84.4258 132.956 -68.2891 155.295 -55 c 1
 177.633 -68.2891 193.769 -84.4258 207.059 -106.765 c 1
 193.769 -129.103 177.633 -145.238 155.295 -158.528 c 1
 132.956 -145.238 116.819 -129.103 103.53 -106.765 c 1
-64.7051 -106.765 m 1
 -51.415 -84.4258 -35.2793 -68.2891 -12.9414 -55 c 1
 9.39746 -68.2891 25.5342 -84.4258 38.8232 -106.765 c 1
 25.5342 -129.103 9.39746 -145.238 -12.9414 -158.528 c 1
 -35.2793 -145.238 -51.415 -129.103 -64.7051 -106.765 c 1
-207.059 -106.765 m 1
 -193.769 -84.4258 -177.633 -68.2891 -155.295 -55 c 1
 -132.955 -68.2891 -116.819 -84.4258 -103.529 -106.765 c 1
 -116.819 -129.103 -132.955 -145.238 -155.295 -158.528 c 1
 -177.633 -145.238 -193.769 -129.103 -207.059 -106.765 c 1
EndSplineSet
Fore
SplineSet
-89.2383 -236.176 m 1
 -79.8867 -213.837 -66.5957 -197.702 -46.6016 -184.41 c 1
 -21.9189 -197.702 -2.9375 -213.837 14.292 -236.176 c 1
 4.94043 -258.515 -8.35059 -274.651 -28.3467 -287.941 c 1
 -53.0273 -274.651 -72.0088 -258.515 -89.2383 -236.176 c 1
140.174 -236.176 m 5
 149.524 -213.837 162.816 -197.702 182.812 -184.41 c 5
 207.493 -197.702 226.475 -213.837 243.703 -236.176 c 5
 234.353 -258.515 221.062 -274.651 201.066 -287.941 c 5
 176.385 -274.651 157.402 -258.515 140.174 -236.176 c 5
117.355 -106.765 m 5
 126.705 -84.4258 139.997 -68.2891 159.993 -55 c 5
 184.674 -68.2891 203.655 -84.4258 220.885 -106.765 c 5
 211.533 -129.103 198.242 -145.238 178.248 -158.528 c 5
 153.565 -145.238 134.583 -129.103 117.355 -106.765 c 5
-40.8799 -106.765 m 1
 -31.5283 -84.4258 -18.2383 -68.2891 1.75684 -55 c 1
 26.4385 -68.2891 45.4209 -84.4258 62.6484 -106.765 c 1
 53.2988 -129.103 40.0068 -145.238 20.0117 -158.528 c 1
 -4.66992 -145.238 -23.6504 -129.103 -40.8799 -106.765 c 1
-183.233 -106.765 m 1
 -173.883 -84.4258 -160.592 -68.2891 -140.597 -55 c 1
 -115.914 -68.2891 -96.9326 -84.4258 -79.7031 -106.765 c 1
 -89.0547 -129.103 -102.346 -145.238 -122.342 -158.528 c 1
 -147.023 -145.238 -166.005 -129.103 -183.233 -106.765 c 1
EndSplineSet
Validated: 1
Substitution2: "WideMarkToNarrow subtable" hatafsegol.narrow
EndChar

StartChar: afii57800
Encoding: 1458 1458 96
Width: 0
VWidth: 1100
Flags: HMW
AnchorPoint: "ColumnToBaseMark" -221.669 -106.764 basemark 0
AnchorPoint: "DotToBaseMark" -235.669 -106.764 basemark 0
AnchorPoint: "2DotsToBaseMark" 251.05 -106.764 mark 0
AnchorPoint: "DiaToBase3" 0 0 mark 0
LayerCount: 2
Back
SplineSet
-178.703 -69.04 m 1
 68.1191 -69.04 l 1
 69.5244 -95.167 66.127 -116.806 57.0361 -139.628 c 1
 -189.786 -139.628 l 17
 -191.191 -113.501 -187.794 -91.8623 -178.703 -69.04 c 1
152.523 -236.176 m 1
 161.873 -213.837 175.164 -197.702 195.158 -184.41 c 1
 219.84 -197.702 238.822 -213.837 256.05 -236.176 c 1
 246.7 -258.515 233.408 -274.651 213.414 -287.941 c 1
 188.732 -274.651 169.751 -258.515 152.523 -236.176 c 1
129.704 -106.765 m 1
 139.055 -84.4258 152.346 -68.2891 172.34 -55 c 1
 197.021 -68.2891 216.004 -84.4258 233.231 -106.765 c 1
 223.881 -129.103 210.59 -145.238 190.595 -158.528 c 1
 165.913 -145.238 146.933 -129.103 129.704 -106.765 c 1
EndSplineSet
Fore
SplineSet
-168.14 -68.9111 m 1
 80.3604 -68.9111 l 1
 77.1592 -95.0381 69.9463 -116.677 56.8311 -139.499 c 1
 -191.669 -139.499 l 17
 -188.468 -113.372 -181.255 -91.7334 -168.14 -68.9111 c 1
147.523 -236.176 m 5
 156.873 -213.837 170.164 -197.702 190.158 -184.41 c 5
 214.84 -197.702 233.822 -213.837 251.05 -236.176 c 5
 241.7 -258.515 228.408 -274.651 208.414 -287.941 c 5
 183.732 -274.651 164.751 -258.515 147.523 -236.176 c 5
124.704 -106.765 m 5
 134.055 -84.4258 147.346 -68.2891 167.34 -55 c 5
 192.021 -68.2891 211.004 -84.4258 228.231 -106.765 c 5
 218.881 -129.103 205.59 -145.238 185.595 -158.528 c 5
 160.913 -145.238 141.933 -129.103 124.704 -106.765 c 5
EndSplineSet
Validated: 1
Substitution2: "WideMarkToNarrow subtable" hatafpatah.narrow
EndChar

StartChar: afii57802
Encoding: 1459 1459 97
Width: 0
VWidth: 1100
Flags: HMW
AnchorPoint: "ColumnToBaseMark" -226 -106.764 basemark 0
AnchorPoint: "DotToBaseMark" -240 -106.764 basemark 0
AnchorPoint: "2DotsToBaseMark" 256.645 -106.764 mark 0
AnchorPoint: "DiaToBase3" 0 0 mark 0
LayerCount: 2
Back
SplineSet
57.5 -139.5 m 1
 -17.6074 -139.5 l 1
 0.730469 -243.5 l 1
 -11.1953 -245.562 -21.585 -246.44 -34.0459 -246.44 c 1
 -46.5049 -246.44 -57.207 -245.562 -69.8574 -243.5 c 1
 -88.1953 -139.5 l 1
 -201 -139.5 l 17
 -197.799 -113.373 -190.586 -91.7344 -177.471 -68.9121 c 1
 81.0293 -68.9121 l 1
 77.8281 -95.0391 70.6152 -116.678 57.5 -139.5 c 1
158.116 -236.176 m 1
 167.466 -213.837 180.757 -197.702 200.751 -184.41 c 1
 225.435 -197.702 244.415 -213.837 261.645 -236.176 c 1
 252.293 -258.515 239.002 -274.651 219.007 -287.941 c 1
 194.325 -274.651 175.344 -258.515 158.116 -236.176 c 1
135.298 -106.765 m 1
 144.647 -84.4258 157.938 -68.2891 177.933 -55 c 1
 202.615 -68.2891 221.597 -84.4258 238.825 -106.765 c 1
 229.475 -129.103 216.184 -145.238 196.188 -158.528 c 1
 171.507 -145.238 152.525 -129.103 135.298 -106.765 c 1
EndSplineSet
Fore
SplineSet
62.5 -139.5 m 1
 -22.6074 -139.5 l 1
 -4.26953 -243.5 l 1
 -16.1953 -245.562 -26.585 -246.44 -39.0459 -246.44 c 1
 -51.5049 -246.44 -62.207 -245.562 -74.8574 -243.5 c 1
 -93.1953 -139.5 l 1
 -196 -139.5 l 17
 -192.799 -113.373 -185.586 -91.7344 -172.471 -68.9121 c 1
 86.0293 -68.9121 l 1
 82.8281 -95.0391 75.6152 -116.678 62.5 -139.5 c 1
153.116 -236.176 m 5
 162.466 -213.837 175.757 -197.702 195.751 -184.41 c 5
 220.435 -197.702 239.415 -213.837 256.645 -236.176 c 5
 247.293 -258.515 234.002 -274.651 214.007 -287.941 c 5
 189.325 -274.651 170.344 -258.515 153.116 -236.176 c 5
130.298 -106.765 m 5
 139.647 -84.4258 152.938 -68.2891 172.933 -55 c 5
 197.615 -68.2891 216.597 -84.4258 233.825 -106.765 c 5
 224.475 -129.103 211.184 -145.238 191.188 -158.528 c 5
 166.507 -145.238 147.525 -129.103 130.298 -106.765 c 5
EndSplineSet
Validated: 1
Substitution2: "WideMarkToNarrow subtable" hatafqamats.narrow
EndChar

StartChar: afii57793
Encoding: 1460 1460 98
Width: 0
VWidth: 1100
Flags: HMW
AnchorPoint: "CtxAnchors_M_D1" -74.4375 0 mark 0
AnchorPoint: "CtxAnchors_Yerushalam" 0 0 mark 0
AnchorPoint: "ColumnToBaseMark" -72.9395 -106.764 basemark 0
AnchorPoint: "DotToBaseMark" -86.9395 -106.764 basemark 0
AnchorPoint: "BarToBaseMark" -76.9395 -106.764 basemark 0
AnchorPoint: "DotToBaseMark" 70.5898 -106.764 mark 0
AnchorPoint: "DiaToBase1" 0 0 mark 0
LayerCount: 2
Back
SplineSet
-51.7646 -106.765 m 1
 -38.4746 -84.4258 -22.3398 -68.2891 0 -55 c 1
 22.3398 -68.2891 38.4746 -84.4258 51.7646 -106.765 c 1
 38.4746 -129.103 22.3398 -145.238 0 -158.528 c 1
 -22.3398 -145.238 -38.4746 -129.103 -51.7646 -106.765 c 1
EndSplineSet
Fore
SplineSet
-32.9395 -106.765 m 1
 -23.5879 -84.4258 -10.2988 -68.2891 9.69824 -55 c 1
 34.3809 -68.2891 53.3613 -84.4258 70.5898 -106.765 c 1
 61.2393 -129.103 47.9492 -145.238 27.9531 -158.528 c 1
 3.26953 -145.238 -15.71 -129.103 -32.9395 -106.765 c 1
EndSplineSet
Validated: 1
Comment: "+AAoA%BarToBaseMark+AD0A-44+AAoA%ColumnToBaseMark+AD0A-40+AAoA%DotToBaseMark+AD0A-54" 
EndChar

StartChar: afii57794
Encoding: 1461 1461 99
Width: 0
VWidth: 1100
Flags: HMW
AnchorPoint: "CtxAnchors_M_D2" -74.4375 0 mark 0
AnchorPoint: "ColumnToBaseMark" -150.584 -106.764 basemark 0
AnchorPoint: "DotToBaseMark" -164.584 -106.764 basemark 0
AnchorPoint: "BarToBaseMark" -154.584 -106.764 basemark 0
AnchorPoint: "DotToBaseMark" 148.235 -106.764 mark 0
AnchorPoint: "DiaToBase2" 0 0 mark 0
LayerCount: 2
Back
SplineSet
25.8818 -106.765 m 1
 39.1729 -84.4258 55.3096 -68.2891 77.6465 -55 c 1
 99.9863 -68.2891 116.123 -84.4258 129.41 -106.765 c 1
 116.123 -129.103 99.9863 -145.238 77.6465 -158.528 c 1
 55.3096 -145.238 39.1729 -129.103 25.8818 -106.765 c 1
-129.41 -106.765 m 1
 -116.12 -84.4258 -99.9863 -68.2891 -77.6465 -55 c 1
 -55.3076 -68.2891 -39.1729 -84.4258 -25.8818 -106.765 c 1
 -39.1729 -129.103 -55.3076 -145.238 -77.6465 -158.528 c 1
 -99.9863 -145.238 -116.12 -129.103 -129.41 -106.765 c 1
EndSplineSet
Fore
SplineSet
44.707 -106.765 m 1
 54.0596 -84.4258 67.3506 -68.2891 87.3447 -55 c 1
 112.027 -68.2891 131.01 -84.4258 148.235 -106.765 c 1
 138.888 -129.103 125.596 -145.238 105.6 -158.528 c 1
 80.9189 -145.238 61.9375 -129.103 44.707 -106.765 c 1
-110.584 -106.765 m 1
 -101.233 -84.4258 -87.9453 -68.2891 -67.9482 -55 c 1
 -43.2666 -68.2891 -24.2861 -84.4258 -7.05664 -106.765 c 1
 -16.4082 -129.103 -29.6982 -145.238 -49.6934 -158.528 c 1
 -74.377 -145.238 -93.3555 -129.103 -110.584 -106.765 c 1
EndSplineSet
Validated: 1
Substitution2: "WideMarkToNarrow subtable" tsere.narrow
EndChar

StartChar: afii57795
Encoding: 1462 1462 100
Width: 0
VWidth: 1100
Flags: HMW
AnchorPoint: "CtxAnchors_M_D2" -74.4375 0 mark 0
AnchorPoint: "ColumnToBaseMark" -150.584 -106.764 basemark 0
AnchorPoint: "DotToBaseMark" -164.584 -106.764 basemark 0
AnchorPoint: "BarToBaseMark" -154.584 -106.764 basemark 0
AnchorPoint: "DotToBaseMark" 148.235 -106.764 mark 0
AnchorPoint: "DiaToBase2" 0 0 mark 0
LayerCount: 2
Back
SplineSet
-51.7646 -223.234 m 1
 -38.4746 -200.896 -22.3369 -184.761 0 -171.471 c 1
 22.3398 -184.761 38.4746 -200.896 51.7646 -223.234 c 1
 38.4746 -245.573 22.3398 -261.71 0 -275 c 1
 -22.3369 -261.71 -38.4746 -245.573 -51.7646 -223.234 c 1
25.8818 -106.765 m 1
 39.1729 -84.4258 55.3096 -68.2891 77.6465 -55 c 1
 99.9863 -68.2891 116.123 -84.4258 129.41 -106.765 c 1
 116.123 -129.103 99.9863 -145.238 77.6465 -158.528 c 1
 55.3096 -145.238 39.1729 -129.103 25.8818 -106.765 c 1
-129.41 -106.765 m 1
 -116.12 -84.4258 -99.9863 -68.2891 -77.6465 -55 c 1
 -55.3076 -68.2891 -39.1729 -84.4258 -25.8818 -106.765 c 1
 -39.1729 -129.103 -55.3076 -145.238 -77.6465 -158.528 c 1
 -99.9863 -145.238 -116.12 -129.103 -129.41 -106.765 c 1
EndSplineSet
Fore
SplineSet
-12.4023 -223.234 m 1
 -3.05078 -200.896 10.2412 -184.761 30.2354 -171.471 c 1
 54.918 -184.761 73.8984 -200.896 91.127 -223.234 c 1
 81.7754 -245.573 68.4863 -261.71 48.4902 -275 c 1
 23.8096 -261.71 4.82617 -245.573 -12.4023 -223.234 c 1
44.707 -106.765 m 1
 54.0596 -84.4258 67.3506 -68.2891 87.3447 -55 c 1
 112.027 -68.2891 131.01 -84.4258 148.235 -106.765 c 1
 138.888 -129.103 125.596 -145.238 105.6 -158.528 c 1
 80.9189 -145.238 61.9375 -129.103 44.707 -106.765 c 1
-110.584 -106.765 m 1
 -101.233 -84.4258 -87.9453 -68.2891 -67.9482 -55 c 1
 -43.2666 -68.2891 -24.2861 -84.4258 -7.05664 -106.765 c 1
 -16.4082 -129.103 -29.6982 -145.238 -49.6934 -158.528 c 1
 -74.377 -145.238 -93.3555 -129.103 -110.584 -106.765 c 1
EndSplineSet
Validated: 1
Substitution2: "WideMarkToNarrow subtable" segol.narrow
EndChar

StartChar: afii57798
Encoding: 1463 1463 101
Width: 0
VWidth: 1100
Flags: HMW
AnchorPoint: "CtxAnchors_M_D2" -69.4375 0 mark 0
AnchorPoint: "ColumnToBaseMark" -148.5 -106.764 basemark 0
AnchorPoint: "DotToBaseMark" -162.5 -106.764 basemark 0
AnchorPoint: "BarToBaseMark" 153.529 -106.764 mark 0
AnchorPoint: "DiaToBase2" 0 0 mark 0
LayerCount: 2
Back
SplineSet
-101.32 -68.9121 m 1
 147.18 -68.9121 l 1
 148.586 -95.0391 145.188 -116.678 136.098 -139.5 c 1
 -112.402 -139.5 l 17
 -113.809 -113.373 -110.411 -91.7344 -101.32 -68.9121 c 1
EndSplineSet
Fore
SplineSet
-94.9707 -68.9121 m 5
 153.529 -68.9121 l 5
 150.328 -95.0391 143.115 -116.678 130 -139.5 c 5
 -118.5 -139.5 l 21
 -115.299 -113.373 -108.086 -91.7344 -94.9707 -68.9121 c 5
EndSplineSet
Validated: 1
Substitution2: "WideMarkToNarrow subtable" patah.narrow
Comment: "+AAoA%ColumnToBaseMark+AD0A-30+AAoA%DotToBaseMark+AD0A-44" 
EndChar

StartChar: afii57797
Encoding: 1464 1464 102
Width: 0
VWidth: 1100
Flags: HMW
AnchorPoint: "CtxAnchors_M_D2" -69.4375 0 mark 0
AnchorPoint: "ColumnToBaseMark" -153.5 -106.764 basemark 0
AnchorPoint: "DotToBaseMark" -167.5 -106.764 basemark 0
AnchorPoint: "BarToBaseMark" 158.529 -106.764 mark 0
AnchorPoint: "DiaToBase2" 0 0 mark 0
LayerCount: 2
Back
SplineSet
135 -139.5 m 1
 59.8926 -139.5 l 5
 78.2305 -243.5 l 5
 66.3047 -245.562 55.915 -246.44 43.4541 -246.44 c 5
 30.9951 -246.44 20.293 -245.562 7.64258 -243.5 c 5
 -10.6953 -139.5 l 5
 -123.5 -139.5 l 17
 -120.299 -113.373 -113.086 -91.7344 -99.9707 -68.9121 c 1
 158.529 -68.9121 l 1
 155.328 -95.0391 148.115 -116.678 135 -139.5 c 1
EndSplineSet
Fore
SplineSet
135 -139.5 m 1
 54.8926 -139.5 l 1
 73.2305 -243.5 l 1
 61.3047 -245.562 50.915 -246.44 38.4541 -246.44 c 1
 25.9951 -246.44 15.293 -245.562 2.64258 -243.5 c 1
 -15.6953 -139.5 l 1
 -123.5 -139.5 l 17
 -120.299 -113.373 -113.086 -91.7344 -99.9707 -68.9121 c 1
 158.529 -68.9121 l 1
 155.328 -95.0391 148.115 -116.678 135 -139.5 c 1
EndSplineSet
Validated: 1
Substitution2: "WideMarkToNarrow subtable" qamats.narrow
EndChar

StartChar: afii57806
Encoding: 1465 1465 103
Width: 0
VWidth: 1040
Flags: HMW
AnchorPoint: "DiaToBaseO" 0 0 mark 0
LayerCount: 2
Back
SplineSet
-177.065 710.615 m 1
 -167.714 732.954 -154.425 749.091 -134.428 762.379 c 1
 -109.745 749.091 -90.7646 732.954 -73.5361 710.615 c 1
 -82.8867 688.277 -96.1768 672.141 -116.173 658.85 c 1
 -140.856 672.141 -159.836 688.277 -177.065 710.615 c 1
EndSplineSet
Fore
SplineSet
-173.539 690.615 m 1
 -164.188 712.954 -150.898 729.091 -130.901 742.379 c 1
 -106.219 729.091 -87.2383 712.954 -70.0098 690.615 c 1
 -79.3604 668.277 -92.6504 652.141 -112.646 638.85 c 1
 -137.33 652.141 -156.31 668.277 -173.539 690.615 c 1
EndSplineSet
Validated: 1
EndChar

StartChar: afii57796
Encoding: 1467 1467 104
Width: 0
VWidth: 1100
Flags: HMW
AnchorPoint: "CtxAnchors_M_D3Narrow" -57.9375 0 mark 0
AnchorPoint: "ColumnToBaseMark" -156.409 -106.764 basemark 0
AnchorPoint: "DotToBaseNarrowMark" -177.409 -106.764 basemark 0
AnchorPoint: "BarToBaseNarrowMark" -177.409 -106.764 basemark 0
AnchorPoint: "2DotsToBaseNarrowMark" 209.879 -106.764 mark 0
AnchorPoint: "DiaToBaseU" 0 0 mark 0
LayerCount: 2
Back
SplineSet
64.7051 -236.176 m 5
 77.9961 -213.837 94.1318 -197.702 116.472 -184.41 c 5
 138.809 -197.702 154.945 -213.837 168.235 -236.176 c 5
 154.945 -258.515 138.809 -274.651 116.472 -287.941 c 5
 94.1318 -274.651 77.9961 -258.515 64.7051 -236.176 c 5
-51.7646 -171.471 m 5
 -38.4746 -149.132 -22.3379 -132.995 0 -119.705 c 5
 22.3379 -132.995 38.4746 -149.132 51.7646 -171.471 c 5
 38.4746 -193.808 22.3379 -209.945 0 -223.234 c 5
 -22.3379 -209.945 -38.4746 -193.808 -51.7646 -171.471 c 5
-168.235 -106.765 m 5
 -154.945 -84.4258 -138.809 -68.2891 -116.472 -55 c 5
 -94.1318 -68.2891 -77.9961 -84.4258 -64.7051 -106.765 c 5
 -77.9961 -129.103 -94.1318 -145.238 -116.472 -158.528 c 5
 -138.809 -145.238 -154.945 -129.103 -168.235 -106.765 c 5
EndSplineSet
Fore
SplineSet
106.35 -236.176 m 5
 115.701 -213.837 128.992 -197.702 148.988 -184.41 c 5
 173.669 -197.702 192.65 -213.837 209.879 -236.176 c 5
 200.528 -258.515 187.237 -274.651 167.244 -287.941 c 5
 142.561 -274.651 123.579 -258.515 106.35 -236.176 c 5
-21.5293 -171.471 m 5
 -12.1787 -149.132 1.1123 -132.995 21.1074 -119.705 c 5
 45.7881 -132.995 64.7705 -149.132 82 -171.471 c 5
 72.6484 -193.808 59.3564 -209.945 39.3623 -223.234 c 5
 14.6807 -209.945 -4.30078 -193.808 -21.5293 -171.471 c 5
-149.409 -106.765 m 5
 -140.059 -84.4258 -126.768 -68.2891 -106.774 -55 c 5
 -82.0908 -68.2891 -63.1094 -84.4258 -45.8799 -106.765 c 5
 -55.2314 -129.103 -68.5225 -145.238 -88.5195 -158.528 c 5
 -113.199 -145.238 -132.181 -129.103 -149.409 -106.765 c 5
EndSplineSet
Validated: 1
EndChar

StartChar: afii57807
Encoding: 1468 1468 105
Width: 0
VWidth: 1000
Flags: HMW
AnchorPoint: "DiaToBaseD" 0 0 mark 0
LayerCount: 2
Back
SplineSet
-61.1758 300 m 1
 -43.9202 323.385 -24.7599 342.277 0 361.177 c 1
 24.4055 343.293 43.3962 324.137 61.1758 300 c 1
 42.202 275.757 22.9391 256.817 0 238.823 c 1
 -22.7584 256.656 -41.5005 275.916 -61.1758 300 c 1
EndSplineSet
Fore
SplineSet
-114.074 300 m 1
 -100.941 323.385 -85.1123 342.277 -63.6855 361.177 c 1
 -36.126 343.293 -13.7578 324.137 8.27734 300 c 1
 -6.42188 275.757 -22.3447 256.817 -42.1113 238.823 c 1
 -68.0137 256.656 -90.1523 275.916 -114.074 300 c 1
EndSplineSet
Validated: 1
EndChar

StartChar: afii57839
Encoding: 1469 1469 106
Width: 0
VWidth: 1100
Flags: HMW
AnchorPoint: "CtxAnchors_D3Narrow_M" -191.038 0 mark 0
AnchorPoint: "CtxAnchors_D1_M" -83.2195 0 mark 0
AnchorPoint: "CtxAnchors_D2_M" -157.514 0 mark 0
AnchorPoint: "CtxAnchors_D2Narrow_M" -135.978 0 mark 0
AnchorPoint: "2DotsToBaseNarrowMark" -31.1807 -106.764 basemark 0
AnchorPoint: "DotToBaseMark" -87.1807 -106.764 basemark 0
AnchorPoint: "DotToBaseNarrowMark" -53.1807 -106.764 basemark 0
AnchorPoint: "2DotsToBaseMark" -64.1807 -106.764 basemark 0
AnchorPoint: "BarToBaseNarrowMark" -60.1807 -106.764 basemark 0
AnchorPoint: "BarToBaseMark" -77.1807 -106.764 basemark 0
AnchorPoint: "ColumnToBaseMark" 84.6943 -106.764 mark 0
AnchorPoint: "DiaToBase1" 0 0 mark 0
LayerCount: 2
Back
SplineSet
44.6299 -52.9414 m 1
 78.8584 -247.059 l 1
 66.9326 -249.121 56.543 -250 44.082 -250 c 0
 31.6211 -250 20.9209 -249.121 8.26855 -247.059 c 1
 -25.96 -52.9414 l 17
 -14.0342 -50.8789 -3.64453 -50 8.81641 -50 c 0
 21.2773 -50 31.9775 -50.8789 44.6299 -52.9414 c 1
EndSplineSet
Fore
SplineSet
46.4102 -62.9414 m 1
 84.6943 -280.059 l 1
 72.7666 -282.121 62.377 -283 49.916 -283 c 0
 37.4551 -283 26.7549 -282.121 14.1025 -280.059 c 1
 -24.1807 -62.9414 l 17
 -12.2559 -60.8789 -1.86523 -60 10.5957 -60 c 0
 23.0557 -60 33.7559 -60.8789 46.4102 -62.9414 c 1
EndSplineSet
Validated: 1
Comment: "+AAoA%2DotsToBaseMark+AD0A-40+AAoA%2DotsToBaseNarrowMark+AD0A-7+AAoA%BarToBaseMark+AD0A-53+AAoA%BarToBaseNarrowMark+AD0A-36+AAoA%DotToBaseMark+AD0A-63+AAoA%DotToBaseNarrowMark+AD0A-29" 
EndChar

StartChar: afii57645
Encoding: 1470 1470 107
Width: 492
VWidth: 1000
Flags: HMW
LayerCount: 2
Back
SplineSet
-40 511.71 m 5
 -31.4727 549.166 -8.95312 585.328 20.2812 615.526 c 5
 114.216 611.044 221.056 598.646 324.243 568.5 c 5
 315.975 533.988 306.953 505.402 284.801 479.485 c 5
 131.901 504.062 69.2979 507.551 -40 511.71 c 5
EndSplineSet
Fore
SplineSet
-38 503.906 m 1
 -26 544.667 -4.66667 578 21.998 607.723 c 1
 125.325 603.24 249.161 590.843 362.667 560.696 c 1
 353.572 526.185 343.648 497.599 319.28 471.682 c 1
 151.091 496.259 82.2275 499.748 -38 503.906 c 1
EndSplineSet
Validated: 1
EndChar

StartChar: afii57841
Encoding: 1471 1471 108
Width: 0
VWidth: 1100
Flags: HMW
AnchorPoint: "CtxAnchors_Rafe" 0 0 mark 0
AnchorPoint: "RafeToBase" 0 0 mark 0
LayerCount: 2
Back
SplineSet
-246.336 736.5 m 1
 12.1641 736.5 l 1
 13.5703 710.373 10.1729 688.734 1.08203 665.912 c 1
 -257.418 665.912 l 17
 -258.824 692.039 -255.427 713.678 -246.336 736.5 c 1
EndSplineSet
Fore
SplineSet
-239.471 736.5 m 1
 19.0293 736.5 l 1
 15.8281 710.373 8.61523 688.734 -4.5 665.912 c 1
 -263 665.912 l 17
 -259.799 692.039 -252.586 713.678 -239.471 736.5 c 1
EndSplineSet
Validated: 1
EndChar

StartChar: afii57842
Encoding: 1472 1472 109
Width: 179
VWidth: 1070
Flags: HMW
LayerCount: 2
Fore
SplineSet
-14.7549 635.67 m 1
 8.3877 650 35.2119 659.5 65.4258 663 c 1
 192.382 -57 l 1
 167.695 -72 142.282 -81 112.201 -84.3301 c 1
 -14.7549 635.67 l 1
EndSplineSet
Validated: 1
EndChar

StartChar: afii57804
Encoding: 1473 1473 110
Width: 0
VWidth: 1100
Flags: HMW
LayerCount: 2
Back
SplineSet
464.235 675.965 m 5
 477.525 698.303 493.661 714.439 516 727.729 c 5
 538.34 714.439 554.476 698.303 567.766 675.965 c 5
 554.476 653.626 538.34 637.49 516 624.2 c 5
 493.661 637.49 477.525 653.626 464.235 675.965 c 5
EndSplineSet
Fore
SplineSet
401.044 675.965 m 1
 410.396 698.303 423.688 714.439 443.682 727.729 c 1
 468.365 714.439 487.347 698.303 504.575 675.965 c 1
 495.225 653.626 481.934 637.49 461.938 624.2 c 1
 437.254 637.49 418.273 653.626 401.044 675.965 c 1
EndSplineSet
Validated: 1
EndChar

StartChar: afii57803
Encoding: 1474 1474 111
Width: 0
VWidth: 1100
Flags: HMW
LayerCount: 2
Back
SplineSet
151 675.965 m 1
 164.29 698.303 180.426 714.439 202.765 727.729 c 1
 225.104 714.439 241.24 698.303 254.53 675.965 c 1
 241.24 653.626 225.104 637.49 202.765 624.2 c 1
 180.426 637.49 164.29 653.626 151 675.965 c 1
EndSplineSet
Fore
SplineSet
84.8096 675.965 m 5
 94.1602 698.303 107.451 714.439 127.446 727.729 c 5
 152.129 714.439 171.11 698.303 188.339 675.965 c 5
 178.988 653.626 165.697 637.49 145.702 624.2 c 5
 121.02 637.49 102.038 653.626 84.8096 675.965 c 5
EndSplineSet
Validated: 1
EndChar

StartChar: uni05C4
Encoding: 1476 1476 113
Width: 0
VWidth: 1136
Flags: HMW
LayerCount: 2
Back
SplineSet
-177.065 710.615 m 5
 -167.714 732.954 -154.425 749.091 -134.428 762.379 c 5
 -109.745 749.091 -90.7646 732.954 -73.5361 710.615 c 5
 -82.8867 688.277 -96.1768 672.141 -116.173 658.85 c 5
 -140.856 672.141 -159.836 688.277 -177.065 710.615 c 5
-51.7646 710.615 m 5
 -38.4746 732.954 -22.3398 749.091 0 762.379 c 5
 22.3398 749.091 38.4746 732.954 51.7646 710.615 c 5
 38.4746 688.277 22.3398 672.141 0 658.85 c 5
 -22.3398 672.141 -38.4746 688.277 -51.7646 710.615 c 5
EndSplineSet
Fore
SplineSet
-194.736 752.118 m 1
 -183.516 778.925 -167.567 798.289 -143.571 814.235 c 1
 -113.952 798.289 -91.1758 778.925 -70.502 752.118 c 1
 -81.7227 725.312 -97.6699 705.949 -121.666 690 c 1
 -151.285 705.949 -174.062 725.312 -194.736 752.118 c 1
EndSplineSet
Validated: 1
EndChar

StartChar: afii57664
Encoding: 1488 1488 114
Width: 695
VWidth: 1000
Flags: HMW
AnchorPoint: "CtxAnchors_D3Narrow_M" 360 0 basechar 0
AnchorPoint: "CtxAnchors_D1_M" 350 0 basechar 0
AnchorPoint: "CtxAnchors_D2_M" 360 0 basechar 0
AnchorPoint: "CtxAnchors_D2Narrow_M" 360 0 basechar 0
AnchorPoint: "CtxAnchors_M_D2" 360 0 basechar 0
AnchorPoint: "CtxAnchors_M_D1" 350 0 basechar 0
AnchorPoint: "CtxAnchors_M_D3Narrow" 360 0 basechar 0
AnchorPoint: "CtxAnchors_M_D2Narrow" 360 0 basechar 0
AnchorPoint: "DiaToBaseD" 375 -132.5 basechar 0
AnchorPoint: "DiaToBaseU" 340 0 basechar 0
AnchorPoint: "DiaToBase4" 360 0 basechar 0
AnchorPoint: "DiaToBase3" 360 0 basechar 0
AnchorPoint: "DiaToBase2" 350 0 basechar 0
AnchorPoint: "DiaToBase1" 335 0 basechar 0
AnchorPoint: "RafeToBase" 380 0 basechar 0
AnchorPoint: "DiaToBaseO" 30 0 basechar 0
LayerCount: 2
Back
SplineSet
94 639 m 1
 133 585.499 156 543 176 491 c 1
 292 463 382 426 473 363 c 1
 511 423 506 501 471 550 c 1
 492 586 513 613 546 639 c 1
 621 548 583 426 520 328 c 1
 593 261 648 161 681 70 c 1
 668 36 652 9 627 -25 c 1
 602 60 557.334 162.385 469 248 c 16
 404 311 304 353 212 372 c 1
 231 273 243 156 239 52 c 1
 226 19 204 -8 179 -25 c 1
 156 212 141 384.5 31 547.5 c 1
 48 585 67.5 612 94 639 c 1
EndSplineSet
Fore
SplineSet
46.2422 626.284 m 1
 85.0537 573.849 107.905 532.194 127.723 481.229 c 1
 243.624 453.786 333.495 417.522 424.273 355.776 c 1
 462.484 414.582 457.759 491.03 422.93 539.055 c 1
 444.056 574.339 465.151 600.802 498.242 626.284 c 1
 572.923 537.095 534.494 417.522 471.15 321.473 c 1
 543.916 255.806 598.565 157.796 631.245 68.6064 c 1
 618.126 35.2832 602.031 8.82129 576.912 -24.5029 c 1
 552.21 58.8066 507.903 159.153 419.871 243.064 c 16
 355.092 304.812 255.238 345.976 163.306 364.598 c 1
 181.958 267.567 193.547 152.896 189.183 50.9658 c 1
 176.066 18.6211 153.972 -7.84082 128.912 -24.5029 c 1
 106.744 207.781 92.3496 376.849 -17.0781 536.604 c 1
 0.0527344 573.358 19.6475 599.821 46.2422 626.284 c 1
EndSplineSet
Validated: 33
Substitution2: "jaltWideLetters subtable" uniFB21
Comment: "%DiaToBase1+AD0A-335+AAoA%DiaToBase2+AD0A-350+AAoA%DiaToBase3+AD0A-360+AAoA%DiaToBase4+AD0A-360+AAoA%DiaToBaseO+AD0A-30+AAoA%DiaToBaseU+AD0A-340+AAoA%RafeToBase+AD0A-380" 
EndChar

StartChar: afii57665
Encoding: 1489 1489 115
Width: 578
VWidth: 1000
Flags: HMW
AnchorPoint: "CtxAnchors_D3Narrow_M" 290 0 basechar 0
AnchorPoint: "CtxAnchors_D1_M" 285 0 basechar 0
AnchorPoint: "CtxAnchors_D2_M" 290 0 basechar 0
AnchorPoint: "CtxAnchors_D2Narrow_M" 290 0 basechar 0
AnchorPoint: "CtxAnchors_M_D2" 290 0 basechar 0
AnchorPoint: "CtxAnchors_M_D1" 285 0 basechar 0
AnchorPoint: "CtxAnchors_M_D3Narrow" 290 0 basechar 0
AnchorPoint: "CtxAnchors_M_D2Narrow" 290 0 basechar 0
AnchorPoint: "DiaToBaseD" 248 0 basechar 0
AnchorPoint: "DiaToBaseU" 260 0 basechar 0
AnchorPoint: "DiaToBase4" 290 0 basechar 0
AnchorPoint: "DiaToBase3" 290 0 basechar 0
AnchorPoint: "DiaToBase2" 285 0 basechar 0
AnchorPoint: "DiaToBase1" 280 0 basechar 0
AnchorPoint: "RafeToBase" 310 0 basechar 0
AnchorPoint: "DiaToBaseO" 80 0 basechar 0
LayerCount: 2
Back
SplineSet
139 629.501 m 1
 268 598 376.682 573.345 451 534 c 0
 493.5 511.5 499.583 482.032 497 442 c 0
 495 411 480.581 393.336 468 357.5 c 0
 451.5 310.5 457.5 292.5 493 268 c 0
 516.169 252.01 547.068 246.535 554 233 c 0
 564.5 212.5 561 187.5 523.5 141 c 0
 477.029 83.376 252 -26 73 -36 c 1
 80 7 105.162 48.8496 142.963 87.7002 c 1
 247.963 106.6 366.824 136.95 423 180 c 1
 407.774 196.8 399.745 202.83 390.974 215.175 c 0
 376.8 235.125 367.053 261.346 373.5 291 c 0
 381 325.5 388.5 357 388.662 394.3 c 0
 388.796 425.132 377.871 452.385 348.763 462.55 c 16
 216.463 508.75 136.801 510.75 57 526.5 c 1
 76.5 571.5 103.5 606 139 629.501 c 1
EndSplineSet
Fore
SplineSet
91.209 616.974 m 1
 220.099 586.1 328.693 561.935 402.873 523.373 c 0
 445.295 501.321 451.274 472.439 448.551 433.204 c 0
 446.442 402.821 431.961 385.508 419.254 350.386 c 0
 402.59 304.321 408.526 286.68 443.94 262.667 c 0
 467.053 246.995 497.934 241.628 504.817 228.363 c 0
 515.246 208.271 511.658 183.769 473.995 138.194 c 0
 427.321 81.7168 201.908 -25.4824 22.874 -35.2832 c 1
 30.0254 6.86035 55.333 47.8779 93.2715 85.9551 c 1
 198.337 104.479 317.304 134.225 373.631 176.418 c 1
 358.465 192.884 350.457 198.794 341.729 210.893 c 0
 327.625 230.445 317.971 256.145 324.521 285.209 c 0
 332.143 319.022 339.753 349.896 340.045 386.453 c 0
 340.288 416.672 329.459 443.383 300.386 453.346 c 16
 168.248 498.625 88.5928 500.587 8.84766 516.021 c 1
 28.5059 560.127 55.626 593.94 91.209 616.974 c 1
EndSplineSet
Validated: 33
Comment: "%DiaToBase1+AD0A-280+AAoA%DiaToBase2+AD0A-285+AAoA%DiaToBase3+AD0A-290+AAoA%DiaToBase4+AD0A-290+AAoA%DiaToBaseO+AD0A-80+AAoA%DiaToBaseU+AD0A-260+AAoA%RafeToBase+AD0A-310" 
EndChar

StartChar: afii57666
Encoding: 1490 1490 116
Width: 378
VWidth: 1000
Flags: HMW
AnchorPoint: "CtxAnchors_Rafe" 280.779 0 basechar 0
AnchorPoint: "CtxAnchors_D3Narrow_M" 185 0 basechar 0
AnchorPoint: "CtxAnchors_D1_M" 180 0 basechar 0
AnchorPoint: "CtxAnchors_D2_M" 185 0 basechar 0
AnchorPoint: "CtxAnchors_D2Narrow_M" 185 0 basechar 0
AnchorPoint: "CtxAnchors_M_D2" 185 0 basechar 0
AnchorPoint: "CtxAnchors_M_D1" 180 0 basechar 0
AnchorPoint: "CtxAnchors_M_D3Narrow" 185 0 basechar 0
AnchorPoint: "CtxAnchors_M_D2Narrow" 185 0 basechar 0
AnchorPoint: "DiaToBaseD" 127.5 -17.5 basechar 0
AnchorPoint: "DiaToBaseU" 170 0 basechar 0
AnchorPoint: "DiaToBase4" 185 0 basechar 0
AnchorPoint: "DiaToBase3" 185 0 basechar 0
AnchorPoint: "DiaToBase2" 180 0 basechar 0
AnchorPoint: "DiaToBase1" 185 0 basechar 0
AnchorPoint: "RafeToBase" 250 0 basechar 0
AnchorPoint: "DiaToBaseO" 60 0 basechar 0
LayerCount: 2
Back
SplineSet
132 639 m 1
 270 517.999 372 273 392 71 c 1
 384 32 366 0 336 -25 c 1
 321 52 307 101 290 152 c 1
 272 110 162 -8 77 -25 c 1
 77 13 84 50 95 79 c 1
 133 113 187 143 222 182 c 0
 263.946 228.739 258.646 273.868 224 337 c 0
 179 419 128 478 60 542 c 1
 80 582 103 615 132 639 c 1
EndSplineSet
Fore
SplineSet
84.2422 626.284 m 1
 221.817 507.69 322.958 267.567 342.249 69.5869 c 1
 334.113 31.3633 316 0 285.912 -24.5029 c 1
 271.183 50.9658 257.354 98.9902 240.533 148.976 c 1
 222.386 107.811 111.972 -7.84082 26.9121 -24.5029 c 1
 27.0449 12.7412 34.1748 49.0049 45.2773 77.4277 c 1
 83.3965 110.751 137.502 140.154 172.639 178.378 c 0
 214.749 224.187 209.607 268.418 175.183 330.294 c 0
 130.471 410.662 79.6777 468.488 11.9023 531.214 c 1
 32.042 570.418 55.1572 602.762 84.2422 626.284 c 1
EndSplineSet
Validated: 33
Comment: "%DiaToBase1+AD0A-185+AAoA%DiaToBase2+AD0A-180+AAoA%DiaToBase3+AD0A-185+AAoA%DiaToBase4+AD0A-185+AAoA%DiaToBaseO+AD0A-60+AAoA%DiaToBaseU+AD0A-170+AAoA%RafeToBase+AD0A-250" 
EndChar

StartChar: afii57667
Encoding: 1491 1491 117
Width: 498
VWidth: 1000
Flags: HMW
AnchorPoint: "CtxAnchors_D3Narrow_M" 310 0 basechar 0
AnchorPoint: "CtxAnchors_D1_M" 320 0 basechar 0
AnchorPoint: "CtxAnchors_D2_M" 310 0 basechar 0
AnchorPoint: "CtxAnchors_D2Narrow_M" 310 0 basechar 0
AnchorPoint: "CtxAnchors_M_D2" 310 0 basechar 0
AnchorPoint: "CtxAnchors_M_D1" 320 0 basechar 0
AnchorPoint: "CtxAnchors_M_D3Narrow" 310 0 basechar 0
AnchorPoint: "CtxAnchors_M_D2Narrow" 310 0 basechar 0
AnchorPoint: "DiaToBaseD" 192.5 -17.5 basechar 0
AnchorPoint: "DiaToBaseU" 280 0 basechar 0
AnchorPoint: "DiaToBase4" 310 0 basechar 0
AnchorPoint: "DiaToBase3" 310 0 basechar 0
AnchorPoint: "DiaToBase2" 320 0 basechar 0
AnchorPoint: "DiaToBase1" 360 0 basechar 0
AnchorPoint: "RafeToBase" 300 0 basechar 0
AnchorPoint: "DiaToBaseO" 10 0 basechar 0
LayerCount: 2
Back
SplineSet
12 532 m 1
 23 570 40 607 64 630 c 1
 225 630 411 574 467 537 c 1
 470 517 464 472 457 448 c 1
 432 444 410 436 385 424 c 8
 359.276 411.652 349 391 358 356 c 0
 381.69 263.871 423 173 459 87 c 1
 455 42 434 5 404 -25 c 1
 367 52 330.901 147.651 299 250 c 0
 284.987 294.957 285 367 296 401 c 0
 306.859 434.566 323.926 463.516 331 476 c 1
 186 524 88 527 12 532 c 1
EndSplineSet
Fore
SplineSet
-36.1328 521.413 m 1
 -25 558.657 -7.87012 594.921 16.2109 617.463 c 1
 177.211 617.463 363.014 562.577 418.885 526.312 c 1
 421.812 506.712 415.656 462.607 408.572 439.085 c 1
 383.558 435.164 361.53 427.323 336.488 415.562 c 8
 310.721 403.46 300.371 383.219 309.249 348.916 c 0
 332.615 258.62 373.607 169.558 409.305 85.2686 c 1
 405.147 41.1641 384.018 4.90039 353.912 -24.5029 c 1
 317.183 50.9658 281.419 144.713 249.876 245.025 c 0
 236.021 289.088 236.288 359.696 247.407 393.021 c 0
 258.384 425.919 275.552 454.292 282.67 466.527 c 1
 137.839 513.572 39.8496 516.513 -36.1328 521.413 c 1
EndSplineSet
Validated: 33
Substitution2: "jaltWideLetters subtable" uniFB22
Comment: "%DiaToBase1+AD0A-360+AAoA%DiaToBase2+AD0A-320+AAoA%DiaToBase3+AD0A-310+AAoA%DiaToBase4+AD0A-310+AAoA%DiaToBaseO+AD0A-10+AAoA%DiaToBaseU+AD0A-280+AAoA%RafeToBase+AD0A-300" 
EndChar

StartChar: afii57668
Encoding: 1492 1492 118
Width: 665
VWidth: 1000
Flags: HMW
AnchorPoint: "CtxAnchors_D3Narrow_M" 375 0 basechar 0
AnchorPoint: "CtxAnchors_D1_M" 380 0 basechar 0
AnchorPoint: "CtxAnchors_D2_M" 375 0 basechar 0
AnchorPoint: "CtxAnchors_D2Narrow_M" 375 0 basechar 0
AnchorPoint: "CtxAnchors_M_D2" 375 0 basechar 0
AnchorPoint: "CtxAnchors_M_D1" 380 0 basechar 0
AnchorPoint: "CtxAnchors_M_D3Narrow" 375 0 basechar 0
AnchorPoint: "CtxAnchors_M_D2Narrow" 375 0 basechar 0
AnchorPoint: "DiaToBaseD" 376 -38 basechar 0
AnchorPoint: "DiaToBaseU" 370 0 basechar 0
AnchorPoint: "DiaToBase4" 375 0 basechar 0
AnchorPoint: "DiaToBase3" 375 0 basechar 0
AnchorPoint: "DiaToBase2" 380 0 basechar 0
AnchorPoint: "DiaToBase1" 370 0 basechar 0
AnchorPoint: "RafeToBase" 350 0 basechar 0
AnchorPoint: "DiaToBaseO" 40 0 basechar 0
LayerCount: 2
Back
SplineSet
168.5 352 m 5
 210.5 216 243.5 150 283.5 80 c 5
 283.5 37 263.5 -6 248.5 -25 c 5
 202.5 14 143.5 117 129.5 191 c 5
 119.5 244 132.5 346 168.5 352 c 5
110 628 m 1
 189 622 323.318 607.006 447 554 c 16
 524 521 574.622 471.552 610 388 c 16
 657 277 664 192 670 78 c 1
 661 28 638 0 608 -25 c 1
 600 57 596.173 138.511 564 237 c 16
 515 387 442 448 361 473 c 8
 237.184 511.215 121 518 33 526 c 1
 51 564 80 606 110 628 c 1
EndSplineSet
Fore
SplineSet
119.735 344.995 m 5
 161.258 211.701 194.026 147.015 233.78 78.4082 c 5
 233.63 36.2637 213.479 -5.88086 198.412 -24.5029 c 5
 152.549 13.7217 93.9102 114.672 80.1709 187.199 c 5
 70.3574 239.145 83.7139 339.114 119.735 344.995 c 5
62.2031 615.503 m 1
 141.183 609.622 275.448 594.927 398.944 542.976 c 16
 475.828 510.632 526.276 462.169 561.362 380.279 c 16
 607.972 271.487 614.674 188.18 620.274 76.4473 c 1
 611.099 27.4424 588 0 557.912 -24.5029 c 1
 550.2 55.8652 546.659 135.755 514.832 232.284 c 16
 466.358 379.299 393.572 439.085 312.66 463.587 c 8
 188.978 501.042 72.8174 507.691 -15.1543 515.532 c 1
 2.97852 552.776 32.126 593.94 62.2031 615.503 c 1
EndSplineSet
Validated: 33
Substitution2: "jaltWideLetters subtable" uniFB23
Comment: "%DiaToBase1+AD0A-370+AAoA%DiaToBase2+AD0A-380+AAoA%DiaToBase3+AD0A-375+AAoA%DiaToBase4+AD0A-375+AAoA%DiaToBaseO+AD0A-40+AAoA%DiaToBaseU+AD0A-370+AAoA%RafeToBase+AD0A-350" 
EndChar

StartChar: afii57669
Encoding: 1493 1493 119
Width: 334
VWidth: 1000
Flags: HMW
AnchorPoint: "CtxAnchors_Rafe" 250.779 0 basechar 0
AnchorPoint: "CtxAnchors_D3Narrow_M" 190 0 basechar 0
AnchorPoint: "CtxAnchors_D1_M" 190 0 basechar 0
AnchorPoint: "CtxAnchors_D2_M" 190 0 basechar 0
AnchorPoint: "CtxAnchors_D2Narrow_M" 190 0 basechar 0
AnchorPoint: "CtxAnchors_M_D2" 190 0 basechar 0
AnchorPoint: "CtxAnchors_M_D1" 190 0 basechar 0
AnchorPoint: "CtxAnchors_M_D3Narrow" 190 0 basechar 0
AnchorPoint: "CtxAnchors_M_D2Narrow" 190 0 basechar 0
AnchorPoint: "DiaToBaseD" 98 -32 basechar 0
AnchorPoint: "DiaToBaseU" 180 0 basechar 0
AnchorPoint: "DiaToBase4" 190 0 basechar 0
AnchorPoint: "DiaToBase3" 190 0 basechar 0
AnchorPoint: "DiaToBase2" 190 0 basechar 0
AnchorPoint: "DiaToBase1" 210 0 basechar 0
AnchorPoint: "RafeToBase" 200 0 basechar 0
AnchorPoint: "DiaToBaseO" 30 0 basechar 0
LayerCount: 2
Back
SplineSet
75 639 m 1
 195 560.499 262 455 286 332 c 8
 307.449 222.073 311 150 312 46 c 5
 301 23 281 -9 255 -25 c 1
 245 96 227 211 192 309 c 0
 153.276 417.427 93 461 9 537 c 1
 24 577 45 612 75 639 c 1
EndSplineSet
Fore
SplineSet
27.2422 626.284 m 1
 146.967 549.346 213.598 445.945 237.164 325.394 c 8
 258.229 217.654 261.527 147.015 262.161 45.085 c 5
 251.081 22.542 230.969 -8.82129 204.912 -24.5029 c 1
 195.337 94.0898 177.74 206.801 143.084 302.851 c 0
 104.74 409.12 44.6172 451.826 -39.1152 526.312 c 1
 -23.9756 565.518 -2.85254 599.821 27.2422 626.284 c 1
EndSplineSet
Validated: 1
Comment: "%DiaToBase1+AD0A-210+AAoA%DiaToBase2+AD0A-190+AAoA%DiaToBase3+AD0A-190+AAoA%DiaToBase4+AD0A-190+AAoA%DiaToBaseO+AD0A-30+AAoA%DiaToBaseU+AD0A-180+AAoA%RafeToBase+AD0A-200" 
EndChar

StartChar: afii57670
Encoding: 1494 1494 120
Width: 373
VWidth: 1000
Flags: HMW
AnchorPoint: "CtxAnchors_Rafe" 250.779 0 basechar 0
AnchorPoint: "CtxAnchors_D3Narrow_M" 200 0 basechar 0
AnchorPoint: "CtxAnchors_D1_M" 185 0 basechar 0
AnchorPoint: "CtxAnchors_D2_M" 200 0 basechar 0
AnchorPoint: "CtxAnchors_D2Narrow_M" 200 0 basechar 0
AnchorPoint: "CtxAnchors_M_D2" 200 0 basechar 0
AnchorPoint: "CtxAnchors_M_D1" 185 0 basechar 0
AnchorPoint: "CtxAnchors_M_D3Narrow" 200 0 basechar 0
AnchorPoint: "CtxAnchors_M_D2Narrow" 200 0 basechar 0
AnchorPoint: "DiaToBaseD" 94.0742 0 basechar 0
AnchorPoint: "DiaToBaseU" 180 0 basechar 0
AnchorPoint: "DiaToBase4" 200 0 basechar 0
AnchorPoint: "DiaToBase3" 200 0 basechar 0
AnchorPoint: "DiaToBase2" 185 0 basechar 0
AnchorPoint: "DiaToBase1" 200 0 basechar 0
AnchorPoint: "RafeToBase" 230 0 basechar 0
AnchorPoint: "DiaToBaseO" 30 0 basechar 0
LayerCount: 2
Back
SplineSet
100.5 639 m 1
 181.5 600 271.5 547.5 343 474 c 1
 335 435 314 394 292 368 c 1
 254 393 229 412 202 433 c 1
 185 412 176.889 392.158 175.5 363 c 16
 173.5 321 253.5 184 302.5 113 c 1
 311.5 51.5 299.5 -1 274.5 -25 c 1
 188.5 92 88.5273 277.023 92 343 c 0
 94 381 125 425 147 470 c 1
 112 497 67 513.5 33 529.5 c 1
 45 562.5 69 612 100.5 639 c 1
EndSplineSet
Fore
SplineSet
52.7422 626.284 m 1
 133.605 588.06 223.422 536.604 294.663 464.567 c 1
 286.526 426.344 265.382 386.159 243.29 360.677 c 1
 205.379 385.18 180.446 403.801 153.52 424.384 c 1
 136.446 403.801 128.265 384.354 126.773 355.776 c 16
 124.626 314.612 204.146 180.339 252.896 110.751 c 1
 261.681 50.4756 249.496 -0.980469 224.412 -24.5029 c 1
 138.822 90.1689 39.499 271.511 43.2031 336.174 c 0
 45.3369 373.418 76.4912 416.543 98.6494 460.647 c 1
 63.7432 487.109 18.8018 503.281 -15.1416 518.963 c 1
 -3.02637 551.307 21.1475 599.821 52.7422 626.284 c 1
EndSplineSet
Validated: 33
Comment: "%DiaToBase1+AD0A-200+AAoA%DiaToBase2+AD0A-185+AAoA%DiaToBase3+AD0A-200+AAoA%DiaToBase4+AD0A-200+AAoA%DiaToBaseO+AD0A-30+AAoA%DiaToBaseU+AD0A-180+AAoA%RafeToBase+AD0A-230" 
EndChar

StartChar: afii57671
Encoding: 1495 1495 121
Width: 647
VWidth: 1000
Flags: HMW
AnchorPoint: "CtxAnchors_D3Narrow_M" 340 0 basechar 0
AnchorPoint: "CtxAnchors_D1_M" 330 0 basechar 0
AnchorPoint: "CtxAnchors_D2_M" 340 0 basechar 0
AnchorPoint: "CtxAnchors_D2Narrow_M" 340 0 basechar 0
AnchorPoint: "CtxAnchors_M_D2" 340 0 basechar 0
AnchorPoint: "CtxAnchors_M_D1" 330 0 basechar 0
AnchorPoint: "CtxAnchors_M_D3Narrow" 340 0 basechar 0
AnchorPoint: "CtxAnchors_M_D2Narrow" 340 0 basechar 0
AnchorPoint: "DiaToBaseD" 373 -26 basechar 0
AnchorPoint: "DiaToBaseU" 310 0 basechar 0
AnchorPoint: "DiaToBase4" 340 0 basechar 0
AnchorPoint: "DiaToBase3" 340 0 basechar 0
AnchorPoint: "DiaToBase2" 330 0 basechar 0
AnchorPoint: "DiaToBase1" 320 0 basechar 0
AnchorPoint: "RafeToBase" 380 0 basechar 0
AnchorPoint: "DiaToBaseO" 50 0 basechar 0
LayerCount: 2
Back
SplineSet
114 639 m 5
 138 624.935 152 611.354 197 604.564 c 4
 283.261 591.549 338.907 580.628 424 547.612 c 20
 514 512.692 567.582 446.396 598 368.162 c 4
 631.5 282 647 192 650 82.9824 c 5
 638 38.3623 611 -2.69043 579 -25 c 5
 573 1.18945 569.964 100.625 557 179.982 c 4
 544.5 256.5 519 318 484 366.223 c 4
 455.547 405.425 412.546 433.59 366 454.492 c 12
 294.715 486.504 226 492.044 169 491.074 c 5
 208 411.534 233 272.133 227 87.832 c 5
 215.239 38.3486 183 -8.51074 149 -25 c 5
 142 62.2998 143.651 111.805 136 199.383 c 20
 126 313.843 107 382.435 71 481.374 c 12
 64.0322 500.524 40 510.475 36 520.174 c 5
 57 568.674 81 607.475 114 639 c 5
EndSplineSet
Fore
SplineSet
66.2422 626.284 m 5
 90.1934 612.499 104.146 599.188 149.121 592.534 c 4
 235.337 579.777 290.944 569.072 375.922 536.715 c 20
 465.799 502.489 519.148 437.513 549.292 360.835 c 4
 582.489 276.389 597.674 188.18 600.291 81.3311 c 5
 588.134 37.5986 560.99 -2.63672 528.912 -24.5029 c 5
 523.004 1.16602 520.317 98.623 507.631 176.401 c 4
 495.399 251.396 470.116 311.672 435.285 358.936 c 4
 406.97 397.357 364.068 424.962 317.596 445.447 c 12
 246.422 476.822 177.726 482.253 120.724 481.302 c 5
 159.444 403.345 183.954 266.718 177.309 86.085 c 5
 165.374 37.585 132.97 -8.3418 98.9121 -24.5029 c 5
 92.2178 61.0596 94.043 109.58 86.7002 195.415 c 20
 77.1016 307.597 58.3428 374.824 22.6885 471.795 c 12
 15.7891 490.562 -8.20898 500.316 -12.1748 509.823 c 5
 8.99512 557.357 33.1318 595.386 66.2422 626.284 c 5
EndSplineSet
Validated: 33
Comment: "%DiaToBase1+AD0A-320+AAoA%DiaToBase2+AD0A-330+AAoA%DiaToBase3+AD0A-340+AAoA%DiaToBase4+AD0A-340+AAoA%DiaToBaseO+AD0A-50+AAoA%DiaToBaseU+AD0A-310+AAoA%RafeToBase+AD0A-380" 
EndChar

StartChar: afii57672
Encoding: 1496 1496 122
Width: 673
VWidth: 1000
Flags: HMW
AnchorPoint: "CtxAnchors_D3Narrow_M" 365 0 basechar 0
AnchorPoint: "CtxAnchors_D1_M" 350 0 basechar 0
AnchorPoint: "CtxAnchors_D2_M" 365 0 basechar 0
AnchorPoint: "CtxAnchors_D2Narrow_M" 365 0 basechar 0
AnchorPoint: "CtxAnchors_M_D2" 365 0 basechar 0
AnchorPoint: "CtxAnchors_M_D1" 350 0 basechar 0
AnchorPoint: "CtxAnchors_M_D3Narrow" 365 0 basechar 0
AnchorPoint: "CtxAnchors_M_D2Narrow" 365 0 basechar 0
AnchorPoint: "DiaToBaseD" 414 0 basechar 0
AnchorPoint: "DiaToBaseU" 320 0 basechar 0
AnchorPoint: "DiaToBase4" 365 0 basechar 0
AnchorPoint: "DiaToBase3" 365 0 basechar 0
AnchorPoint: "DiaToBase2" 350 0 basechar 0
AnchorPoint: "DiaToBase1" 330 0 basechar 0
AnchorPoint: "RafeToBase" 400 0 basechar 0
AnchorPoint: "DiaToBaseO" 20 0 basechar 0
LayerCount: 2
Back
SplineSet
84.5479 639 m 1
 133.503 559.499 189.788 445 202.5 414 c 0
 232.369 341.159 271.317 213 323.491 131 c 0
 346.462 94.8965 387.691 83 428.329 110 c 0
 478.092 143.063 504.841 163.108 531.092 198.5 c 0
 553.714 229 559.714 274 557.821 305 c 0
 554.633 357.211 542.737 423.306 523.893 456 c 0
 487.447 519.233 415.98 535 353.605 505 c 8
 318.101 487.923 298.893 472 270.893 447 c 1
 266.893 486 269.893 524 279.893 558 c 1
 321.392 597 369.87 626.801 436.903 628 c 16
 548.728 630 614.562 537.946 630.088 443 c 0
 648.893 328 626.68 227.018 578.714 138 c 0
 548 81 497 31 432.953 0 c 0
 380.843 -25.222 328.49 -29 287.641 15 c 0
 241.783 64.3936 201.073 184.5 135 322.5 c 8
 95.6729 404.64 52.377 469.499 12.8271 521.499 c 1
 23.2402 562.499 55.3037 607.499 84.5479 639 c 1
EndSplineSet
Fore
SplineSet
36.79 626.284 m 1
 85.4658 548.365 141.349 436.145 153.953 405.762 c 0
 183.566 334.369 222.062 208.762 273.95 128.394 c 0
 296.795 93.0078 337.981 81.3486 378.715 107.811 c 0
 428.595 140.217 455.414 159.862 481.788 194.55 c 0
 504.518 224.443 510.676 268.548 508.891 298.931 c 0
 505.887 350.103 494.222 414.882 475.493 446.926 c 0
 439.269 508.9 367.858 524.354 305.377 494.95 c 8
 269.812 478.214 250.55 462.607 222.462 438.104 c 1
 218.599 476.328 221.731 513.572 231.852 546.896 c 1
 273.486 585.12 322.07 614.328 389.107 615.503 c 16
 500.938 617.463 566.45 527.24 581.643 434.185 c 0
 600.045 321.473 577.477 222.501 529.198 135.254 c 0
 498.284 79.3887 447.109 30.3838 382.953 0 c 0
 330.755 -24.7197 278.388 -28.4229 237.693 14.7012 c 0
 192.009 63.1123 151.72 180.828 86.1309 316.082 c 8
 47.0928 396.588 4.02441 460.156 -35.3428 511.121 c 1
 -24.7861 551.306 7.43555 595.41 36.79 626.284 c 1
EndSplineSet
Validated: 33
Comment: "%DiaToBase1+AD0A-330+AAoA%DiaToBase2+AD0A-350+AAoA%DiaToBase3+AD0A-365+AAoA%DiaToBase4+AD0A-365+AAoA%DiaToBaseO+AD0A-20+AAoA%DiaToBaseU+AD0A-320+AAoA%RafeToBase+AD0A-400" 
EndChar

StartChar: afii57673
Encoding: 1497 1497 123
Width: 351
VWidth: 1000
Flags: HMW
AnchorPoint: "CtxAnchors_Rafe" 230.779 0 basechar 0
AnchorPoint: "CtxAnchors_D3Narrow_M" 170 0 basechar 0
AnchorPoint: "CtxAnchors_D1_M" 170 0 basechar 0
AnchorPoint: "CtxAnchors_D2_M" 170 0 basechar 0
AnchorPoint: "CtxAnchors_D2Narrow_M" 170 0 basechar 0
AnchorPoint: "CtxAnchors_M_D2" 170 0 basechar 0
AnchorPoint: "CtxAnchors_M_D1" 170 0 basechar 0
AnchorPoint: "CtxAnchors_M_D3Narrow" 170 0 basechar 0
AnchorPoint: "CtxAnchors_M_D2Narrow" 170 0 basechar 0
AnchorPoint: "DiaToBaseD" 112 36 basechar 0
AnchorPoint: "DiaToBaseU" 150 0 basechar 0
AnchorPoint: "DiaToBase4" 170 0 basechar 0
AnchorPoint: "DiaToBase3" 170 0 basechar 0
AnchorPoint: "DiaToBase2" 170 0 basechar 0
AnchorPoint: "DiaToBase1" 180 0 basechar 0
AnchorPoint: "RafeToBase" 200 0 basechar 0
AnchorPoint: "DiaToBaseO" 10 0 basechar 0
LayerCount: 2
Back
SplineSet
85 639 m 1
 213 575 319 505 321 336 c 1
 308 272 279 224 242 189 c 1
 240 248 246 322 211 395 c 0
 175.61 468.814 101 490 12 531 c 1
 30 573 46 607.499 85 639 c 1
EndSplineSet
Fore
SplineSet
37.2422 626.284 m 1
 165.018 563.558 270.772 494.95 272.18 329.312 c 1
 258.954 266.587 229.786 219.542 192.663 185.239 c 1
 190.871 243.064 197.129 315.592 162.386 387.14 c 0
 127.256 459.484 52.7197 480.249 -36.1367 520.434 c 1
 -17.9893 561.598 -1.86816 595.41 37.2422 626.284 c 1
EndSplineSet
Validated: 1
Comment: "%DiaToBase1+AD0A-180+AAoA%DiaToBase2+AD0A-170+AAoA%DiaToBase3+AD0A-170+AAoA%DiaToBase4+AD0A-170+AAoA%DiaToBaseO+AD0A-10+AAoA%DiaToBaseU+AD0A-150+AAoA%RafeToBase+AD0A-200" 
EndChar

StartChar: afii57674
Encoding: 1498 1498 124
Width: 502
VWidth: 1000
Flags: HMW
AnchorPoint: "DiaToBaseD" 182 -44 basechar 0
LayerCount: 2
Back
SplineSet
58 628 m 1
 210 607 346 565 471 500 c 1
 469 470 461 442 451 419 c 1
 428 417 407.912 415.638 382 407 c 16
 337 392 329.488 356.181 340 320 c 16
 383 172 412 76 457 -76 c 1
 453 -131 441 -195 410 -227 c 1
 375 -73 332.382 54.1182 283 213 c 0
 260 287 280 397 314 460 c 1
 207 497 115 517 7 529 c 1
 15 568 30 605 58 628 c 1
EndSplineSet
Fore
SplineSet
10.2041 615.503 m 1
 162.13 594.921 297.982 553.757 422.755 490.05 c 1
 420.649 460.647 412.551 433.204 402.471 410.662 c 1
 379.463 408.702 359.37 407.366 333.429 398.9 c 16
 288.375 384.199 280.737 349.093 291.123 313.632 c 16
 333.604 168.577 362.267 74.4883 406.733 -74.4883 c 1
 402.54 -128.394 390.315 -191.119 359.204 -222.482 c 1
 324.743 -71.5469 282.572 53.041 233.748 208.762 c 0
 211.007 281.289 231.393 389.1 265.615 450.846 c 1
 158.743 487.109 66.8135 506.712 -41.1436 518.473 c 1
 -33.0068 556.697 -17.8779 592.961 10.2041 615.503 c 1
EndSplineSet
Validated: 33
EndChar

StartChar: afii57675
Encoding: 1499 1499 125
Width: 544
VWidth: 1000
Flags: HMW
AnchorPoint: "CtxAnchors_Rafe" 280.779 0 basechar 0
AnchorPoint: "CtxAnchors_D3Narrow_M" 250 0 basechar 0
AnchorPoint: "CtxAnchors_D1_M" 250 0 basechar 0
AnchorPoint: "CtxAnchors_D2_M" 250 0 basechar 0
AnchorPoint: "CtxAnchors_D2Narrow_M" 250 0 basechar 0
AnchorPoint: "CtxAnchors_M_D2" 250 0 basechar 0
AnchorPoint: "CtxAnchors_M_D1" 250 0 basechar 0
AnchorPoint: "CtxAnchors_M_D3Narrow" 250 0 basechar 0
AnchorPoint: "CtxAnchors_M_D2Narrow" 250 0 basechar 0
AnchorPoint: "DiaToBaseD" 246 0 basechar 0
AnchorPoint: "DiaToBaseU" 240 0 basechar 0
AnchorPoint: "DiaToBase4" 250 0 basechar 0
AnchorPoint: "DiaToBase3" 250 0 basechar 0
AnchorPoint: "DiaToBase2" 250 0 basechar 0
AnchorPoint: "DiaToBase1" 250 0 basechar 0
AnchorPoint: "RafeToBase" 280 0 basechar 0
AnchorPoint: "DiaToBaseO" 60 0 basechar 0
LayerCount: 2
Back
SplineSet
123 628 m 1
 227 612 335 595 402 544 c 0
 486.663 479.555 508.975 391.372 511 280 c 16
 512 225 482.452 158.087 453 109 c 0
 420 54 276 -14 79 -36 c 1
 86 0 102 39 125 67 c 1
 228 101 346 121 421 174 c 1
 433 232 432 311 416 354 c 0
 387.632 430.238 346 488 231 507 c 8
 156.976 519.23 109 524 40 530 c 1
 59 572 87 605 123 628 c 1
EndSplineSet
Fore
SplineSet
75.2031 615.503 m 1
 179.147 599.821 287.088 583.159 353.908 533.175 c 0
 438.346 470.013 460.349 383.583 461.982 274.428 c 16
 462.789 220.522 433.006 154.941 403.382 106.831 c 0
 370.19 52.9258 225.951 -13.7217 28.874 -35.2832 c 1
 36 0 52.1357 38.2246 75.2354 65.667 c 1
 178.354 98.9902 296.424 118.592 371.61 170.537 c 1
 383.814 227.383 383.092 304.812 367.242 346.955 c 0
 339.142 421.677 297.712 478.289 182.779 496.911 c 8
 108.799 508.897 60.8389 513.572 -8.14062 519.453 c 1
 11.0068 560.617 39.1221 592.961 75.2031 615.503 c 1
EndSplineSet
Validated: 33
Substitution2: "jaltWideLetters subtable" uniFB24
Comment: "%DiaToBase1+AD0A-250+AAoA%DiaToBase2+AD0A-250+AAoA%DiaToBase3+AD0A-250+AAoA%DiaToBase4+AD0A-250+AAoA%DiaToBaseO+AD0A-60+AAoA%DiaToBaseU+AD0A-240+AAoA%RafeToBase+AD0A-280" 
EndChar

StartChar: afii57676
Encoding: 1500 1500 126
Width: 491
VWidth: 1000
Flags: HMW
AnchorPoint: "CtxAnchors_D3Narrow_M" 250 0 basechar 0
AnchorPoint: "CtxAnchors_D1_M" 240 0 basechar 0
AnchorPoint: "CtxAnchors_D2_M" 250 0 basechar 0
AnchorPoint: "CtxAnchors_D2Narrow_M" 250 0 basechar 0
AnchorPoint: "CtxAnchors_M_D2" 250 0 basechar 0
AnchorPoint: "CtxAnchors_M_D1" 240 0 basechar 0
AnchorPoint: "CtxAnchors_M_D3Narrow" 250 0 basechar 0
AnchorPoint: "CtxAnchors_M_D2Narrow" 250 0 basechar 0
AnchorPoint: "CtxAnchors_Yerushalam" -126.258 0 basechar 0
AnchorPoint: "DiaToBaseD" 204 46 basechar 0
AnchorPoint: "DiaToBaseU" 230 0 basechar 0
AnchorPoint: "DiaToBase4" 250 0 basechar 0
AnchorPoint: "DiaToBase3" 250 0 basechar 0
AnchorPoint: "DiaToBase2" 240 0 basechar 0
AnchorPoint: "DiaToBase1" 250 0 basechar 0
AnchorPoint: "RafeToBase" 340 0 basechar 0
AnchorPoint: "DiaToBaseO" -40 0 basechar 0
LayerCount: 2
Back
SplineSet
73 819 m 5
 80 767 80 728 89 684 c 4
 94.752 655.878 99 640 133 625 c 4
 178.828 604.781 273.328 595.407 361 569 c 16
 444 544 458 463 461 392 c 0
 463.069 343.033 415 298 379 251 c 0
 338.062 197.553 336 184 346 88 c 1
 323 34 292 3 254 -25 c 1
 246 -8 233 61 238 91 c 0
 250.162 163.973 275.667 210.596 322 274 c 16
 355.884 320.368 387.5 358.5 357 445 c 0
 353.32 455.438 350 459.5 338 464 c 0
 290.533 481.8 177.5 506.5 85.5 529.5 c 12
 54.9062 537.148 33.2021 551.837 24 582 c 20
 6 641 0 679 -10 740 c 5
 7 772 37 802 73 819 c 5
EndSplineSet
Fore
SplineSet
25.874 802.702 m 5
 32.6914 751.736 32.5537 713.513 41.4004 670.389 c 4
 47.0527 642.826 51.2461 627.264 85.1934 612.562 c 4
 130.951 592.746 225.417 583.559 312.996 557.677 c 16
 395.908 533.175 409.624 453.786 412.375 384.199 c 0
 414.272 336.207 366.045 292.069 329.88 246.005 c 0
 288.755 193.621 286.646 180.339 296.309 86.249 c 1
 273.119 33.3232 242.01 2.94043 203.912 -24.5029 c 1
 195.972 -7.84082 183.214 59.7861 188.319 89.1885 c 0
 200.737 160.71 226.405 206.405 272.961 268.548 c 16
 307.008 313.992 338.758 351.366 308.561 436.145 c 0
 304.918 446.375 301.613 450.355 289.628 454.767 c 0
 242.224 472.212 129.278 496.421 37.3584 518.963 c 12
 6.79102 526.458 -14.8623 540.854 -23.958 570.418 c 20
 -41.751 628.244 -47.6172 665.488 -57.4033 725.274 c 5
 -40.291 756.637 -10.1855 786.04 25.874 802.702 c 5
EndSplineSet
Validated: 33
Substitution2: "jaltWideLetters subtable" uniFB25
Comment: "%DiaToBase1+AD0A-250+AAoA%DiaToBase2+AD0A-240+AAoA%DiaToBase3+AD0A-250+AAoA%DiaToBase4+AD0A-250+AAoA%DiaToBaseO+AD0A--40+AAoA%DiaToBaseU+AD0A-230+AAoA%RafeToBase+AD0A-340" 
EndChar

StartChar: afii57677
Encoding: 1501 1501 127
Width: 632
VWidth: 1000
Flags: HMW
AnchorPoint: "DiaToBaseD" 365 -21 basechar 0
LayerCount: 2
Back
SplineSet
193 500 m 1
 227 351 264 217 299 101 c 0
 306.759 75.2829 334.441 66.9756 361 71 c 16
 419.288 79.832 569 147.334 569 186 c 0
 569 204 533.707 222.759 528 257 c 0
 526 269 532.965 293.589 536 317 c 16
 543 371 525.818 413.418 469 436.5 c 0
 389 469 304 481 193 500 c 1
94 628.5 m 1
 216 608.5 353.46 590.723 510 534.5 c 16
 581 509 620 461 618 391 c 0
 616.942 353.961 611 321 604 277 c 1
 621.5 253 644.66 221.881 649 207 c 0
 656 183 657.5 142.5 635 113 c 0
 623.453 97.8613 595 82 562 62 c 0
 509.805 30.3662 456.47 -2.33984 384 -33 c 16
 358 -44 331.046 -51.7041 300 -47 c 0
 267 -42 230.781 -14.3662 219 27 c 0
 174 185 142 335 110 513 c 1
 74 520 60 522 16 530.5 c 1
 31 564.5 63 606.5 94 628.5 c 1
EndSplineSet
Fore
SplineSet
116.894 490.05 m 1
 150.37 344.015 186.9 212.682 221.493 98.9902 c 0
 229.162 73.7852 256.815 65.6426 283.388 69.5869 c 16
 341.707 78.2432 491.656 144.401 491.791 182.299 c 0
 491.854 199.94 456.628 218.326 451.04 251.886 c 0
 449.083 263.646 456.133 287.746 459.251 310.691 c 16
 466.44 363.617 449.407 405.191 392.671 427.812 c 0
 312.785 459.667 227.827 471.428 116.894 490.05 c 1
18.3438 615.993 m 1
 140.273 596.391 277.672 578.967 434.014 523.863 c 16
 504.924 498.871 543.756 451.826 541.51 383.219 c 0
 540.322 346.918 534.265 314.612 527.11 271.487 c 1
 544.526 247.965 567.576 217.466 571.865 202.881 c 0
 578.78 179.358 580.139 139.664 557.535 110.751 c 0
 545.936 95.9141 517.427 80.3682 484.355 60.7656 c 0
 432.05 29.7617 378.601 -2.29297 306.022 -32.3428 c 16
 279.985 -43.124 253.003 -50.6758 221.974 -46.0654 c 0
 188.991 -41.1641 152.869 -14.0801 141.233 26.4629 c 0
 96.7881 181.318 65.3145 328.334 33.9385 502.791 c 1
 -2.03613 509.652 -16.0293 511.612 -60 519.943 c 1
 -44.8809 553.267 -12.7334 594.431 18.3438 615.993 c 1
EndSplineSet
Validated: 33
Substitution2: "jaltWideLetters subtable" uniFB26
EndChar

StartChar: afii57678
Encoding: 1502 1502 128
Width: 669
VWidth: 1000
Flags: HMW
AnchorPoint: "CtxAnchors_D3Narrow_M" 365 0 basechar 0
AnchorPoint: "CtxAnchors_D1_M" 365 0 basechar 0
AnchorPoint: "CtxAnchors_D2_M" 365 0 basechar 0
AnchorPoint: "CtxAnchors_D2Narrow_M" 365 0 basechar 0
AnchorPoint: "CtxAnchors_M_D2" 365 0 basechar 0
AnchorPoint: "CtxAnchors_M_D1" 365 0 basechar 0
AnchorPoint: "CtxAnchors_M_D3Narrow" 365 0 basechar 0
AnchorPoint: "CtxAnchors_M_D2Narrow" 365 0 basechar 0
AnchorPoint: "DiaToBaseD" 404 0 basechar 0
AnchorPoint: "DiaToBaseU" 330 0 basechar 0
AnchorPoint: "DiaToBase4" 365 0 basechar 0
AnchorPoint: "DiaToBase3" 365 0 basechar 0
AnchorPoint: "DiaToBase2" 365 0 basechar 0
AnchorPoint: "DiaToBase1" 350 0 basechar 0
AnchorPoint: "RafeToBase" 370 0 basechar 0
AnchorPoint: "DiaToBaseO" 30 0 basechar 0
LayerCount: 2
Back
SplineSet
94 639 m 1
 165 585.499 206 524 232 464 c 1
 240 503 271.265 541.8 314 574 c 24
 358.48 607.516 415.989 626.574 447 626 c 0
 501 625 539 595 561 559 c 0
 583.52 522.15 601.188 488.433 613 451 c 0
 624.705 413.905 630.625 373.145 637 326 c 8
 639.25 309.363 639.686 298.101 635 283 c 0
 617 225 603 187 573 132 c 8
 557.408 103.416 540.282 88.4218 512 75 c 0
 394 19 290 -13 161 -36 c 1
 174 8 192 45 218 80 c 1
 281 98 343 118 400 140 c 0
 472.525 167.992 542.612 208.49 563 241 c 1
 558 305 544.876 367.944 510 446 c 0
 489 493 467.97 513.231 432 515 c 0
 371 518 273 429 255 412 c 1
 264 372 265.118 325.403 249 274 c 24
 235.081 229.611 218 200 181 176 c 1
 175 214 173 237 173 276 c 8
 173 306.58 187.214 324.059 181 354 c 16
 170 407 96 499 27 539 c 1
 47 583 65 609 94 639 c 1
EndSplineSet
Fore
SplineSet
46.2422 626.284 m 1
 117.054 573.849 157.839 513.572 183.628 454.767 c 1
 191.765 492.99 223.167 531.019 266.014 562.577 c 24
 310.611 595.426 368.188 614.105 399.196 613.543 c 0
 453.193 612.562 491.088 583.159 512.961 547.876 c 0
 535.352 511.76 552.901 478.714 564.582 442.025 c 0
 576.157 405.668 581.935 365.719 588.145 319.513 c 8
 590.336 303.207 590.732 292.169 585.993 277.368 c 0
 567.789 220.522 553.656 183.278 523.463 129.373 c 8
 507.771 101.358 490.593 86.6621 462.263 73.5078 c 0
 344.066 18.6211 239.955 -12.7412 110.874 -35.2832 c 1
 124.028 7.84082 142.157 44.1045 168.28 78.4082 c 1
 231.344 96.0488 293.414 115.651 350.491 137.214 c 0
 423.114 164.648 493.343 204.341 513.846 236.204 c 1
 509.07 298.931 496.166 360.622 461.564 437.125 c 0
 440.729 483.189 419.771 503.018 383.807 504.752 c 0
 322.817 507.691 224.506 420.463 206.446 403.801 c 1
 215.306 364.598 216.259 318.928 199.961 268.548 c 24
 185.887 225.041 168.702 196.02 131.618 172.498 c 1
 125.751 209.741 123.832 232.284 123.968 270.508 c 8
 124.076 300.479 138.351 317.609 132.242 346.955 c 16
 121.429 398.9 47.751 489.07 -21.1094 528.273 c 1
 -0.954102 571.398 17.1377 596.881 46.2422 626.284 c 1
EndSplineSet
Validated: 33
Comment: "%DiaToBase1+AD0A-350+AAoA%DiaToBase2+AD0A-365+AAoA%DiaToBase3+AD0A-365+AAoA%DiaToBase4+AD0A-365+AAoA%DiaToBaseO+AD0A-30+AAoA%DiaToBaseU+AD0A-330+AAoA%RafeToBase+AD0A-370" 
EndChar

StartChar: afii57679
Encoding: 1503 1503 129
Width: 341
VWidth: 1000
Flags: HMW
AnchorPoint: "DiaToBaseD" 100 0 basechar 0
LayerCount: 2
Back
SplineSet
84 639 m 1
 203 562 270 422 296 287 c 8
 321.943 152.295 334 30 331 -63 c 1
 320 -112 296 -149 267 -176 c 1
 259 -74 253 73 219 224 c 0
 180.795 393.674 109 461 13 541 c 1
 32 583 57 612 84 639 c 1
EndSplineSet
Fore
SplineSet
36.2422 626.284 m 1
 154.972 550.816 221.48 413.603 247.007 281.289 c 8
 272.478 149.265 284.105 29.4033 280.779 -61.7461 c 1
 269.607 -109.771 245.477 -146.035 216.382 -172.498 c 1
 208.74 -72.5273 203.257 71.5469 169.786 219.542 c 0
 132.176 385.84 60.6172 451.826 -35.1016 530.234 c 1
 -15.9541 571.398 9.14746 599.821 36.2422 626.284 c 1
EndSplineSet
Validated: 33
EndChar

StartChar: afii57680
Encoding: 1504 1504 130
Width: 377
VWidth: 1000
Flags: HMW
AnchorPoint: "CtxAnchors_Rafe" 245.779 0 basechar 0
AnchorPoint: "CtxAnchors_D3Narrow_M" 210 0 basechar 0
AnchorPoint: "CtxAnchors_D1_M" 170 0 basechar 0
AnchorPoint: "CtxAnchors_D2_M" 175 0 basechar 0
AnchorPoint: "CtxAnchors_D2Narrow_M" 175 0 basechar 0
AnchorPoint: "CtxAnchors_M_D2" 175 0 basechar 0
AnchorPoint: "CtxAnchors_M_D1" 170 0 basechar 0
AnchorPoint: "CtxAnchors_M_D3Narrow" 210 0 basechar 0
AnchorPoint: "CtxAnchors_M_D2Narrow" 175 0 basechar 0
AnchorPoint: "DiaToBaseD" 148 0 basechar 0
AnchorPoint: "DiaToBaseU" 160 0 basechar 0
AnchorPoint: "DiaToBase4" 210 0 basechar 0
AnchorPoint: "DiaToBase3" 175 0 basechar 0
AnchorPoint: "DiaToBase2" 170 0 basechar 0
AnchorPoint: "DiaToBase1" 170 0 basechar 0
AnchorPoint: "RafeToBase" 230 0 basechar 0
AnchorPoint: "DiaToBaseO" 25 0 basechar 0
LayerCount: 2
Back
SplineSet
84 634 m 1
 191 607 315 507 334 369 c 8
 347.645 269.9 345 240 318 113 c 1
 271 54 175 0 114 -36 c 1
 108 5 110 51 125 93 c 1
 172 125 219 154 273 190 c 1
 279 276 274.615 349.015 214 422 c 0
 165 481 103 507 33 531 c 1
 45 576 60 606 84 634 c 1
EndSplineSet
Fore
SplineSet
36.2246 621.384 m 1
 143.13 594.921 266.779 496.911 285.294 361.657 c 8
 298.592 264.529 295.842 235.224 268.396 110.751 c 1
 221.19 52.9258 125 0 63.874 -35.2832 c 1
 58.0176 4.90039 60.1787 49.9854 75.3262 91.1494 c 1
 122.439 122.513 169.54 150.936 223.667 186.219 c 1
 229.968 270.508 225.839 342.068 165.48 413.603 c 0
 116.688 471.428 54.7793 496.911 -15.1367 520.434 c 1
 -2.97852 564.537 12.126 593.94 36.2246 621.384 c 1
EndSplineSet
Validated: 33
Comment: "%DiaToBase1+AD0A-170+AAoA%DiaToBase2+AD0A-170+AAoA%DiaToBase3+AD0A-175+AAoA%DiaToBase4+AD0A-210+AAoA%DiaToBaseO+AD0A-25+AAoA%DiaToBaseU+AD0A-160+AAoA%RafeToBase+AD0A-230" 
EndChar

StartChar: afii57681
Encoding: 1505 1505 131
Width: 686
VWidth: 1000
Flags: HMW
AnchorPoint: "CtxAnchors_D3Narrow_M" 405 0 basechar 0
AnchorPoint: "CtxAnchors_D1_M" 380 0 basechar 0
AnchorPoint: "CtxAnchors_D2_M" 405 0 basechar 0
AnchorPoint: "CtxAnchors_D2Narrow_M" 405 0 basechar 0
AnchorPoint: "CtxAnchors_M_D2" 405 0 basechar 0
AnchorPoint: "CtxAnchors_M_D1" 380 0 basechar 0
AnchorPoint: "CtxAnchors_M_D3Narrow" 405 0 basechar 0
AnchorPoint: "CtxAnchors_M_D2Narrow" 405 0 basechar 0
AnchorPoint: "DiaToBaseD" 430 -2 basechar 0
AnchorPoint: "DiaToBaseU" 350 0 basechar 0
AnchorPoint: "DiaToBase4" 405 0 basechar 0
AnchorPoint: "DiaToBase3" 405 0 basechar 0
AnchorPoint: "DiaToBase2" 380 0 basechar 0
AnchorPoint: "DiaToBase1" 350 0 basechar 0
AnchorPoint: "RafeToBase" 400 0 basechar 0
AnchorPoint: "DiaToBaseO" 40 0 basechar 0
LayerCount: 2
Back
SplineSet
228 497 m 5
 264 369 307.5 237 349.5 127 c 4
 360.636 97.8338 391.345 89.562 427.5 109 c 4
 474 134 525 167 556.5 199.5 c 4
 586.093 230.033 580.351 271.463 571.5 307.5 c 4
 543.5 421.5 484.006 446.734 391.5 466.5 c 4
 333 479 282 488 228 497 c 5
91.5 628.5 m 5
 193.5 612.5 457.5 549.5 541.5 514.5 c 4
 611.093 485.503 661.53 413.013 663 340 c 4
 664.5 265.5 654 201 597 132 c 4
 556.408 82.8633 501.134 38.41 444 8 c 4
 346.097 -44.1094 292.814 -16.6475 271.5 49.5 c 4
 228 184.5 180 355.5 142 508.5 c 5
 109 514.5 61 522.5 18 532.5 c 5
 33 572.5 63.5 607.5 91.5 628.5 c 5
EndSplineSet
Fore
SplineSet
179.743 487.109 m 5
 215.294 361.657 258.332 232.284 299.945 124.473 c 4
 310.979 95.8867 341.659 87.7793 377.882 106.831 c 4
 424.47 131.333 475.587 163.677 507.2 195.53 c 4
 536.9 225.455 531.304 266.061 522.579 301.381 c 4
 494.979 413.112 435.574 437.845 343.137 457.217 c 4
 284.682 469.468 233.712 478.289 179.743 487.109 c 5
43.7051 615.993 m 5
 145.649 600.312 409.428 538.564 493.305 504.262 c 4
 562.797 475.842 612.979 404.794 614.193 333.234 c 4
 615.432 260.217 604.705 197 547.463 129.373 c 4
 506.698 81.2148 451.27 37.6465 394.028 7.84082 c 4
 295.943 -43.2314 242.755 -16.3164 221.674 48.5146 c 4
 178.647 180.828 131.248 348.426 93.7832 498.381 c 5
 60.8047 504.262 12.833 512.104 -30.1318 521.903 c 5
 -14.9912 561.107 15.6318 595.411 43.7051 615.993 c 5
EndSplineSet
Validated: 33
Comment: "%DiaToBase1+AD0A-350+AAoA%DiaToBase2+AD0A-380+AAoA%DiaToBase3+AD0A-405+AAoA%DiaToBase4+AD0A-405+AAoA%DiaToBaseO+AD0A-40+AAoA%DiaToBaseU+AD0A-350+AAoA%RafeToBase+AD0A-400" 
EndChar

StartChar: afii57682
Encoding: 1506 1506 132
Width: 564
VWidth: 1000
Flags: HMW
AnchorPoint: "CtxAnchors_D1_M" 380 0 basechar 0
AnchorPoint: "CtxAnchors_M_D1" 380 0 basechar 0
AnchorPoint: "DiaToBaseD" 358 70 basechar 0
AnchorPoint: "DiaToBaseU" 420 0 basechar 0
AnchorPoint: "DiaToBase2" 380 0 basechar 0
AnchorPoint: "DiaToBase1" 395 0 basechar 0
AnchorPoint: "RafeToBase" 300 0 basechar 0
LayerCount: 2
Back
SplineSet
63.7246 639 m 5
 222 505.5 315 303 334.625 166.5 c 5
 404.975 238.5 445.398 272.934 446.45 333 c 4
 448.025 423 413.375 469.5 364.55 523.5 c 5
 377.15 568.5 392.9 606 419.675 639 c 5
 488.975 570.497 530.965 481.801 525.2 372 c 4
 522.05 312 508.305 270.656 491.6 230 c 4
 453.8 138 382.4 92 305.75 22 c 12
 289.317 6.99219 272.096 1.61133 266.9 -19.5 c 20
 251.15 -83.5 207.05 -104 149.3 -121 c 5
 148.25 -88 137.225 -54 155.075 2 c 4
 169.574 47.4893 227.525 72 270.05 117 c 5
 244.85 285 126 414 12.7998 531 c 5
 22.25 574 34.3252 602.5 63.7246 639 c 5
EndSplineSet
Fore
SplineSet
15.9668 626.284 m 5
 173.774 495.44 266.062 296.971 285.21 163.187 c 5
 355.812 233.754 396.355 267.503 397.618 326.373 c 4
 399.51 414.582 365.022 460.157 316.387 513.082 c 5
 329.145 557.188 345.027 593.94 371.917 626.284 c 5
 440.976 559.145 482.655 472.213 476.504 364.598 c 4
 473.146 305.791 459.255 265.27 442.407 225.423 c 4
 404.284 135.254 332.723 90.1689 255.827 21.5625 c 12
 239.341 6.85254 222.102 1.58008 216.831 -19.1113 c 20
 200.857 -81.8379 156.685 -101.931 98.876 -118.592 c 5
 97.9414 -86.249 87.0361 -52.9258 105.081 1.96094 c 4
 119.741 46.5449 177.777 70.5674 220.46 114.672 c 5
 195.851 279.328 77.4531 405.762 -35.3369 520.434 c 5
 -25.7363 562.577 -13.5605 590.51 15.9668 626.284 c 5
EndSplineSet
Validated: 33
Substitution2: "saltMiscSAlt subtable" uniFB20
Substitution2: "AltAyin subtable" uniFB20
Comment: "+AAoA%DiaToBase1+AD0A-395+AAoA%DiaToBase2+AD0A-380+AAoA%DiaToBaseU+AD0A-420+AAoA%RafeToBase+AD0A-300" 
EndChar

StartChar: afii57683
Encoding: 1507 1507 133
Width: 549
VWidth: 1000
Flags: HMW
AnchorPoint: "DiaToBaseD" 322 0 basechar 0
LayerCount: 2
Back
SplineSet
169 629 m 1
 262 616 334.224 586.126 404 525 c 0
 450.386 484.364 479.013 423.945 495 354 c 0
 519 249 551 70 545 -72 c 1
 540 -126 516 -166.5 484.5 -196.5 c 1
 475.5 -84 468 -10.5 450 109 c 0
 433.228 220.35 419 307 372 387 c 0
 326.304 464.781 244 509 156 522 c 1
 111 426 142.5 378 228 339 c 1
 229.392 300.539 213 268 193 242 c 1
 106 266 49.8291 323.517 51 409 c 16
 52 482 112 581 169 629 c 1
EndSplineSet
Fore
SplineSet
121.207 616.482 m 1
 214.161 603.741 286.281 574.462 355.843 514.553 c 0
 402.086 474.726 430.501 415.508 446.242 346.955 c 0
 469.874 244.045 501.245 68.6064 494.747 -70.5674 c 1
 489.557 -123.492 465.415 -163.187 433.81 -192.59 c 1
 425.205 -82.3281 417.963 -10.291 400.382 106.831 c 0
 384.001 215.965 370.077 300.891 323.358 379.299 c 0
 277.935 455.531 195.785 498.871 107.832 511.612 c 1
 62.4951 417.522 93.8271 370.478 179.189 332.254 c 1
 180.446 294.558 163.94 262.667 143.85 237.185 c 1
 56.9336 260.707 0.963867 317.079 2.43457 400.861 c 16
 3.69141 472.408 64.0381 569.438 121.207 616.482 c 1
EndSplineSet
Validated: 33
EndChar

StartChar: afii57684
Encoding: 1508 1508 134
Width: 570
VWidth: 1000
Flags: HMW
AnchorPoint: "CtxAnchors_Rafe" 340.779 0 basechar 0
AnchorPoint: "CtxAnchors_D3Narrow_M" 290 0 basechar 0
AnchorPoint: "CtxAnchors_D1_M" 290 0 basechar 0
AnchorPoint: "CtxAnchors_D2_M" 290 0 basechar 0
AnchorPoint: "CtxAnchors_D2Narrow_M" 290 0 basechar 0
AnchorPoint: "CtxAnchors_M_D2" 290 0 basechar 0
AnchorPoint: "CtxAnchors_M_D1" 290 0 basechar 0
AnchorPoint: "CtxAnchors_M_D3Narrow" 290 0 basechar 0
AnchorPoint: "CtxAnchors_M_D2Narrow" 290 0 basechar 0
AnchorPoint: "DiaToBaseD" 356 -24 basechar 0
AnchorPoint: "DiaToBaseU" 275 0 basechar 0
AnchorPoint: "DiaToBase4" 290 0 basechar 0
AnchorPoint: "DiaToBase3" 290 0 basechar 0
AnchorPoint: "DiaToBase2" 290 0 basechar 0
AnchorPoint: "DiaToBase1" 290 0 basechar 0
AnchorPoint: "RafeToBase" 330 0 basechar 0
AnchorPoint: "DiaToBaseO" 120 0 basechar 0
LayerCount: 2
Back
SplineSet
199 629 m 1
 274 613 342.863 601.395 421 554 c 16
 482 517 515.915 447.502 531 386 c 0
 544 333 542.909 276.553 531 230 c 0
 520 187 475.381 104.541 455 88 c 0
 386 32 221 -36 133 -36 c 1
 134 4 147 42 169.5 76.5 c 1
 274.5 102.5 393.5 131.5 457.5 211.5 c 1
 470.02 297.999 447.573 387.531 385 444 c 0
 344 481 253 520.5 174 520.5 c 1
 140 425.5 163.5 396 255 343.5 c 1
 247 303.5 231 279 203 258 c 1
 127 265 71.8418 337.055 69 410 c 0
 66 487 146 597 199 629 c 1
EndSplineSet
Fore
SplineSet
151.207 616.482 m 1
 226.151 600.802 294.974 589.427 372.944 542.976 c 16
 433.812 506.712 467.485 438.597 482.354 378.318 c 0
 495.168 326.373 493.879 271.049 481.807 225.423 c 0
 470.656 183.278 425.747 102.46 405.309 86.249 c 0
 336.113 31.3633 170.874 -35.2832 82.874 -35.2832 c 1
 84.0137 3.91992 97.1475 41.1641 119.769 74.9785 c 1
 224.86 100.46 343.961 128.883 408.242 207.291 c 1
 421.066 292.068 398.933 379.818 336.558 435.164 c 0
 295.688 471.428 204.826 510.142 125.826 510.142 c 1
 91.4932 417.032 114.89 388.119 206.205 336.664 c 1
 198.064 297.46 181.979 273.448 153.905 252.866 c 1
 77.9297 259.727 23.0244 330.348 20.4385 401.841 c 0
 17.709 477.309 98.0947 585.12 151.207 616.482 c 1
EndSplineSet
Validated: 33
Comment: "%DiaToBase1+AD0A-290+AAoA%DiaToBase2+AD0A-290+AAoA%DiaToBase3+AD0A-290+AAoA%DiaToBase4+AD0A-290+AAoA%DiaToBaseO+AD0A-120+AAoA%DiaToBaseU+AD0A-275+AAoA%RafeToBase+AD0A-330" 
EndChar

StartChar: afii57685
Encoding: 1509 1509 135
Width: 549
VWidth: 1000
Flags: HMW
AnchorPoint: "DiaToBaseD" 276 194 basechar 0
LayerCount: 2
Back
SplineSet
82 639 m 1
 155.211 471.843 238 426 314.459 344.581 c 1
 365 394 385.477 453.181 359 531 c 1
 374.04 574.3 396.823 609.396 428 639 c 1
 508 513 445.95 385.016 359 302 c 1
 417 219 464.171 92.8291 464.095 -81.2744 c 1
 449.097 -138.285 416.649 -179.177 388.898 -200.222 c 1
 394.793 -117.377 387.538 111.577 270.58 251.183 c 0
 185.089 353.229 61 436 17 534 c 1
 28 573 52 611 82 639 c 1
EndSplineSet
Fore
SplineSet
34.2422 626.284 m 1
 106.866 462.454 189.495 417.522 265.668 337.724 c 1
 316.382 386.159 337.067 444.162 310.864 520.434 c 1
 326.056 562.871 348.961 597.269 380.242 626.284 c 1
 459.8 502.791 397.301 377.354 310.06 295.99 c 1
 367.769 214.642 414.497 90.9814 413.811 -79.6572 c 1
 398.612 -135.533 366.021 -175.611 338.195 -196.238 c 1
 344.381 -115.041 337.929 109.356 221.461 246.185 c 0
 136.329 346.199 12.5293 427.323 -31.126 523.373 c 1
 -19.9893 561.598 4.14355 598.841 34.2422 626.284 c 1
EndSplineSet
Validated: 33
EndChar

StartChar: afii57686
Encoding: 1510 1510 136
Width: 555
VWidth: 1000
Flags: HMW
AnchorPoint: "CtxAnchors_D3Narrow_M" 290 0 basechar 0
AnchorPoint: "CtxAnchors_D1_M" 280 0 basechar 0
AnchorPoint: "CtxAnchors_D2_M" 290 0 basechar 0
AnchorPoint: "CtxAnchors_D2Narrow_M" 290 0 basechar 0
AnchorPoint: "CtxAnchors_M_D2" 290 0 basechar 0
AnchorPoint: "CtxAnchors_M_D1" 280 0 basechar 0
AnchorPoint: "CtxAnchors_M_D3Narrow" 290 0 basechar 0
AnchorPoint: "CtxAnchors_M_D2Narrow" 290 0 basechar 0
AnchorPoint: "DiaToBaseD" 254 -75 basechar 0
AnchorPoint: "DiaToBaseU" 240 0 basechar 0
AnchorPoint: "DiaToBase4" 290 0 basechar 0
AnchorPoint: "DiaToBase3" 290 0 basechar 0
AnchorPoint: "DiaToBase2" 280 0 basechar 0
AnchorPoint: "DiaToBase1" 280 0 basechar 0
AnchorPoint: "RafeToBase" 320 0 basechar 0
AnchorPoint: "DiaToBaseO" 30 0 basechar 0
LayerCount: 2
Back
SplineSet
103 639 m 1
 130 519.499 273 439 369 389 c 1
 390 422 386 484 362 525.497 c 1
 382 569.497 411 614.497 447 639 c 1
 517 525 472 422 430 360 c 1
 464 344 519.842 317.426 524 280 c 0
 529 235 496.504 155.504 462 121 c 0
 389 48 189 -28 93 -36 c 1
 96 8 120 50 150 81 c 1
 341 125 448 200.929 448 229 c 0
 448 256 428.674 269.909 367 294 c 4
 303 319 205 359 142 403 c 0
 88.322 440.489 39.0361 494.872 32 519.499 c 1
 41 563.499 68 612.499 103 639 c 1
EndSplineSet
Fore
SplineSet
55.2422 626.284 m 1
 81.8232 509.161 224.54 430.264 320.365 381.259 c 1
 341.48 413.603 337.699 474.368 313.845 515.04 c 1
 333.998 558.164 363.156 602.269 399.242 626.284 c 1
 468.843 514.553 423.48 413.603 381.264 352.836 c 1
 415.206 337.154 470.955 311.109 474.982 274.428 c 0
 479.824 230.323 447.05 152.409 412.424 118.592 c 0
 339.169 47.0439 138.901 -27.4424 42.874 -35.2832 c 1
 46.0273 7.84082 70.1748 49.0049 100.284 79.3887 c 1
 291.439 122.513 398.705 196.931 398.803 224.443 c 0
 398.897 250.905 379.621 264.538 318.032 288.149 c 4
 254.119 312.652 156.26 351.855 93.4141 394.98 c 0
 39.8672 431.724 -9.22754 485.023 -16.1768 509.161 c 1
 -7.02344 552.285 20.1494 600.311 55.2422 626.284 c 1
EndSplineSet
Validated: 33
Comment: "%DiaToBase1+AD0A-280+AAoA%DiaToBase2+AD0A-280+AAoA%DiaToBase3+AD0A-290+AAoA%DiaToBase4+AD0A-290+AAoA%DiaToBaseO+AD0A-30+AAoA%DiaToBaseU+AD0A-240+AAoA%RafeToBase+AD0A-320" 
EndChar

StartChar: afii57687
Encoding: 1511 1511 137
Width: 667
VWidth: 1000
Flags: HMW
AnchorPoint: "CtxAnchors_D3Narrow_M" 570 0 basechar 0
AnchorPoint: "CtxAnchors_D1_M" 480 0 basechar 0
AnchorPoint: "CtxAnchors_D2_M" 535 0 basechar 0
AnchorPoint: "CtxAnchors_D2Narrow_M" 535 0 basechar 0
AnchorPoint: "CtxAnchors_M_D2" 535 0 basechar 0
AnchorPoint: "CtxAnchors_M_D1" 480 0 basechar 0
AnchorPoint: "CtxAnchors_M_D3Narrow" 570 0 basechar 0
AnchorPoint: "CtxAnchors_M_D2Narrow" 535 0 basechar 0
AnchorPoint: "DiaToBaseD" 402 0 basechar 0
AnchorPoint: "DiaToBaseU" 525 0 basechar 0
AnchorPoint: "DiaToBase4" 570 0 basechar 0
AnchorPoint: "DiaToBase3" 535 0 basechar 0
AnchorPoint: "DiaToBase2" 480 0 basechar 0
AnchorPoint: "DiaToBase1" 420 0 basechar 0
AnchorPoint: "RafeToBase" 350 0 basechar 0
AnchorPoint: "DiaToBaseO" 20 0 basechar 0
LayerCount: 2
Back
SplineSet
102 624 m 1
 261 596 475.852 565.495 540 548 c 0
 595 533 660.576 441.431 663 347 c 1
 634 269 556.401 165.803 542 137 c 0
 534 121 542 100 536 58 c 1
 526 40 507.569 27.8299 488 10 c 24
 472.422 -4.19336 467 -10 446 -24 c 1
 416 11 422.979 72.4082 452 121 c 16
 495 193 543 277 579 334 c 1
 570 379 550 421 537 432 c 0
 520.77 445.733 346.669 478.333 227.669 492.333 c 1
 301.669 302.333 366 146 410 -46 c 1
 410 -114 389 -161 343 -201 c 1
 342.557 -198.856 287.263 173.13 130.5 505 c 1
 93.5 511 61 516 24 522 c 1
 42 562 67 596 102 624 c 1
EndSplineSet
Fore
SplineSet
28.3584 611.582 m 1
 187.26 584.14 402.005 554.241 466.091 537.095 c 0
 521.037 522.394 586.293 432.646 588.386 340.095 c 1
 559.112 263.646 481.15 162.504 466.648 134.273 c 0
 458.592 118.592 466.52 98.0098 460.372 56.8457 c 1
 450.308 39.2031 431.835 27.2764 412.203 9.80176 c 24
 396.575 -4.10938 391.133 -9.80176 370.084 -23.5225 c 1
 340.207 10.7803 347.4 70.9678 376.592 118.592 c 16
 419.845 189.159 468.14 271.487 504.34 327.354 c 1
 495.498 371.458 475.645 412.622 462.685 423.403 c 0
 446.502 436.862 272.516 468.814 153.564 482.536 c 1
 226.897 296.316 290.681 143.095 334.007 -45.085 c 1
 333.768 -111.731 312.603 -157.796 266.463 -197 c 1
 266.026 -194.898 212.038 169.684 56.4404 494.95 c 1
 19.4609 500.831 -13.0215 505.731 -50 511.612 c 1
 -31.8594 550.816 -6.74121 584.14 28.3584 611.582 c 1
EndSplineSet
Validated: 33
Comment: "%DiaToBase1+AD0A-420+AAoA%DiaToBase2+AD0A-480+AAoA%DiaToBase3+AD0A-535+AAoA%DiaToBase4+AD0A-570+AAoA%DiaToBaseO+AD0A-20+AAoA%DiaToBaseU+AD0A-525+AAoA%RafeToBase+AD0A-350" 
EndChar

StartChar: afii57688
Encoding: 1512 1512 138
Width: 529
VWidth: 1000
Flags: HMW
AnchorPoint: "CtxAnchors_D3Narrow_M" 300 0 basechar 0
AnchorPoint: "CtxAnchors_D1_M" 380 0 basechar 0
AnchorPoint: "CtxAnchors_D2_M" 340 0 basechar 0
AnchorPoint: "CtxAnchors_D2Narrow_M" 340 0 basechar 0
AnchorPoint: "CtxAnchors_M_D2" 340 0 basechar 0
AnchorPoint: "CtxAnchors_M_D1" 380 0 basechar 0
AnchorPoint: "CtxAnchors_M_D3Narrow" 300 0 basechar 0
AnchorPoint: "CtxAnchors_M_D2Narrow" 340 0 basechar 0
AnchorPoint: "DiaToBaseD" 258 0 basechar 0
AnchorPoint: "DiaToBaseU" 310 0 basechar 0
AnchorPoint: "DiaToBase4" 300 0 basechar 0
AnchorPoint: "DiaToBase3" 340 0 basechar 0
AnchorPoint: "DiaToBase2" 380 0 basechar 0
AnchorPoint: "DiaToBase1" 400 0 basechar 0
AnchorPoint: "RafeToBase" 280 0 basechar 0
AnchorPoint: "DiaToBaseO" 30 0 basechar 0
LayerCount: 2
Back
SplineSet
93 628.5 m 5
 199 604.5 336.986 578.987 410 504 c 4
 484 428 513 181.5 516 81 c 5
 507 31.5 489 7 454.5 -18 c 5
 449.5 39 439.629 111.076 421.5 190.5 c 4
 400.5 282.5 384 360 327 420 c 4
 256.088 494.644 109.5 511.5 16.5 526.5 c 5
 36 574.5 60 600 93 628.5 c 5
EndSplineSet
Fore
SplineSet
45.2051 615.993 m 5
 151.12 592.471 289.018 567.465 361.769 493.971 c 4
 435.502 419.482 463.637 177.888 466.284 79.3887 c 5
 457.111 30.873 439.025 6.86035 404.438 -17.6426 c 5
 399.636 38.2246 390.019 108.865 372.169 186.709 c 4
 351.491 276.878 335.264 352.836 278.474 411.642 c 4
 207.823 484.8 61.2949 501.321 -31.6523 516.021 c 5
 -11.9844 563.067 12.1055 588.06 45.2051 615.993 c 5
EndSplineSet
Validated: 1
Substitution2: "jaltWideLetters subtable" uniFB27
Comment: "%DiaToBase1+AD0A-400+AAoA%DiaToBase2+AD0A-380+AAoA%DiaToBase3+AD0A-340+AAoA%DiaToBase4+AD0A-300+AAoA%DiaToBaseO+AD0A-30+AAoA%DiaToBaseU+AD0A-310+AAoA%RafeToBase+AD0A-280" 
EndChar

StartChar: afii57689
Encoding: 1513 1513 139
Width: 701
VWidth: 1000
Flags: HMW
AnchorPoint: "CtxAnchors_D3Narrow_M" 390 0 basechar 0
AnchorPoint: "CtxAnchors_D1_M" 360 0 basechar 0
AnchorPoint: "CtxAnchors_D2_M" 390 0 basechar 0
AnchorPoint: "CtxAnchors_D2Narrow_M" 390 0 basechar 0
AnchorPoint: "CtxAnchors_M_D2" 390 0 basechar 0
AnchorPoint: "CtxAnchors_M_D1" 360 0 basechar 0
AnchorPoint: "CtxAnchors_M_D3Narrow" 390 0 basechar 0
AnchorPoint: "CtxAnchors_M_D2Narrow" 390 0 basechar 0
AnchorPoint: "DiaToBaseD" 490 -14 basechar 0
AnchorPoint: "DiaToBaseU" 350 0 basechar 0
AnchorPoint: "DiaToBase4" 390 0 basechar 0
AnchorPoint: "DiaToBase3" 390 0 basechar 0
AnchorPoint: "DiaToBase2" 360 0 basechar 0
AnchorPoint: "DiaToBase1" 330 0 basechar 0
AnchorPoint: "RafeToBase" 410 0 basechar 0
AnchorPoint: "DiaToBaseO" 30 0 basechar 0
LayerCount: 2
Back
SplineSet
105 639 m 1
 176 527.499 236.5 381 266.5 283 c 1
 314.775 305.781 351.5 358.5 347.5 401.5 c 0
 343.592 443.509 303 498.003 276 526.5 c 1
 295.244 579.614 330.5 616.497 367.5 639 c 1
 404.66 577.066 428.511 509.27 432.238 442.5 c 0
 435 393 420.655 349.492 406.082 324 c 0
 379.5 277.5 339 237 286.5 210 c 1
 303 151.5 319 92 363 93 c 0
 403.002 93.9092 518 181 570 252 c 1
 593 342 572 421 510 531 c 1
 530 583 563 613.495 594 639 c 1
 637.5 582 680.602 473.52 670 362 c 24
 658.972 245.989 590 139 542 92 c 8
 482.924 34.1553 413 -21 362 -20 c 0
 279.01 -18.373 243.318 76.666 208 163 c 16
 172 251 147 334.5 111 402 c 0
 82.997 454.506 54 491 22 525 c 1
 40.5 571.5 66 607.5 105 639 c 1
EndSplineSet
Fore
SplineSet
57.2422 626.284 m 1
 127.851 517.002 187.837 373.418 217.493 277.368 c 1
 265.848 299.696 302.758 351.366 298.909 393.51 c 0
 295.148 434.684 254.747 488.093 227.848 516.021 c 1
 247.277 568.08 282.663 604.229 319.742 626.284 c 1
 356.686 565.582 380.298 499.137 383.791 433.694 c 0
 386.379 385.18 371.881 342.537 357.219 317.553 c 0
 330.474 271.978 289.832 232.284 237.236 205.821 c 1
 253.532 148.485 269.322 90.1689 313.326 91.1494 c 0
 353.332 92.04 468.635 177.398 520.884 246.985 c 1
 544.201 335.194 523.477 412.622 461.864 520.434 c 1
 482.046 571.398 515.153 601.286 546.242 626.284 c 1
 589.542 570.418 632.264 464.098 621.271 354.796 c 24
 609.834 241.094 540.487 136.234 492.322 90.1689 c 8
 433.044 33.4756 362.927 -20.582 311.93 -19.6016 c 0
 228.946 -18.0078 193.587 75.1406 158.571 159.756 c 16
 122.88 246.005 98.1738 327.844 62.4111 394 c 0
 34.5918 445.461 5.72363 481.229 -26.1582 514.553 c 1
 -7.49414 560.127 18.1318 595.411 57.2422 626.284 c 1
EndSplineSet
Validated: 33
Comment: "%DiaToBase1+AD0A-330+AAoA%DiaToBase2+AD0A-360+AAoA%DiaToBase3+AD0A-390+AAoA%DiaToBase4+AD0A-390+AAoA%DiaToBaseO+AD0A-30+AAoA%DiaToBaseU+AD0A-350+AAoA%RafeToBase+AD0A-410" 
EndChar

StartChar: afii57690
Encoding: 1514 1514 140
Width: 679
VWidth: 1000
Flags: HMW
AnchorPoint: "CtxAnchors_D3Narrow_M" 380 0 basechar 0
AnchorPoint: "CtxAnchors_D1_M" 360 0 basechar 0
AnchorPoint: "CtxAnchors_D2_M" 360 0 basechar 0
AnchorPoint: "CtxAnchors_D2Narrow_M" 360 0 basechar 0
AnchorPoint: "CtxAnchors_M_D2" 360 0 basechar 0
AnchorPoint: "CtxAnchors_M_D1" 360 0 basechar 0
AnchorPoint: "CtxAnchors_M_D3Narrow" 380 0 basechar 0
AnchorPoint: "CtxAnchors_M_D2Narrow" 360 0 basechar 0
AnchorPoint: "DiaToBaseD" 448 -26 basechar 0
AnchorPoint: "DiaToBaseU" 370 0 basechar 0
AnchorPoint: "DiaToBase4" 380 0 basechar 0
AnchorPoint: "DiaToBase3" 360 0 basechar 0
AnchorPoint: "DiaToBase2" 360 0 basechar 0
AnchorPoint: "DiaToBase1" 375 0 basechar 0
AnchorPoint: "RafeToBase" 420 0 basechar 0
AnchorPoint: "DiaToBaseO" 60 0 basechar 0
LayerCount: 2
Back
SplineSet
146 634 m 1
 265.5 624 382.5 592.5 484 543 c 0
 522.236 524.353 586.368 481.657 616 408 c 0
 651 321 670.5 207 679 93 c 1
 669 45 652.5 9 616.5 -25 c 1
 595.5 148.5 565.5 324 511.5 388.5 c 0
 448.849 463.333 365 478 291 500 c 1
 326 367 345 237 341 201 c 0
 339.419 186.77 320.838 131.848 296 94 c 16
 275 62 149 -4 105 -20 c 1
 91 11 105 71 117 101 c 1
 165 123 217 147 264 184 c 1
 242 300 218.5 403 187.5 519 c 1
 144.5 527 108.5 532 56.5 538 c 1
 70.5 580 98 607 146 634 c 1
EndSplineSet
Fore
SplineSet
98.2246 621.384 m 1
 217.69 611.582 334.579 580.709 435.905 532.194 c 0
 474.075 513.918 538.058 472.072 567.433 399.881 c 0
 602.126 314.612 621.227 202.881 629.326 91.1494 c 1
 619.157 44.1045 602.531 8.82129 566.412 -24.5029 c 1
 546.021 145.545 516.637 317.553 462.863 380.769 c 0
 400.475 454.112 316.678 468.488 242.755 490.05 c 1
 277.288 359.696 295.832 232.284 291.705 197 c 0
 290.074 183.053 271.3 129.224 246.33 92.1289 c 16
 225.217 60.7656 98.9863 -3.91992 54.9297 -19.6016 c 1
 41.0391 10.7803 55.249 69.5869 67.3535 98.9902 c 1
 115.432 120.553 167.516 144.074 214.646 180.339 c 1
 193.053 294.03 169.914 394.98 139.321 508.672 c 1
 96.3496 516.513 60.3662 521.413 8.3877 527.294 c 1
 22.5352 568.458 50.1299 594.921 98.2246 621.384 c 1
EndSplineSet
Validated: 33
Substitution2: "jaltWideLetters subtable" uniFB28
Comment: "%DiaToBase1+AD0A-375+AAoA%DiaToBase2+AD0A-360+AAoA%DiaToBase3+AD0A-360+AAoA%DiaToBase4+AD0A-380+AAoA%DiaToBaseO+AD0A-60+AAoA%DiaToBaseU+AD0A-370+AAoA%RafeToBase+AD0A-420" 
EndChar

StartChar: afii57636
Encoding: 8362 8362 150
Width: 1037
VWidth: 1000
Flags: HMW
LayerCount: 2
Back
SplineSet
790 431 m 0
 824.876 352.944 843 294 848 230 c 1
 827.612 197.49 758.287 154.93 685 129 c 0
 634.874 111.264 585 97 539 88.7012 c 0
 506.617 82.859 482.004 94.1217 476.046 121.147 c 0
 458 203 431.61 326.515 416 399 c 1
 383 379 357 356 336 317 c 1
 365.66 170.68 393.416 57.2324 405.834 33.3857 c 0
 427.311 -7.85547 471.527 -29.0684 519.035 -18 c 0
 595.535 -0.176758 702.875 16.9374 797 64 c 0
 825 78 842.408 92.416 858 121 c 16
 888 176 902 214 920 272 c 0
 924.686 287.101 924.25 298.363 922 315 c 16
 915.625 362.145 909.705 402.905 898 440 c 0
 886.188 477.433 868.52 511.15 846 548 c 0
 824 584 803 619 780 653.506 c 1
 753 628 723 581 719 538 c 1
 749 500 769 478 790 431 c 0
689.745 305 m 1
 683.357 326.37 675.831 348.069 667.059 370 c 0
 635.059 450 582.677 526.745 492.001 561 c 0
 402 595 308 606 197 618 c 0
 151.723 622.895 138 639 114 653.501 c 1
 81 621 57 581 36 531 c 5
 40 521 64.1006 510.547 71 491 c 20
 107 389 126 314 136 196 c 8
 143.652 105.702 142 54 149 -36 c 1
 183 -19 215.239 29.9854 227 81 c 1
 233 271 208 419 169 501 c 1
 293 497 358 487 434 465 c 0
 483.269 450.738 524.059 408 553.059 368 c 0
 578.33 333.143 601.959 267.574 617.782 209 c 1
 657 233 679 263 689.745 305 c 1
EndSplineSet
Fore
SplineSet
789 431 m 0
 768 478 757 485.494 727 523.494 c 1
 731 566.494 761 613.494 788 639 c 1
 811 604.494 823 584 845 548 c 0
 867.52 511.15 885.188 477.433 897 440 c 0
 908.705 402.905 914.625 362.145 921 315 c 8
 923.25 298.363 923.686 287.101 919 272 c 0
 901 214 887 176 857 121 c 8
 841.408 92.416 824 78 796 64 c 1
 704 19 605.326 -8.14844 511 -20 c 1
 462.68 -26.6846 426.311 -7.85547 404.834 33.3857 c 0
 392.416 57.2324 364.66 170.68 335 317 c 1
 356 356 382 379 415 399 c 1
 430.61 326.515 457 203 475.046 121.147 c 0
 481.004 94.1221 505.412 84.1396 538 88.7012 c 0
 583 95 634.582 109.378 684 129 c 0
 752 156 826.612 197.49 847 230 c 1
 842 294 823.876 352.944 789 431 c 0
168 491.074 m 1
 207 411.534 232 272.133 226 87.832 c 1
 214.239 38.3486 182 -8.51074 148 -25 c 1
 141 62.2998 142.629 112.06 135 199.383 c 16
 125 313.843 106 382.435 70 481.374 c 8
 63.0322 500.524 39 510.475 35 520.174 c 1
 56 568.674 80 607.475 113 639 c 1
 137 624.935 161.938 612.804 196 604.564 c 24
 309.894 577.015 401 581.564 491.001 547.564 c 0
 581.677 513.31 634.059 450 666.059 370 c 0
 674.831 348.069 682.357 326.37 688.745 305 c 1
 678 263 656 233 616.782 209 c 1
 600.959 267.574 577.33 333.143 552.059 368 c 0
 523.059 408 482.269 437.303 433 451.564 c 0
 357 473.564 292 487.074 168 491.074 c 1
EndSplineSet
Validated: 33
EndChar

StartChar: SF110000
Encoding: 9474 9474 151
Width: 570
VWidth: 970
Flags: MW
LayerCount: 2
Fore
SplineSet
325 960 m 1
 325 -300 l 1
 245 -300 l 1
 245 960 l 1
 325 960 l 1
EndSplineSet
Validated: 1
EndChar

StartChar: uniFB1E
Encoding: 64286 64286 156
Width: 0
VWidth: 1000
Flags: HMW
AnchorPoint: "CtxAnchors_Rafe" 0 0 mark 0
AnchorPoint: "RafeToBase" 0 0 mark 0
LayerCount: 2
Fore
SplineSet
-225.305 758.783 m 1
 -132.076 688 -60.5713 722 -23.1494 762.879 c 1
 -12.5303 738.477 -7.8877 714.128 -8 688.5 c 1
 -34.5518 659.5 -132.733 618 -261.28 700.5 c 1
 -255.235 720.93 -241.632 744.277 -225.305 758.783 c 1
EndSplineSet
Validated: 33
EndChar

StartChar: afii57705
Encoding: 64287 64287 157
Width: 702
VWidth: 1000
Flags: HMW
LayerCount: 2
Back
SplineSet
438.242 626.284 m 1
 566.018 563.558 671.771 494.95 673.18 329.312 c 1
 659.954 266.587 630.786 219.542 593.663 185.239 c 1
 591.871 243.064 598.129 315.592 563.386 387.14 c 0
 528.256 459.484 453.72 480.249 364.863 520.434 c 1
 383.011 561.598 399.132 595.41 438.242 626.284 c 1
87.2422 626.284 m 1
 215.018 563.558 320.772 494.95 322.18 329.312 c 1
 308.954 266.587 279.786 219.542 242.663 185.239 c 1
 240.871 243.064 247.129 315.592 212.386 387.14 c 0
 177.256 459.484 102.72 480.249 13.8633 520.434 c 1
 32.0107 561.598 48.1318 595.41 87.2422 626.284 c 1
338.029 102.088 m 5
 586.529 102.088 l 5
 583.328 75.9609 576.115 54.3223 563 31.5 c 5
 314.5 31.5 l 21
 317.701 57.627 324.914 79.2656 338.029 102.088 c 5
EndSplineSet
Fore
Refer: 101 1463 N 1 0 0 1 340 172.5 2
Refer: 123 1497 N 1 0 0 1 0 0 2
Refer: 123 1497 N 1 0 0 1 351 0 2
Validated: 1
Ligature2: "ccmpYiddish3 subtable" afii57673 afii57673 afii57798
Ligature2: "ccmpYiddish3 subtable" afii57718 afii57798
Ligature2: "ccmpYiddish_dflt subtable" afii57718 afii57798
LCarets2: 2 0 0 
EndChar

StartChar: uniFB20
Encoding: 64288 64288 158
Width: 555
VWidth: 1000
Flags: HMW
AnchorPoint: "CtxAnchors_D3Narrow_M" 285 0 basechar 0
AnchorPoint: "CtxAnchors_D1_M" 325 0 basechar 0
AnchorPoint: "CtxAnchors_D2_M" 285 0 basechar 0
AnchorPoint: "CtxAnchors_D2Narrow_M" 285 0 basechar 0
AnchorPoint: "CtxAnchors_M_D2" 285 0 basechar 0
AnchorPoint: "CtxAnchors_M_D1" 325 0 basechar 0
AnchorPoint: "CtxAnchors_M_D3Narrow" 285 0 basechar 0
AnchorPoint: "CtxAnchors_M_D2Narrow" 285 0 basechar 0
AnchorPoint: "DiaToBaseD" 360 48 basechar 0
AnchorPoint: "DiaToBaseU" 270 0 basechar 0
AnchorPoint: "DiaToBase4" 285 0 basechar 0
AnchorPoint: "DiaToBase3" 285 0 basechar 0
AnchorPoint: "DiaToBase2" 325 0 basechar 0
AnchorPoint: "DiaToBase1" 315 0 basechar 0
AnchorPoint: "RafeToBase" 300 0 basechar 0
LayerCount: 2
Back
SplineSet
15.9668 626.284 m 5
 173.774 495.44 266.062 296.971 285.21 163.187 c 5
 355.812 233.754 396.355 267.503 397.618 326.373 c 4
 399.51 414.582 365.022 460.157 316.387 513.082 c 5
 329.145 557.188 345.027 593.94 371.917 626.284 c 5
 440.976 559.145 482.655 472.213 476.504 364.598 c 4
 473.146 305.791 459.255 265.27 442.407 225.423 c 4
 404.284 135.254 332.723 90.1689 255.827 21.5625 c 12
 239.341 6.85254 222.102 1.58008 216.831 -19.1113 c 20
 200.857 -81.8379 156.685 -101.931 98.876 -118.592 c 5
 97.9414 -86.249 87.0361 -52.9258 105.081 1.96094 c 4
 119.741 46.5449 177.777 70.5674 220.46 114.672 c 5
 195.851 279.328 77.4531 405.762 -35.3369 520.434 c 5
 -25.7363 562.577 -13.5605 590.51 15.9668 626.284 c 5
EndSplineSet
Fore
SplineSet
15.8311 626.323 m 1
 174.106 492.823 256.662 301.251 306.106 138.823 c 1
 342.106 158.323 372.841 175.538 388.606 212.323 c 0
 403.121 246.192 398.701 306.942 391.606 335.323 c 0
 375.106 401.323 346.557 454.323 308.106 511.323 c 1
 324.106 557.323 345.007 593.323 371.781 626.323 c 1
 431.106 542.323 469.938 451.771 471.106 358.323 c 0
 471.906 294.323 462.606 210.323 423.106 141.823 c 0
 384.036 74.0693 313.606 38.3232 228.106 15.8232 c 0
 206.668 10.1826 188.44 4.52832 167.564 -10.5557 c 0
 123.106 -42.6768 77.6104 -61.8447 18.0869 -52.8467 c 1
 31.082 -22.4932 35.459 12.9795 75.3027 56.1885 c 0
 107.669 91.2881 170.548 89.0107 228.106 111.823 c 1
 178.606 272.323 78.1064 401.323 -35.0938 518.323 c 1
 -25.6436 561.323 -8.89355 593.323 15.8311 626.323 c 1
EndSplineSet
Validated: 33
Comment: "%DiaToBase1+AD0A-315+AAoA%DiaToBase2+AD0A-325+AAoA%DiaToBase3+AD0A-285+AAoA%DiaToBase4+AD0A-285+AAoA%DiaToBaseU+AD0A-270+AAoA%RafeToBase+AD0A-300" 
EndChar

StartChar: uniFB29
Encoding: 64297 64297 159
Width: 732
VWidth: 1074
Flags: HMW
LayerCount: 2
Back
SplineSet
650 293 m 1
 660.936 316.906 666.483 345.113 667.189 377 c 1
 441.189 377 l 1
 406.194 581 l 1
 380.595 587 348.595 586 326.595 579 c 1
 361.189 377 l 1
 167.189 377 l 1
 154.678 351.232 150.467 322.754 150 293 c 1
 650 293 l 1
EndSplineSet
Fore
SplineSet
575 299 m 1
 75 299 l 1
 75.4668 328.754 79.6777 357.232 92.1895 383 c 1
 286.189 383 l 1
 251.595 585 l 1
 273.595 592 305.595 593 331.194 587 c 1
 366.189 383 l 1
 592.189 383 l 1
 591.483 351.113 585.936 322.906 575 299 c 1
EndSplineSet
Validated: 33
EndChar

StartChar: uniFB4F
Encoding: 64335 64335 192
Width: 701
VWidth: 1000
Flags: HMW
LayerCount: 2
Back
SplineSet
73 819 m 1
 37 802 7 772 -10 740 c 1
 5.84338 607.389 42.6299 506.903 110.207 388 c 1
 261 369 385 328 469 248 c 0
 558.08 163.162 602 60 627 -25 c 1
 652 9 668 36 681 70 c 1
 648 161 593 261 520 328 c 1
 583 426 621 548 546 639 c 1
 513 613 492 586 471 550 c 1
 506 501 511 423 473 363 c 1
 382 426 292 463 176 491 c 1
 127 600 95 688 73 819 c 1
EndSplineSet
Fore
SplineSet
33.5996 821 m 1
 55.5996 690 72.4844 602.765 121.485 493.765 c 1
 237.485 465.765 338.6 426 429.6 363 c 1
 467.6 423 462.6 501 427.6 550 c 1
 448.6 586 469.6 613 502.6 639 c 1
 577.6 548 539.6 426 476.6 328 c 1
 549.6 261 604.6 161 637.6 70 c 1
 624.6 36 608.6 9 583.6 -25 c 1
 558.6 60 514.68 163.162 425.6 248 c 0
 341.6 328 217.6 369 66.8066 388 c 1
 2.59961 514 -29.4004 612 -53.4004 740 c 1
 -36.4004 772 -2.40039 804 33.5996 821 c 1
EndSplineSet
Validated: 33
Ligature2: "dligAlephLamed subtable" afii57664 afii57676
Ligature2: "ccmpAlephLamed subtable" afii57664 afii57676
LCarets2: 1 0 
EndChar

StartChar: uni25CC
Encoding: 9676 9676 194
Width: 615
VWidth: 1000
Flags: HMW
AnchorPoint: "CtxAnchors_Rafe" 500 0 basechar 0
AnchorPoint: "CtxAnchors_D3Narrow_M" 306 0 basechar 0
AnchorPoint: "CtxAnchors_D2Narrow_M" 306 0 basechar 0
AnchorPoint: "CtxAnchors_D2_M" 306 0 basechar 0
AnchorPoint: "CtxAnchors_D1_M" 306 0 basechar 0
AnchorPoint: "CtxAnchors_M_D3Narrow" 306 0 basechar 0
AnchorPoint: "CtxAnchors_M_D2Narrow" 306 0 basechar 0
AnchorPoint: "CtxAnchors_M_D2" 306 0 basechar 0
AnchorPoint: "CtxAnchors_M_D1" 306 0 basechar 0
AnchorPoint: "DiaToBaseU" 306 0 basechar 0
AnchorPoint: "DiaToBase4" 306 0 basechar 0
AnchorPoint: "DiaToBase3" 306 0 basechar 0
AnchorPoint: "DiaToBase2" 306 0 basechar 0
AnchorPoint: "DiaToBase1" 306 0 basechar 0
AnchorPoint: "RafeToBase" 306 0 basechar 0
AnchorPoint: "DiaToBaseD" 306 0 basechar 0
LayerCount: 2
Fore
SplineSet
36.9053 232.913 m 0
 52.3359 232.913 67.0684 220.39 69.79 204.96 c 0
 72.5107 189.529 62.1934 177.007 46.7646 177.007 c 0
 31.334 177.007 16.6025 189.529 13.8828 204.96 c 0
 11.1621 220.39 21.4756 232.913 36.9053 232.913 c 0
195.104 98.4277 m 0
 210.536 98.4277 225.265 85.9043 227.985 70.4746 c 0
 230.707 55.0439 220.393 42.5215 204.963 42.5215 c 0
 189.532 42.5215 174.802 55.0439 172.081 70.4746 c 0
 169.359 85.9043 179.676 98.4277 195.104 98.4277 c 0
385.184 98.4277 m 0
 400.613 98.4277 415.346 85.9043 418.065 70.4746 c 0
 420.787 55.0439 410.473 42.5215 395.042 42.5215 c 0
 379.61 42.5215 364.883 55.0439 362.161 70.4746 c 0
 359.439 85.9043 369.754 98.4277 385.184 98.4277 c 0
495.956 232.913 m 0
 511.387 232.913 526.116 220.39 528.838 204.96 c 0
 531.559 189.529 521.244 177.007 505.813 177.007 c 0
 490.385 177.007 475.651 189.529 472.931 204.96 c 0
 470.21 220.39 480.526 232.913 495.956 232.913 c 0
462.439 422.993 m 0
 477.87 422.993 492.601 410.47 495.321 395.039 c 0
 498.043 379.609 487.727 367.086 472.298 367.086 c 0
 456.869 367.086 442.136 379.609 439.415 395.039 c 0
 436.693 410.47 447.011 422.993 462.439 422.993 c 0
304.241 557.477 m 0
 319.672 557.477 334.402 544.955 337.124 529.525 c 0
 339.845 514.095 329.528 501.571 314.099 501.571 c 0
 298.669 501.571 283.938 514.095 281.219 529.525 c 0
 278.498 544.955 288.81 557.477 304.241 557.477 c 0
114.162 557.477 m 0
 129.593 557.477 144.322 544.955 147.044 529.525 c 0
 149.765 514.095 139.449 501.571 124.019 501.571 c 0
 108.591 501.571 93.8574 514.095 91.1377 529.525 c 0
 88.417 544.955 98.7324 557.477 114.162 557.477 c 0
3.38965 422.993 m 0
 18.8193 422.993 33.5527 410.47 36.2734 395.039 c 0
 38.9951 379.609 28.6777 367.086 13.248 367.086 c 0
 -2.18359 367.086 -16.9131 379.609 -19.6338 395.039 c 0
 -22.3545 410.47 -12.041 422.993 3.38965 422.993 c 0
1.20117 327.953 m 0
 16.6328 327.953 31.3633 315.429 34.084 300 c 0
 36.8047 284.57 26.4902 272.046 11.0596 272.046 c 0
 -4.37012 272.046 -19.1006 284.57 -21.8213 300 c 0
 -24.542 315.429 -14.2285 327.953 1.20117 327.953 c 0
43.0049 503.642 m 0
 58.4346 503.642 73.167 491.119 75.8877 475.688 c 0
 78.6074 460.259 68.293 447.735 52.8613 447.735 c 0
 37.4326 447.735 22.7012 460.259 19.9805 475.688 c 0
 17.2607 491.119 27.5742 503.642 43.0049 503.642 c 0
104.962 152.264 m 0
 120.392 152.264 135.124 139.74 137.845 124.311 c 0
 140.564 108.88 130.251 96.3574 114.818 96.3574 c 0
 99.3896 96.3574 84.6582 108.88 81.9375 124.311 c 0
 79.2178 139.74 89.5322 152.264 104.962 152.264 c 0
456.342 152.264 m 0
 471.771 152.264 486.502 139.74 489.223 124.311 c 0
 491.942 108.88 481.63 96.3574 466.199 96.3574 c 0
 450.768 96.3574 436.039 108.88 433.316 124.311 c 0
 430.598 139.74 440.91 152.264 456.342 152.264 c 0
394.385 503.642 m 0
 409.813 503.642 424.545 491.119 427.265 475.688 c 0
 429.985 460.259 419.673 447.735 404.241 447.735 c 0
 388.811 447.735 374.081 460.259 371.359 475.688 c 0
 368.639 491.119 378.953 503.642 394.385 503.642 c 0
205.86 576.424 m 0
 221.291 576.424 236.021 563.9 238.742 548.471 c 0
 241.464 533.04 231.147 520.518 215.719 520.518 c 0
 200.288 520.518 185.558 533.04 182.838 548.471 c 0
 180.116 563.9 190.43 576.424 205.86 576.424 c 0
293.484 79.4805 m 0
 308.916 79.4805 323.646 66.959 326.366 51.5283 c 0
 329.088 36.0986 318.772 23.5762 303.343 23.5762 c 0
 287.912 23.5762 273.182 36.0986 270.462 51.5283 c 0
 267.74 66.959 278.055 79.4805 293.484 79.4805 c 0
498.145 327.953 m 0
 513.574 327.953 528.306 315.429 531.025 300 c 0
 533.747 284.57 523.432 272.046 508.003 272.046 c 0
 492.572 272.046 477.84 284.57 475.119 300 c 0
 472.397 315.429 482.715 327.953 498.145 327.953 c 0
EndSplineSet
Validated: 1
Comment: "%DiaToBase1+AD0A-306+AAoA%DiaToBase2+AD0A-306+AAoA%DiaToBase3+AD0A-306+AAoA%DiaToBase4+AD0A-306+AAoA%DiaToBaseU+AD0A-306+AAoA%DiaToBaseD+AD0A-306+AAoA%RafeToBase+AD0A-306" 
EndChar

StartChar: sterling
Encoding: 163 163 195
Width: 631
VWidth: 1000
Flags: HMW
LayerCount: 2
Back
SplineSet
138.316 250.035 m 1
 85.7568 230.387 l 1
 80.9111 253.134 79.1738 282.329 85.6133 304.931 c 1
 111.089 314.004 l 1
 23.0908 553.233 202.904 713.519 403.479 730.86 c 1
 403.625 684.156 400.485 651.72 383.426 611.52 c 1
 170.497 596.762 136.185 550.76 190.495 376.81 c 0
 193.441 367.371 196.143 357.046 202.828 347.165 c 1
 271.641 370.723 317.404 389.145 356.682 408.234 c 1
 361.819 385.071 363.318 353.707 356.823 333.69 c 1
 321.611 318.444 301.286 307.742 230.123 283.22 c 1
 261.816 205.8 262.56 141.12 241.269 67.6201 c 1
 294.218 54.8799 451.934 151.442 548.828 208.74 c 1
 554.537 172.24 554.196 132.062 544.259 91.0322 c 1
 427.12 30.3799 247.79 -52.9199 166.902 -24.5 c 1
 194.33 83.2998 173.651 177.631 138.316 250.035 c 1
EndSplineSet
Fore
SplineSet
139.024 243.345 m 1
 86.4648 223.696 l 1
 81.6191 246.443 76.6162 288.325 83.0557 310.927 c 1
 108.531 320 l 1
 22.5312 553 201.438 713.519 402.013 730.86 c 1
 402.156 684.156 399.019 651.72 381.957 611.52 c 1
 169.028 596.762 134.716 550.76 189.026 376.81 c 0
 191.975 367.371 193.586 363.042 200.271 353.161 c 1
 269.084 376.719 314.849 395.141 354.124 414.23 c 1
 359.264 391.067 364.026 347.017 357.531 327 c 1
 322.319 311.754 301.994 301.052 230.831 276.529 c 1
 259.531 206 261.092 141.12 239.803 67.6201 c 1
 292.749 54.8799 450.466 151.442 547.359 208.74 c 1
 553.068 172.24 552.729 132.062 542.79 91.0322 c 1
 425.651 30.3799 246.321 -52.9199 165.436 -24.5 c 1
 192.531 82 174.359 170.94 139.024 243.345 c 1
EndSplineSet
Validated: 33
EndChar

StartChar: uni0000
Encoding: 0 0 197
Width: 950
VWidth: 1000
Flags: W
HStem: -150 75<150 800> 675 75<150 800>
VStem: 75 75<-75 675> 800 75<-75 675>
LayerCount: 2
Fore
SplineSet
75 750 m 1
 875 750 l 1
 875 -150 l 1
 75 -150 l 1
 75 750 l 1
150 675 m 1
 150 -75 l 1
 800 -75 l 1
 800 675 l 1
 150 675 l 1
EndSplineSet
Validated: 1
EndChar

StartChar: Euro
Encoding: 8364 8364 198
Width: 598
VWidth: 1000
Flags: HMW
LayerCount: 2
Back
SplineSet
409.479 726.479 m 1
 407.325 688.596 396.812 638.434 375.336 625.176 c 1
 291.121 649.129 252.76 639.462 210.192 623.938 c 0
 194.7 618.287 180.43 602.609 176.235 597.106 c 0
 158.408 573.715 143.955 503.677 153.295 427.304 c 0
 154.652 416.21 156.853 403.643 159.736 390.109 c 1
 388.074 464.301 l 1
 390.479 439.846 388.129 414.899 379.591 394.25 c 1
 175.712 328.006 l 1
 180.932 310.312 186.765 292.287 192.958 274.728 c 1
 398.678 341.57 l 1
 401.084 317.117 398.733 292.17 390.193 271.521 c 1
 216.315 215.023 l 1
 225.346 194.372 234.484 176.293 243.115 162.729 c 0
 262.97 131.525 285.789 79.1016 321.529 87.2256 c 0
 403.228 105.797 468.047 143.125 525.696 176.95 c 1
 530.825 149.37 527.207 103.057 516.41 80.4199 c 1
 483.318 57.6113 409.226 3.86914 330.892 -17.165 c 0
 274.832 -32.2178 248.442 -14.2852 223.952 15.0869 c 0
 197.044 47.3594 161.703 113.759 132.56 187.81 c 1
 89.6602 173.87 l 1
 87.4922 197.876 89.3691 220.566 98.1436 243.921 c 1
 110.883 248.06 l 1
 105.023 266.069 99.7266 284.113 95.1855 301.843 c 1
 91.4199 300.618 l 1
 90.8076 307.405 90.5176 314.089 90.6162 320.711 c 1
 82.4834 356.422 77.8018 390.293 78.2197 419.338 c 0
 78.915 467.598 81.4141 495.701 95.4004 541.895 c 0
 120.284 624.076 176.321 714.175 251.124 735.887 c 0
 335.721 760.439 409.444 726.479 409.479 726.479 c 1
EndSplineSet
Fore
SplineSet
402.496 711.949 m 1
 400.192 674.824 389.485 625.665 367.959 612.673 c 1
 283.836 636.146 245.438 626.673 202.81 611.459 c 0
 187.296 605.921 172.964 590.557 168.749 585.164 c 0
 150.831 562.24 136.104 493.604 145.147 418.758 c 0
 146.463 407.886 148.613 395.57 151.444 382.307 c 1
 380.069 455.015 l 1
 382.379 431.049 379.934 406.601 371.315 386.365 c 1
 167.179 321.446 l 1
 172.331 304.105 178.093 286.441 184.218 269.233 c 1
 390.196 334.738 l 1
 392.508 310.774 390.061 286.326 381.44 266.091 c 1
 207.343 210.723 l 1
 216.294 190.484 225.36 172.768 233.939 159.475 c 0
 253.673 128.895 276.289 77.5195 312.061 85.4814 c 0
 393.832 103.681 458.795 140.263 516.576 173.411 c 1
 521.596 146.383 517.799 100.996 506.914 78.8115 c 1
 473.733 56.459 399.434 3.79199 321.018 -16.8213 c 0
 264.898 -31.5732 238.579 -13.999 214.203 14.7852 c 0
 187.421 46.4121 152.338 111.483 123.481 184.054 c 1
 80.5283 170.393 l 1
 78.4541 193.919 80.4189 216.154 89.2842 239.043 c 1
 102.04 243.099 l 1
 96.25 260.748 91.0234 278.431 86.5518 295.806 c 1
 82.7812 294.605 l 1
 82.1953 301.257 81.9307 307.808 82.0557 314.297 c 1
 74.0615 349.294 69.5117 382.487 70.042 410.951 c 0
 70.9248 458.246 73.5332 485.787 87.6992 531.057 c 0
 112.901 611.595 169.29 699.892 244.176 721.169 c 0
 328.869 745.23 402.461 711.949 402.496 711.949 c 1
EndSplineSet
Validated: 33
EndChar

StartChar: endash
Encoding: 8211 8211 199
Width: 632
VWidth: 1048
Flags: HMW
LayerCount: 2
Fore
SplineSet
67 342 m 1
 567 342 l 1
 560.673 310.113 550.15 281.907 535 258 c 1
 35 258 l 1
 40.7129 287.754 49.9453 316.232 67 342 c 1
EndSplineSet
Validated: 1
EndChar

StartChar: emdash
Encoding: 8212 8212 200
Width: 932
VWidth: 1048
Flags: HMW
LayerCount: 2
Fore
SplineSet
67 342 m 1
 867 342 l 1
 860.673 310.113 850.149 281.907 835 258 c 1
 35 258 l 1
 40.7129 287.754 49.9453 316.232 67 342 c 1
EndSplineSet
Validated: 1
EndChar

StartChar: afii00208
Encoding: 8213 8213 201
Width: 1332
VWidth: 1048
Flags: HMW
LayerCount: 2
Fore
SplineSet
67 342 m 1
 1267 342 l 1
 1260.67 310.113 1250.15 281.907 1235 258 c 1
 35 258 l 1
 40.7129 287.754 49.9453 316.232 67 342 c 1
EndSplineSet
Validated: 1
EndChar

StartChar: uni05BA
Encoding: 1466 1466 208
Width: 0
VWidth: 1040
Flags: W
HStem: 638.85 103.529
VStem: -173.539 103.529
LayerCount: 2
Fore
SplineSet
-173.539 690.615 m 1
 -164.188 712.954 -150.898 729.091 -130.901 742.379 c 1
 -106.219 729.091 -87.2383 712.954 -70.0098 690.615 c 1
 -79.3604 668.277 -92.6504 652.141 -112.646 638.85 c 1
 -137.33 652.141 -156.31 668.277 -173.539 690.615 c 1
EndSplineSet
Validated: 1
EndChar

StartChar: uni05C5
Encoding: 1477 1477 209
Width: 0
VWidth: 1064
Flags: W
HStem: -214.24 124.235
VStem: -35.2939 124.234
LayerCount: 2
Fore
SplineSet
-35.2939 -152.122 m 5
 -24.0732 -125.315 -8.12598 -105.951 15.8701 -90.0049 c 5
 45.4893 -105.951 68.2666 -125.315 88.9404 -152.122 c 5
 77.7197 -178.928 61.7715 -198.291 37.7764 -214.24 c 5
 8.15625 -198.291 -14.6201 -178.928 -35.2939 -152.122 c 5
EndSplineSet
Validated: 1
EndChar

StartChar: uni05C7
Encoding: 1479 1479 210
Width: 0
VWidth: 1100
Flags: W
HStem: -139.5 70.5879<-84.0648 -15.7031 54.8848 119.094>
VStem: -103.5 242.029
AnchorPoint: "CtxAnchors_M_D2" -69.4375 0 mark 0
AnchorPoint: "ColumnToBaseMark" -133.5 -106.764 basemark 0
AnchorPoint: "DotToBaseMark" -147.5 -106.764 basemark 0
AnchorPoint: "BarToBaseMark" 138.529 -106.764 mark 0
AnchorPoint: "DiaToBase2" 0 0 mark 0
LayerCount: 2
Back
SplineSet
135 -139.5 m 5
 54.8926 -139.5 l 5
 73.2305 -243.5 l 1
 61.3047 -245.562 50.915 -246.44 38.4541 -246.44 c 1
 25.9951 -246.44 15.293 -245.562 2.64258 -243.5 c 1
 -15.6953 -139.5 l 5
 -123.5 -139.5 l 21
 -120.299 -113.373 -113.086 -91.7344 -99.9707 -68.9121 c 5
 158.529 -68.9121 l 5
 155.328 -95.0391 148.115 -116.678 135 -139.5 c 5
EndSplineSet
Fore
SplineSet
-15.7031 -139.5 m 1
 -103.5 -139.5 l 17
 -100.299 -113.373 -93.0859 -91.7344 -79.9707 -68.9121 c 1
 138.529 -68.9121 l 5
 135.328 -95.0391 128.115 -116.678 115 -139.5 c 5
 54.8848 -139.5 l 1
 82.6553 -296.994 l 1
 70.7295 -299.056 60.3398 -299.935 47.8789 -299.935 c 1
 35.4199 -299.935 24.7178 -299.056 12.0674 -296.994 c 1
 -15.7031 -139.5 l 1
EndSplineSet
Validated: 1
EndChar

StartChar: uniE806
Encoding: 59398 59398 216
Width: 0
VWidth: 1100
Flags: W
HStem: -287.941 232.941
AnchorPoint: "ColumnToBaseMark" -231.086 -106.764 basemark 0
AnchorPoint: "DotToBaseNarrowMark" -252.086 -106.764 basemark 0
AnchorPoint: "BarToBaseNarrowMark" -252.086 -106.764 basemark 0
AnchorPoint: "2DotsToBaseNarrowMark" 284.556 -106.764 mark 0
AnchorPoint: "DiaToBase4" 0 0 mark 0
LayerCount: 2
Back
SplineSet
-134.739 -236.176 m 1
 -125.387 -213.837 -112.096 -197.702 -92.1025 -184.41 c 1
 -67.4189 -197.702 -48.4375 -213.837 -31.208 -236.176 c 1
 -40.5605 -258.515 -53.8516 -274.651 -73.8477 -287.941 c 1
 -98.5273 -274.651 -117.51 -258.515 -134.739 -236.176 c 1
180.674 -236.176 m 5
 190.023 -213.837 203.316 -197.702 223.312 -184.41 c 5
 247.992 -197.702 266.975 -213.837 284.203 -236.176 c 5
 274.852 -258.515 261.562 -274.651 241.566 -287.941 c 5
 216.885 -274.651 197.902 -258.515 180.674 -236.176 c 5
157.855 -106.765 m 5
 167.205 -84.4258 180.496 -68.2891 200.492 -55 c 5
 225.174 -68.2891 244.154 -84.4258 261.385 -106.765 c 5
 252.033 -129.103 238.742 -145.238 218.748 -158.528 c 5
 194.064 -145.238 175.082 -129.103 157.855 -106.765 c 5
-91.3809 -106.765 m 1
 -82.0293 -84.4258 -68.7383 -68.2891 -48.7441 -55 c 1
 -24.0625 -68.2891 -5.08008 -84.4258 12.1484 -106.765 c 1
 2.79883 -129.103 -10.4941 -145.238 -30.4883 -158.528 c 1
 -55.1699 -145.238 -74.1504 -129.103 -91.3809 -106.765 c 1
-223.734 -106.765 m 1
 -214.383 -84.4258 -201.092 -68.2891 -181.098 -55 c 1
 -156.414 -68.2891 -137.434 -84.4258 -120.203 -106.765 c 1
 -129.555 -129.103 -142.846 -145.238 -162.842 -158.528 c 1
 -187.523 -145.238 -206.506 -129.103 -223.734 -106.765 c 1
EndSplineSet
Fore
SplineSet
112.245 -62.9414 m 1
 150.529 -280.059 l 1
 138.604 -282.121 128.214 -283 115.753 -283 c 4
 103.292 -283 92.5918 -282.121 79.9395 -280.059 c 1
 41.6562 -62.9414 l 17
 53.5811 -60.8789 63.9717 -60 76.4316 -60 c 0
 88.8936 -60 99.5928 -60.8789 112.245 -62.9414 c 1
-135.09 -236.176 m 1
 -125.738 -213.837 -112.449 -197.702 -92.4541 -184.41 c 1
 -67.7715 -197.702 -48.79 -213.837 -31.5605 -236.176 c 1
 -40.9121 -258.515 -54.2041 -274.651 -74.1992 -287.941 c 1
 -98.8809 -274.651 -117.86 -258.515 -135.09 -236.176 c 1
181.026 -236.176 m 1
 190.376 -213.837 203.669 -197.702 223.663 -184.41 c 1
 248.345 -197.702 267.326 -213.837 284.556 -236.176 c 1
 275.204 -258.516 261.913 -274.651 241.919 -287.941 c 1
 217.237 -274.651 198.254 -258.516 181.026 -236.176 c 1
158.208 -106.766 m 1
 167.558 -84.4258 180.851 -68.2891 200.845 -55 c 1
 225.526 -68.2891 244.508 -84.4258 261.736 -106.766 c 1
 252.386 -129.104 239.095 -145.238 219.1 -158.528 c 1
 194.418 -145.238 175.436 -129.104 158.208 -106.766 c 1
-91.7324 -106.765 m 1
 -82.3809 -84.4258 -69.0908 -68.2891 -49.0957 -55 c 1
 -24.4141 -68.2891 -5.43164 -84.4258 11.7959 -106.765 c 1
 2.44629 -129.103 -10.8457 -145.238 -30.8408 -158.528 c 1
 -55.5225 -145.238 -74.5029 -129.103 -91.7324 -106.765 c 1
-224.086 -106.765 m 1
 -214.734 -84.4258 -201.443 -68.2891 -181.449 -55 c 1
 -156.767 -68.2891 -137.784 -84.4258 -120.557 -106.765 c 1
 -129.906 -129.103 -143.198 -145.238 -163.194 -158.528 c 1
 -187.876 -145.238 -206.856 -129.103 -224.086 -106.765 c 1
EndSplineSet
Validated: 1
Ligature2: "ccmpCustomPrecomp subtable" afii57801 afii301 afii57839
LCarets2: 2 0 0 
EndChar

StartChar: uniE807
Encoding: 59399 59399 217
Width: 0
VWidth: 1100
Flags: W
HStem: -139.5 70.5879<-202.595 -10.9362>
AnchorPoint: "ColumnToBaseMark" -236.03 -106.764 basemark 0
AnchorPoint: "2DotsToBaseNarrowMark" 288.271 -106.764 mark 0
AnchorPoint: "DiaToBase4" 0 0 mark 0
LayerCount: 2
Back
SplineSet
112.994 -62.9414 m 1
 151.278 -280.059 l 5
 139.351 -282.121 128.961 -283 116.5 -283 c 0
 104.039 -283 93.3389 -282.121 80.6865 -280.059 c 1
 42.4033 -62.9414 l 17
 54.3281 -60.8789 64.7188 -60 77.1797 -60 c 0
 89.6396 -60 100.34 -60.8789 112.994 -62.9414 c 1
181.773 -236.176 m 1
 191.123 -213.837 204.417 -197.702 224.412 -184.41 c 1
 249.092 -197.702 268.074 -213.837 285.302 -236.176 c 1
 275.952 -258.516 262.66 -274.651 242.668 -287.941 c 1
 217.985 -274.651 199.001 -258.516 181.773 -236.176 c 1
158.955 -106.766 m 1
 168.305 -84.4258 181.599 -68.2891 201.594 -55 c 1
 226.273 -68.2891 245.256 -84.4258 262.483 -106.766 c 1
 253.134 -129.104 239.842 -145.238 219.849 -158.528 c 1
 195.166 -145.238 176.183 -129.104 158.955 -106.766 c 1
-207.955 -69.04 m 1
 -1.13281 -69.04 l 1
 0.272461 -95.167 -3.125 -116.806 -12.2158 -139.628 c 1
 -219.038 -139.628 l 17
 -220.443 -113.501 -217.046 -91.8623 -207.955 -69.04 c 1
EndSplineSet
Fore
SplineSet
-198.501 -68.9121 m 1
 8.49902 -68.9121 l 1
 5.29785 -95.0391 -1.91504 -116.678 -15.0303 -139.5 c 1
 -222.03 -139.5 l 17
 -218.829 -113.373 -211.616 -91.7344 -198.501 -68.9121 c 1
115.964 -62.9414 m 1
 154.248 -280.059 l 1
 142.32 -282.121 131.931 -283 119.47 -283 c 4
 107.009 -283 96.3086 -282.121 83.6562 -280.059 c 1
 45.373 -62.9414 l 17
 57.2979 -60.8789 67.6885 -60 80.1494 -60 c 0
 92.6094 -60 103.31 -60.8789 115.964 -62.9414 c 1
184.743 -236.176 m 1
 194.093 -213.837 207.387 -197.702 227.382 -184.41 c 1
 252.062 -197.702 271.044 -213.837 288.271 -236.176 c 1
 278.922 -258.516 265.63 -274.651 245.638 -287.941 c 1
 220.955 -274.651 201.971 -258.516 184.743 -236.176 c 1
161.925 -106.766 m 1
 171.274 -84.4258 184.568 -68.2891 204.563 -55 c 1
 229.243 -68.2891 248.226 -84.4258 265.453 -106.766 c 1
 256.104 -129.104 242.812 -145.238 222.818 -158.528 c 1
 198.136 -145.238 179.152 -129.104 161.925 -106.766 c 1
EndSplineSet
Validated: 1
Ligature2: "ccmpCustomPrecomp subtable" afii57800 afii301 afii57839
LCarets2: 2 0 0 
EndChar

StartChar: uniE808
Encoding: 59400 59400 218
Width: 0
VWidth: 1100
Flags: W
HStem: -139.5 70.5879<-203.818 -132.652 -62.0645 -1.36295>
AnchorPoint: "ColumnToBaseMark" -238.957 -106.764 basemark 0
AnchorPoint: "2DotsToBaseNarrowMark" 291.197 -106.764 mark 0
AnchorPoint: "DiaToBase4" 0 0 mark 0
LayerCount: 2
Back
SplineSet
116.672 -67.9414 m 1xb0
 153.193 -275.059 l 1
 141.268 -277.121 130.877 -278 118.416 -278 c 0
 105.955 -278 95.2559 -277.121 82.6035 -275.059 c 1
 46.082 -67.9414 l 17
 58.0078 -65.8789 68.3984 -65 80.8594 -65 c 0
 93.3203 -65 104.02 -65.8789 116.672 -67.9414 c 1xb0
184.572 -236.176 m 1
 193.922 -213.837 207.213 -197.702 227.209 -184.41 c 1
 251.891 -197.702 270.871 -213.837 288.102 -236.176 c 1
 278.748 -258.516 265.459 -274.651 245.465 -287.941 c 1
 220.781 -274.651 201.801 -258.516 184.572 -236.176 c 1
161.754 -106.766 m 1
 171.104 -84.4258 184.395 -68.2891 204.391 -55 c 1
 229.072 -68.2891 248.053 -84.4258 265.283 -106.766 c 1
 255.93 -129.104 242.641 -145.238 222.645 -158.528 c 1
 197.963 -145.238 178.98 -129.104 161.754 -106.766 c 1
-2.75977 -139.262 m 1
 -64.7227 -139.262 l 1
 -46.2422 -244.062 l 5
 -58.168 -246.125 -68.5586 -247.003 -81.0195 -247.003 c 5
 -93.4785 -247.003 -104.18 -246.125 -116.83 -244.062 c 5
 -135.311 -139.262 l 1
 -221.902 -139.263 l 17
 -223.307 -113.136 -219.91 -91.4971 -210.818 -68.6748 c 1
 -207.092 -68.6748 l 0x70
 8.32422 -68.6738 l 1
 9.72852 -94.8008 6.33203 -116.439 -2.75977 -139.262 c 1
EndSplineSet
Fore
SplineSet
-5.45703 -139.5 m 1
 -62.0645 -139.5 l 1
 -43.7266 -243.5 l 1
 -55.6523 -245.562 -66.041 -246.44 -78.502 -246.44 c 1
 -90.9609 -246.44 -101.664 -245.562 -114.314 -243.5 c 1
 -132.652 -139.5 l 1
 -224.957 -139.5 l 17
 -221.756 -113.373 -214.543 -91.7344 -201.428 -68.9121 c 1
 18.0723 -68.9121 l 1
 14.8711 -95.0391 7.6582 -116.678 -5.45703 -139.5 c 1
119.768 -67.9414 m 1
 156.289 -275.059 l 1
 144.363 -277.121 133.973 -278 121.512 -278 c 4
 109.051 -278 98.3516 -277.121 85.6992 -275.059 c 1
 49.1777 -67.9414 l 17
 61.1035 -65.8789 71.4941 -65 83.9551 -65 c 0
 96.416 -65 107.115 -65.8789 119.768 -67.9414 c 1
187.668 -236.176 m 1
 197.018 -213.837 210.309 -197.702 230.305 -184.41 c 1
 254.986 -197.702 273.967 -213.837 291.197 -236.176 c 1
 281.844 -258.516 268.555 -274.651 248.561 -287.941 c 1
 223.877 -274.651 204.896 -258.516 187.668 -236.176 c 1
164.85 -106.766 m 1
 174.199 -84.4258 187.49 -68.2891 207.486 -55 c 1
 232.168 -68.2891 251.148 -84.4258 268.379 -106.766 c 1
 259.025 -129.104 245.736 -145.238 225.74 -158.528 c 1
 201.059 -145.238 182.076 -129.104 164.85 -106.766 c 1
EndSplineSet
Validated: 1
Ligature2: "ccmpCustomPrecomp subtable" afii57802 afii301 afii57839
LCarets2: 2 0 0 
EndChar

StartChar: hatafsegol.narrow
Encoding: 1114130 -1 234
Width: 0
VWidth: 0
Flags: W
HStem: -287.941 232.941
VStem: -191 383.354
AnchorPoint: "CtxAnchors_M_D3Narrow" -57.9375 0 mark 0
AnchorPoint: "ColumnToBaseMark" -198 -106.764 basemark 0
AnchorPoint: "DotToBaseNarrowMark" -219 -106.764 basemark 0
AnchorPoint: "BarToBaseNarrowMark" -219 -106.764 basemark 0
AnchorPoint: "2DotsToBaseNarrowMark" 192.354 -106.764 mark 0
LayerCount: 2
Fore
SplineSet
88.8232 -236.176 m 0
 98.1738 -213.837 111.467 -197.702 131.461 -184.41 c 0
 156.143 -197.702 175.123 -213.837 192.354 -236.176 c 0
 183.002 -258.516 169.711 -274.651 149.717 -287.941 c 0
 125.034 -274.651 106.052 -258.516 88.8232 -236.176 c 0
66.0059 -106.766 m 0
 75.3555 -84.4258 88.6484 -68.2891 108.643 -55 c 0
 133.323 -68.2891 152.306 -84.4258 169.533 -106.766 c 0
 160.184 -129.104 146.893 -145.238 126.897 -158.528 c 0
 102.216 -145.238 83.2334 -129.104 66.0059 -106.766 c 0
-58.6465 -106.765 m 0
 -49.2949 -84.4258 -36.0049 -68.2891 -16.0098 -55 c 0
 8.67188 -68.2891 27.6543 -84.4258 44.8818 -106.765 c 0
 35.5322 -129.103 22.2402 -145.238 2.24512 -158.528 c 0
 -22.4365 -145.238 -41.417 -129.103 -58.6465 -106.765 c 0
-102.004 -236.176 m 0
 -92.6523 -213.837 -79.3633 -197.702 -59.3682 -184.41 c 0
 -34.6855 -197.702 -15.7041 -213.837 1.52539 -236.176 c 0
 -7.82617 -258.515 -21.1182 -274.651 -41.1133 -287.941 c 0
 -65.7949 -274.651 -84.7744 -258.515 -102.004 -236.176 c 0
-191 -106.765 m 0
 -181.648 -84.4258 -168.357 -68.2891 -148.363 -55 c 0
 -123.681 -68.2891 -104.698 -84.4258 -87.4707 -106.765 c 0
 -96.8203 -129.103 -110.112 -145.238 -130.108 -158.528 c 0
 -154.79 -145.238 -173.77 -129.103 -191 -106.765 c 0
EndSplineSet
Validated: 1
EndChar

StartChar: hatafpatah.narrow
Encoding: 1114131 -1 235
Width: 0
VWidth: 0
Flags: W
HStem: -139.5 70.5879<-172.565 19.0941>
VStem: -192 385.014
AnchorPoint: "CtxAnchors_M_D3Narrow" -61.4375 0 mark 0
AnchorPoint: "ColumnToBaseMark" -206 -106.764 basemark 0
AnchorPoint: "2DotsToBaseNarrowMark" 193.014 -106.764 mark 0
LayerCount: 2
Fore
SplineSet
89.4854 -236.176 m 0
 98.8359 -213.837 112.13 -197.702 132.125 -184.41 c 0
 156.805 -197.702 175.787 -213.837 193.014 -236.176 c 0
 183.665 -258.516 170.373 -274.651 150.381 -287.941 c 0
 125.698 -274.651 106.714 -258.516 89.4854 -236.176 c 0
66.668 -106.766 m 0
 76.0166 -84.4258 89.3105 -68.2891 109.306 -55 c 0
 133.985 -68.2891 152.969 -84.4258 170.195 -106.766 c 0
 160.847 -129.104 147.555 -145.238 127.561 -158.528 c 0
 102.879 -145.238 83.8945 -129.104 66.668 -106.766 c 0
-168.471 -68.9121 m 0
 38.5293 -68.9121 l 0
 35.3281 -95.0391 28.1152 -116.678 15 -139.5 c 0
 -192 -139.5 l 0
 -188.799 -113.373 -181.586 -91.7344 -168.471 -68.9121 c 0
EndSplineSet
Validated: 1
EndChar

StartChar: hatafqamats.narrow
Encoding: 1114132 -1 236
Width: 0
VWidth: 0
Flags: W
HStem: -139.5 70.5879<-175.565 -102.695 -32.1074 28.5941>
VStem: -195 390.864
AnchorPoint: "CtxAnchors_M_D3Narrow" -61.4375 0 mark 0
AnchorPoint: "ColumnToBaseMark" -209 -106.764 basemark 0
AnchorPoint: "2DotsToBaseNarrowMark" 195.864 -106.764 mark 0
LayerCount: 2
Fore
SplineSet
92.335 -236.176 m 0
 101.685 -213.837 114.976 -197.702 134.972 -184.41 c 0
 159.653 -197.702 178.634 -213.837 195.864 -236.176 c 0
 186.511 -258.516 173.222 -274.651 153.228 -287.941 c 0
 128.544 -274.651 109.562 -258.516 92.335 -236.176 c 0
69.5166 -106.766 m 0
 78.8662 -84.4258 92.1572 -68.2891 112.153 -55 c 0
 136.835 -68.2891 155.814 -84.4258 173.046 -106.766 c 0
 163.691 -129.104 150.403 -145.238 130.407 -158.528 c 0
 105.726 -145.238 86.7432 -129.104 69.5166 -106.766 c 0
24.5 -139.5 m 0
 -32.1074 -139.5 l 0
 -13.7695 -243.5 l 0
 -25.6953 -245.562 -36.084 -246.44 -48.5449 -246.44 c 0
 -61.0039 -246.44 -71.707 -245.562 -84.3574 -243.5 c 0
 -102.695 -139.5 l 0
 -195 -139.5 l 0
 -191.799 -113.373 -184.586 -91.7344 -171.471 -68.9121 c 0
 48.0293 -68.9121 l 0
 44.8281 -95.0391 37.6152 -116.678 24.5 -139.5 c 0
EndSplineSet
Validated: 1
EndChar

StartChar: segol.narrow
Encoding: 1114127 -1 237
Width: 0
VWidth: 0
Flags: W
HStem: -287.941 232.941
VStem: -117 235.882
AnchorPoint: "CtxAnchors_M_D2Narrow" -57.9375 0 mark 0
AnchorPoint: "ColumnToBaseMark" -124 -106.764 basemark 0
AnchorPoint: "DotToBaseNarrowMark" -145 -106.764 basemark 0
AnchorPoint: "BarToBaseNarrowMark" -145 -106.764 basemark 0
AnchorPoint: "DotToBaseNarrowMark" 118.882 -106.764 mark 0
LayerCount: 2
Fore
SplineSet
15.3535 -106.765 m 0
 24.7051 -84.4258 37.9951 -68.2891 57.9902 -55 c 0
 82.6719 -68.2891 101.654 -84.4258 118.882 -106.765 c 0
 109.532 -129.103 96.2402 -145.238 76.2451 -158.528 c 0
 51.5635 -145.238 32.583 -129.103 15.3535 -106.765 c 0
-28.0039 -236.176 m 0
 -18.6523 -213.837 -5.36328 -197.702 14.6318 -184.41 c 0
 39.3145 -197.702 58.2959 -213.837 75.5254 -236.176 c 0
 66.1738 -258.515 52.8818 -274.651 32.8867 -287.941 c 0
 8.20508 -274.651 -10.7744 -258.515 -28.0039 -236.176 c 0
-117 -106.765 m 0
 -107.648 -84.4258 -94.3574 -68.2891 -74.3633 -55 c 0
 -49.6807 -68.2891 -30.6982 -84.4258 -13.4707 -106.765 c 0
 -22.8203 -129.103 -36.1123 -145.238 -56.1084 -158.528 c 0
 -80.79 -145.238 -99.7695 -129.103 -117 -106.765 c 0
EndSplineSet
Validated: 1
EndChar

StartChar: tsere.narrow
Encoding: 1114126 -1 238
Width: 0
VWidth: 0
Flags: W
HStem: -158.528 103.528
VStem: -117 235.882
AnchorPoint: "CtxAnchors_M_D2Narrow" -57.9375 0 mark 0
AnchorPoint: "ColumnToBaseMark" -124 -106.764 basemark 0
AnchorPoint: "DotToBaseNarrowMark" -145 -106.764 basemark 0
AnchorPoint: "BarToBaseNarrowMark" -145 -106.764 basemark 0
AnchorPoint: "DotToBaseNarrowMark" 118.882 -106.764 mark 0
LayerCount: 2
Fore
SplineSet
15.3535 -106.765 m 0
 24.7051 -84.4258 37.9951 -68.2891 57.9902 -55 c 0
 82.6719 -68.2891 101.654 -84.4258 118.882 -106.765 c 0
 109.532 -129.103 96.2402 -145.238 76.2451 -158.528 c 0
 51.5635 -145.238 32.583 -129.103 15.3535 -106.765 c 0
-117 -106.765 m 0
 -107.648 -84.4258 -94.3574 -68.2891 -74.3633 -55 c 0
 -49.6807 -68.2891 -30.6982 -84.4258 -13.4707 -106.765 c 0
 -22.8203 -129.103 -36.1123 -145.238 -56.1084 -158.528 c 0
 -80.79 -145.238 -99.7695 -129.103 -117 -106.765 c 0
EndSplineSet
Validated: 1
Comment: "+AAoA%BarToBaseNarrowMark+AD0A-28+AAoA%ColumnToBaseMark+AD0A-7+AAoA%DotToBaseNarrowMark+AD0A-28" 
EndChar

StartChar: patah.narrow
Encoding: 1114128 -1 239
Width: 0
VWidth: 0
Flags: W
HStem: -139.5 70.5879<-95.5648 96.094>
VStem: -115 230.529
AnchorPoint: "CtxAnchors_M_D2Narrow" -61.4375 0 mark 0
AnchorPoint: "ColumnToBaseMark" -129 -106.764 basemark 0
AnchorPoint: "BarToBaseNarrowMark" 115.529 -106.764 mark 0
LayerCount: 2
Fore
SplineSet
-91.4707 -68.9121 m 0
 115.529 -68.9121 l 0
 112.328 -95.0391 105.115 -116.678 92 -139.5 c 0
 -115 -139.5 l 0
 -111.799 -113.373 -104.586 -91.7344 -91.4707 -68.9121 c 0
EndSplineSet
Validated: 1
Comment: "+AAoA%ColumnToBaseMark+AD0A-14" 
EndChar

StartChar: qamats.narrow
Encoding: 1114129 -1 240
Width: 0
VWidth: 0
Flags: W
HStem: -139.5 70.5879<-101.565 -28.6953 41.8926 102.594>
VStem: -121 243.029
AnchorPoint: "CtxAnchors_M_D2Narrow" -61.4375 0 mark 0
AnchorPoint: "ColumnToBaseMark" -135 -106.764 basemark 0
AnchorPoint: "BarToBaseNarrowMark" 122.029 -106.764 mark 0
LayerCount: 2
Fore
SplineSet
98.5 -139.5 m 0
 41.8926 -139.5 l 0
 60.2305 -243.5 l 0
 48.3047 -245.562 37.916 -246.44 25.4551 -246.44 c 0
 12.9961 -246.44 2.29297 -245.562 -10.3574 -243.5 c 0
 -28.6953 -139.5 l 0
 -121 -139.5 l 0
 -117.799 -113.373 -110.586 -91.7344 -97.4707 -68.9121 c 0
 122.029 -68.9121 l 0
 118.828 -95.0391 111.615 -116.678 98.5 -139.5 c 0
EndSplineSet
Validated: 1
EndChar

StartChar: uniE809
Encoding: 59401 59401 241
Width: 0
VWidth: 1000
Flags: W
HStem: -255.906 55.9062<-16.9115 38.0726> -195.906 55.9062<-87.4916 -32.5075 32.5084 87.4925> -135.906 55.9062<-38.0707 16.9126>
VStem: -87.9521 55.9053<-195.026 -140.881> -38.5312 55.9043<-135.026 -80.8806> -17.3721 55.9053<-255.026 -200.881> 32.0479 55.9053<-195.026 -140.881>
CounterMasks: 1 e0
AnchorPoint: "CtxAnchors_Rafe" 0 0 mark 0
AnchorPoint: "CtxAnchors_D3Narrow_M" 0 0 mark 0
AnchorPoint: "CtxAnchors_D2Narrow_M" 0 0 mark 0
AnchorPoint: "CtxAnchors_D2_M" 0 0 mark 0
AnchorPoint: "CtxAnchors_D1_M" 0 0 mark 0
AnchorPoint: "CtxAnchors_M_D3Narrow" 0 0 mark 0
AnchorPoint: "CtxAnchors_M_D2Narrow" 0 0 mark 0
AnchorPoint: "CtxAnchors_M_D2" 0 0 mark 0
AnchorPoint: "CtxAnchors_M_D1" 0 0 mark 0
LayerCount: 2
Fore
SplineSet
-64.9287 -140 m 0xf0
 -49.499 -140 -34.7676 -152.524 -32.0469 -167.953 c 0
 -29.3262 -183.384 -39.6416 -195.906 -55.0713 -195.906 c 0
 -70.502 -195.906 -85.2314 -183.384 -87.9521 -167.953 c 0
 -90.6729 -152.524 -80.3594 -140 -64.9287 -140 c 0xf0
5.65039 -200 m 0
 21.0801 -200 35.8125 -212.524 38.5332 -227.953 c 0
 41.2539 -243.384 30.9385 -255.906 15.5088 -255.906 c 0
 0.078125 -255.906 -14.6514 -243.384 -17.3721 -227.953 c 0xe4
 -20.0928 -212.524 -9.78027 -200 5.65039 -200 c 0
55.0713 -140 m 0
 70.501 -140 85.2324 -152.524 87.9531 -167.953 c 0
 90.6738 -183.384 80.3584 -195.906 64.9287 -195.906 c 0
 49.498 -195.906 34.7686 -183.384 32.0479 -167.953 c 0xe2
 29.3271 -152.524 39.6406 -140 55.0713 -140 c 0
-15.5088 -80 m 0
 -0.0791016 -80 14.6533 -92.5244 17.373 -107.953 c 0
 20.0947 -123.384 9.7793 -135.906 -5.65039 -135.906 c 0
 -21.0811 -135.906 -35.8105 -123.384 -38.5312 -107.953 c 0xe8
 -41.252 -92.5244 -30.9395 -80 -15.5088 -80 c 0
EndSplineSet
Validated: 1
EndChar

